STARTFONT 2.1
COMMENT
COMMENT Converted from OpenType font "MultiTypeGamerChess-Regular.otf" by "otf2bdf 3.0".
COMMENT
FONT -FreeType-MultiType Gamer Chess-Medium-R-Normal--77-560-100-100-P-460-ISO10646-1
SIZE 56 100 100
FONTBOUNDINGBOX 202 136 -68 -23
STARTPROPERTIES 19
FOUNDRY "FreeType"
FAMILY_NAME "MultiType Gamer Chess"
WEIGHT_NAME "Medium"
SLANT "R"
SETWIDTH_NAME "Normal"
ADD_STYLE_NAME ""
PIXEL_SIZE 77
POINT_SIZE 560
RESOLUTION_X 100
RESOLUTION_Y 100
SPACING "P"
AVERAGE_WIDTH 460
CHARSET_REGISTRY "ISO10646"
CHARSET_ENCODING "1"
FONT_ASCENT 85
FONT_DESCENT 7
COPYRIGHT "-FreeType-MultiType Gamer Chess-Medium-R-Normal--77-560-100-100-P-460-ISO10646-1"
_OTF_FONTFILE "MultiTypeGamerChess-Regular.otf"
_OTF_PSNAME "MultiTypeGamer-Chess"
ENDPROPERTIES
CHARS 758
STARTCHAR 0020
ENCODING 32
SWIDTH 295 0
DWIDTH 23 0
BBX 0 0 0 0
BITMAP
ENDCHAR
STARTCHAR 0021
ENCODING 33
SWIDTH 295 0
DWIDTH 23 0
BBX 12 58 6 0
BITMAP
F0F0
F0F0
F0F0
F0F0
0F00
0F00
0F00
F0F0
F0F0
F0F0
F0F0
0F00
0F00
0F00
0F00
F0F0
F0F0
F0F0
F0F0
0F00
0F00
0F00
0F00
F0F0
F0F0
F0F0
F0F0
0F00
0F00
0F00
0F00
F0F0
F0F0
F0F0
F0F0
0F00
0F00
0F00
0F00
0000
0000
0000
0000
0000
0000
0000
F0F0
F0F0
F0F0
F0F0
0F00
0F00
0F00
0F00
F0F0
F0F0
F0F0
F0F0
ENDCHAR
STARTCHAR 0022
ENCODING 34
SWIDTH 450 0
DWIDTH 35 0
BBX 31 19 2 47
BITMAP
F0F01E1E
F0F01E1E
F0F01E1E
F0F01E1E
0F0001E0
0F0001E0
0F0001E0
0F0001E0
F0F01E1E
F0F01E1E
F0F01E1E
F0F01E1E
0F0001E0
0F0001E0
0F0001E0
F0F01E1E
F0F01E1E
F0F01E1E
F0F01E1E
ENDCHAR
STARTCHAR 0023
ENCODING 35
SWIDTH 900 0
DWIDTH 70 0
BBX 58 74 6 -8
BITMAP
001E1E001E1E0000
001E1E001E1E0000
001E1E001E1E0000
001E1E001E1E0000
0001E00001E00000
0001E00001E00000
0001E00001E00000
0001E00001E00000
001E1E001E1E0000
001E1E001E1E0000
001E1E001E1E0000
001E1E001E1E0000
0001E00001E00000
0001E00001E00000
0001E00001E00000
001E1E001E1E0000
001E1E001E1E0000
001E1E001E1E0000
001E1E001E1E0000
F0F1E1E1E1E3C3C0
F0F1E1E1E1E3C3C0
F0F1E1E1E1E3C3C0
F0F1E1E1E1E3C3C0
0F1E1E1E1E1E3C00
0F1E1E1E1E1E3C00
0F1E1E1E1E1E3C00
0F1E1E1E1E1E3C00
F0F1E1E1E1E3C3C0
F0F1E1E1E1E3C3C0
F0F1E1E1E1E3C3C0
F0F1E1E1E1E3C3C0
001E1E001E1E0000
001E1E001E1E0000
001E1E001E1E0000
001E1E001E1E0000
0001E00001E00000
0001E00001E00000
0001E00001E00000
0001E00001E00000
001E1E001E1E0000
001E1E001E1E0000
001E1E001E1E0000
001E1E001E1E0000
F0F1E1E1E1E3C3C0
F0F1E1E1E1E3C3C0
F0F1E1E1E1E3C3C0
F0F1E1E1E1E3C3C0
0F1E1E1E1E1E3C00
0F1E1E1E1E1E3C00
0F1E1E1E1E1E3C00
F0F1E1E1E1E3C3C0
F0F1E1E1E1E3C3C0
F0F1E1E1E1E3C3C0
F0F1E1E1E1E3C3C0
001E1E001E1E0000
001E1E001E1E0000
001E1E001E1E0000
001E1E001E1E0000
0001E00001E00000
0001E00001E00000
0001E00001E00000
0001E00001E00000
001E1E001E1E0000
001E1E001E1E0000
001E1E001E1E0000
001E1E001E1E0000
0001E00001E00000
0001E00001E00000
0001E00001E00000
0001E00001E00000
001E1E001E1E0000
001E1E001E1E0000
001E1E001E1E0000
001E1E001E1E0000
ENDCHAR
STARTCHAR 0024
ENCODING 36
SWIDTH 694 0
DWIDTH 54 0
BBX 43 74 6 -8
BITMAP
0001E1E00000
0001E1E00000
0001E1E00000
0001E1E00000
00001E000000
00001E000000
00001E000000
00001E000000
00F1E1E1E1E0
00F1E1E1E1E0
00F1E1E1E1E0
00F1E1E1E1E0
0F1E1E1E1E00
0F1E1E1E1E00
0F1E1E1E1E00
F0F1E1E1E1E0
F0F1E1E1E1E0
F0F1E1E1E1E0
F0F1E1E1E1E0
0F0000000000
0F0000000000
0F0000000000
0F0000000000
F0F000000000
F0F000000000
F0F000000000
F0F000000000
0F0000000000
0F0000000000
0F0000000000
0F0000000000
F0F1E1E1E000
F0F1E1E1E000
F0F1E1E1E000
F0F1E1E1E000
0F1E1E1E1E00
0F1E1E1E1E00
0F1E1E1E1E00
0F1E1E1E1E00
00F1E1E1E1E0
00F1E1E1E1E0
00F1E1E1E1E0
00F1E1E1E1E0
000000001E00
000000001E00
000000001E00
000000001E00
00000001E1E0
00000001E1E0
00000001E1E0
000000001E00
000000001E00
000000001E00
000000001E00
F0F1E1E1E1E0
F0F1E1E1E1E0
F0F1E1E1E1E0
F0F1E1E1E1E0
0F1E1E1E1E00
0F1E1E1E1E00
0F1E1E1E1E00
0F1E1E1E1E00
F0F1E1E1E000
F0F1E1E1E000
F0F1E1E1E000
F0F1E1E1E000
00001E000000
00001E000000
00001E000000
00001E000000
0001E1E00000
0001E1E00000
0001E1E00000
0001E1E00000
ENDCHAR
STARTCHAR 0025
ENCODING 37
SWIDTH 1298 0
DWIDTH 101 0
BBX 89 58 6 0
BITMAP
00F1E1E00003C3C000000000
00F1E1E00003C3C000000000
00F1E1E00003C3C000000000
00F1E1E00003C3C000000000
0F1E1E1E00003C0000000000
0F1E1E1E00003C0000000000
0F1E1E1E00003C0000000000
F0F1E1E1E003C3C000000000
F0F1E1E1E003C3C000000000
F0F1E1E1E003C3C000000000
F0F1E1E1E003C3C000000000
0F00001E001E3C0000000000
0F00001E001E3C0000000000
0F00001E001E3C0000000000
0F00001E001E3C0000000000
F0F001E1E003C00000000000
F0F001E1E003C00000000000
F0F001E1E003C00000000000
F0F001E1E003C00000000000
0F00001E001E3C0000000000
0F00001E001E3C0000000000
0F00001E001E3C0000000000
0F00001E001E3C0000000000
F0F1E1E1E1E3C003C3C3C000
F0F1E1E1E1E3C003C3C3C000
F0F1E1E1E1E3C003C3C3C000
F0F1E1E1E1E3C003C3C3C000
0F1E1E1E001E003C3C3C7800
0F1E1E1E001E003C3C3C7800
0F1E1E1E001E003C3C3C7800
0F1E1E1E001E003C3C3C7800
00F1E1E001E3C3C3C3C3C780
00F1E1E001E3C3C3C3C3C780
00F1E1E001E3C3C3C3C3C780
00F1E1E001E3C3C3C3C3C780
000000001E1E003C00007800
000000001E1E003C00007800
000000001E1E003C00007800
000000001E1E003C00007800
0000000001E003C3C003C780
0000000001E003C3C003C780
0000000001E003C3C003C780
000000001E1E003C00007800
000000001E1E003C00007800
000000001E1E003C00007800
000000001E1E003C00007800
00000001E1E003C3C3C3C780
00000001E1E003C3C3C3C780
00000001E1E003C3C3C3C780
00000001E1E003C3C3C3C780
000000001E00003C3C3C7800
000000001E00003C3C3C7800
000000001E00003C3C3C7800
000000001E00003C3C3C7800
00000001E1E00003C3C3C000
00000001E1E00003C3C3C000
00000001E1E00003C3C3C000
00000001E1E00003C3C3C000
ENDCHAR
STARTCHAR 0026
ENCODING 38
SWIDTH 797 0
DWIDTH 62 0
BBX 50 58 6 0
BITMAP
00F1E1E1E00000
00F1E1E1E00000
00F1E1E1E00000
00F1E1E1E00000
0F1E1E1E000000
0F1E1E1E000000
0F1E1E1E000000
F0F1E1E1E00000
F0F1E1E1E00000
F0F1E1E1E00000
F0F1E1E1E00000
0F000000000000
0F000000000000
0F000000000000
0F000000000000
F0F00001E1E000
F0F00001E1E000
F0F00001E1E000
F0F00001E1E000
0F1E00001E0000
0F1E00001E0000
0F1E00001E0000
0F1E00001E0000
00F1E1E1E1E3C0
00F1E1E1E1E3C0
00F1E1E1E1E3C0
00F1E1E1E1E3C0
001E1E1E1E1E00
001E1E1E1E1E00
001E1E1E1E1E00
001E1E1E1E1E00
00F1E1E1E1E3C0
00F1E1E1E1E3C0
00F1E1E1E1E3C0
00F1E1E1E1E3C0
0F1E00001E0000
0F1E00001E0000
0F1E00001E0000
0F1E00001E0000
F0F00001E1E000
F0F00001E1E000
F0F00001E1E000
0F0000001E0000
0F0000001E0000
0F0000001E0000
0F0000001E0000
F0F1E1E1E1E3C0
F0F1E1E1E1E3C0
F0F1E1E1E1E3C0
F0F1E1E1E1E3C0
0F1E1E1E1E1E00
0F1E1E1E1E1E00
0F1E1E1E1E1E00
0F1E1E1E1E1E00
00F1E1E1E1E3C0
00F1E1E1E1E3C0
00F1E1E1E1E3C0
00F1E1E1E1E3C0
ENDCHAR
STARTCHAR 0027
ENCODING 39
SWIDTH 192 0
DWIDTH 15 0
BBX 12 19 2 47
BITMAP
F0F0
F0F0
F0F0
F0F0
0F00
0F00
0F00
0F00
F0F0
F0F0
F0F0
F0F0
0F00
0F00
0F00
F0F0
F0F0
F0F0
F0F0
ENDCHAR
STARTCHAR 0028
ENCODING 40
SWIDTH 295 0
DWIDTH 23 0
BBX 19 90 6 -16
BITMAP
00F1E0
00F1E0
00F1E0
00F1E0
0F1E00
0F1E00
0F1E00
0F1E00
F0F000
F0F000
F0F000
F0F000
0F0000
0F0000
0F0000
0F0000
F0F000
F0F000
F0F000
F0F000
0F0000
0F0000
0F0000
F0F000
F0F000
F0F000
F0F000
0F0000
0F0000
0F0000
0F0000
F0F000
F0F000
F0F000
F0F000
0F0000
0F0000
0F0000
0F0000
F0F000
F0F000
F0F000
F0F000
0F0000
0F0000
0F0000
0F0000
F0F000
F0F000
F0F000
F0F000
0F0000
0F0000
0F0000
0F0000
F0F000
F0F000
F0F000
0F0000
0F0000
0F0000
0F0000
F0F000
F0F000
F0F000
F0F000
0F0000
0F0000
0F0000
0F0000
F0F000
F0F000
F0F000
F0F000
0F0000
0F0000
0F0000
0F0000
F0F000
F0F000
F0F000
F0F000
0F1E00
0F1E00
0F1E00
0F1E00
00F1E0
00F1E0
00F1E0
00F1E0
ENDCHAR
STARTCHAR 0029
ENCODING 41
SWIDTH 295 0
DWIDTH 23 0
BBX 20 90 -2 -16
BITMAP
F0F000
F0F000
F0F000
F0F000
0F0F00
0F0F00
0F0F00
0F0F00
00F0F0
00F0F0
00F0F0
00F0F0
000F00
000F00
000F00
000F00
00F0F0
00F0F0
00F0F0
00F0F0
000F00
000F00
000F00
00F0F0
00F0F0
00F0F0
00F0F0
000F00
000F00
000F00
000F00
00F0F0
00F0F0
00F0F0
00F0F0
000F00
000F00
000F00
000F00
00F0F0
00F0F0
00F0F0
00F0F0
000F00
000F00
000F00
000F00
00F0F0
00F0F0
00F0F0
00F0F0
000F00
000F00
000F00
000F00
00F0F0
00F0F0
00F0F0
000F00
000F00
000F00
000F00
00F0F0
00F0F0
00F0F0
00F0F0
000F00
000F00
000F00
000F00
00F0F0
00F0F0
00F0F0
00F0F0
000F00
000F00
000F00
000F00
00F0F0
00F0F0
00F0F0
00F0F0
0F0F00
0F0F00
0F0F00
0F0F00
F0F000
F0F000
F0F000
F0F000
ENDCHAR
STARTCHAR 002A
ENCODING 42
SWIDTH 900 0
DWIDTH 70 0
BBX 58 50 6 16
BITMAP
F0F001E1E003C3C0
F0F001E1E003C3C0
F0F001E1E003C3C0
F0F001E1E003C3C0
0F00001E00003C00
0F00001E00003C00
0F00001E00003C00
0F00001E00003C00
F0F001E1E003C3C0
F0F001E1E003C3C0
F0F001E1E003C3C0
F0F001E1E003C3C0
0F1E001E001E3C00
0F1E001E001E3C00
0F1E001E001E3C00
00F1E1E1E1E3C000
00F1E1E1E1E3C000
00F1E1E1E1E3C000
00F1E1E1E1E3C000
001E1E1E1E1E0000
001E1E1E1E1E0000
001E1E1E1E1E0000
001E1E1E1E1E0000
0001E1E1E1E00000
0001E1E1E1E00000
0001E1E1E1E00000
0001E1E1E1E00000
001E1E1E1E1E0000
001E1E1E1E1E0000
001E1E1E1E1E0000
001E1E1E1E1E0000
00F1E1E1E1E3C000
00F1E1E1E1E3C000
00F1E1E1E1E3C000
00F1E1E1E1E3C000
0F1E001E001E3C00
0F1E001E001E3C00
0F1E001E001E3C00
0F1E001E001E3C00
F0F001E1E003C3C0
F0F001E1E003C3C0
F0F001E1E003C3C0
F0F001E1E003C3C0
0F00001E00003C00
0F00001E00003C00
0F00001E00003C00
0F00001E00003C00
F0F001E1E003C3C0
F0F001E1E003C3C0
F0F001E1E003C3C0
ENDCHAR
STARTCHAR 002B
ENCODING 43
SWIDTH 694 0
DWIDTH 54 0
BBX 43 43 6 8
BITMAP
0001E1E00000
0001E1E00000
0001E1E00000
0001E1E00000
00001E000000
00001E000000
00001E000000
00001E000000
0001E1E00000
0001E1E00000
0001E1E00000
0001E1E00000
00001E000000
00001E000000
00001E000000
00001E000000
F0F1E1E1E1E0
F0F1E1E1E1E0
F0F1E1E1E1E0
F0F1E1E1E1E0
0F1E1E1E1E00
0F1E1E1E1E00
0F1E1E1E1E00
0F1E1E1E1E00
F0F1E1E1E1E0
F0F1E1E1E1E0
F0F1E1E1E1E0
F0F1E1E1E1E0
00001E000000
00001E000000
00001E000000
00001E000000
0001E1E00000
0001E1E00000
0001E1E00000
00001E000000
00001E000000
00001E000000
00001E000000
0001E1E00000
0001E1E00000
0001E1E00000
0001E1E00000
ENDCHAR
STARTCHAR 002C
ENCODING 44
SWIDTH 192 0
DWIDTH 15 0
BBX 12 20 2 -8
BITMAP
F0F0
F0F0
F0F0
F0F0
0F00
0F00
0F00
0F00
F0F0
F0F0
F0F0
F0F0
0F00
0F00
0F00
0F00
F000
F000
F000
F000
ENDCHAR
STARTCHAR 002D
ENCODING 45
SWIDTH 488 0
DWIDTH 38 0
BBX 35 12 2 23
BITMAP
F0F1E1E1E0
F0F1E1E1E0
F0F1E1E1E0
F0F1E1E1E0
0F0F1E1E00
0F0F1E1E00
0F0F1E1E00
0F0F1E1E00
F0F1E1E1E0
F0F1E1E1E0
F0F1E1E1E0
F0F1E1E1E0
ENDCHAR
STARTCHAR 002E
ENCODING 46
SWIDTH 192 0
DWIDTH 15 0
BBX 12 12 2 0
BITMAP
F0F0
F0F0
F0F0
F0F0
0F00
0F00
0F00
0F00
F0F0
F0F0
F0F0
F0F0
ENDCHAR
STARTCHAR 002F
ENCODING 47
SWIDTH 398 0
DWIDTH 31 0
BBX 27 58 2 0
BITMAP
0001E1E0
0001E1E0
0001E1E0
0001E1E0
00001E00
00001E00
00001E00
0001E1E0
0001E1E0
0001E1E0
0001E1E0
000F1E00
000F1E00
000F1E00
000F1E00
0001E000
0001E000
0001E000
0001E000
000F1E00
000F1E00
000F1E00
000F1E00
00F1E000
00F1E000
00F1E000
00F1E000
000F0000
000F0000
000F0000
000F0000
00F1E000
00F1E000
00F1E000
00F1E000
0F0F0000
0F0F0000
0F0F0000
0F0F0000
00F00000
00F00000
00F00000
0F0F0000
0F0F0000
0F0F0000
0F0F0000
F0F00000
F0F00000
F0F00000
F0F00000
0F000000
0F000000
0F000000
0F000000
F0F00000
F0F00000
F0F00000
F0F00000
ENDCHAR
STARTCHAR 0030
ENCODING 48
SWIDTH 694 0
DWIDTH 54 0
BBX 43 58 6 0
BITMAP
0001E1E00000
0001E1E00000
0001E1E00000
0001E1E00000
001E1E1E0000
001E1E1E0000
001E1E1E0000
00F1E1E1E000
00F1E1E1E000
00F1E1E1E000
00F1E1E1E000
0F1E001E1E00
0F1E001E1E00
0F1E001E1E00
0F1E001E1E00
F0F00001E1E0
F0F00001E1E0
F0F00001E1E0
F0F00001E1E0
0F0000001E00
0F0000001E00
0F0000001E00
0F0000001E00
F0F00001E1E0
F0F00001E1E0
F0F00001E1E0
F0F00001E1E0
0F0000001E00
0F0000001E00
0F0000001E00
0F0000001E00
F0F00001E1E0
F0F00001E1E0
F0F00001E1E0
F0F00001E1E0
0F0000001E00
0F0000001E00
0F0000001E00
0F0000001E00
F0F00001E1E0
F0F00001E1E0
F0F00001E1E0
0F1E001E1E00
0F1E001E1E00
0F1E001E1E00
0F1E001E1E00
00F1E1E1E000
00F1E1E1E000
00F1E1E1E000
00F1E1E1E000
001E1E1E0000
001E1E1E0000
001E1E1E0000
001E1E1E0000
0001E1E00000
0001E1E00000
0001E1E00000
0001E1E00000
ENDCHAR
STARTCHAR 0031
ENCODING 49
SWIDTH 398 0
DWIDTH 31 0
BBX 19 58 6 0
BITMAP
F0F1E0
F0F1E0
F0F1E0
F0F1E0
0F1E00
0F1E00
0F1E00
F0F1E0
F0F1E0
F0F1E0
F0F1E0
001E00
001E00
001E00
001E00
00F1E0
00F1E0
00F1E0
00F1E0
001E00
001E00
001E00
001E00
00F1E0
00F1E0
00F1E0
00F1E0
001E00
001E00
001E00
001E00
00F1E0
00F1E0
00F1E0
00F1E0
001E00
001E00
001E00
001E00
00F1E0
00F1E0
00F1E0
001E00
001E00
001E00
001E00
00F1E0
00F1E0
00F1E0
00F1E0
001E00
001E00
001E00
001E00
00F1E0
00F1E0
00F1E0
00F1E0
ENDCHAR
STARTCHAR 0032
ENCODING 50
SWIDTH 694 0
DWIDTH 54 0
BBX 43 58 6 0
BITMAP
00F1E1E1E000
00F1E1E1E000
00F1E1E1E000
00F1E1E1E000
0F1E1E1E1E00
0F1E1E1E1E00
0F1E1E1E1E00
F0F1E1E1E1E0
F0F1E1E1E1E0
F0F1E1E1E1E0
F0F1E1E1E1E0
0F0000001E00
0F0000001E00
0F0000001E00
0F0000001E00
F0F00001E1E0
F0F00001E1E0
F0F00001E1E0
F0F00001E1E0
0000001E1E00
0000001E1E00
0000001E1E00
0000001E1E00
000001E1E000
000001E1E000
000001E1E000
000001E1E000
00001E1E0000
00001E1E0000
00001E1E0000
00001E1E0000
0001E1E00000
0001E1E00000
0001E1E00000
0001E1E00000
001E1E000000
001E1E000000
001E1E000000
001E1E000000
00F1E0000000
00F1E0000000
00F1E0000000
0F1E00000000
0F1E00000000
0F1E00000000
0F1E00000000
F0F1E1E1E1E0
F0F1E1E1E1E0
F0F1E1E1E1E0
F0F1E1E1E1E0
0F1E1E1E1E00
0F1E1E1E1E00
0F1E1E1E1E00
0F1E1E1E1E00
F0F1E1E1E1E0
F0F1E1E1E1E0
F0F1E1E1E1E0
F0F1E1E1E1E0
ENDCHAR
STARTCHAR 0033
ENCODING 51
SWIDTH 694 0
DWIDTH 54 0
BBX 43 58 6 0
BITMAP
00F1E1E1E000
00F1E1E1E000
00F1E1E1E000
00F1E1E1E000
0F1E1E1E1E00
0F1E1E1E1E00
0F1E1E1E1E00
F0F1E1E1E1E0
F0F1E1E1E1E0
F0F1E1E1E1E0
F0F1E1E1E1E0
0F0000001E00
0F0000001E00
0F0000001E00
0F0000001E00
F0F00001E1E0
F0F00001E1E0
F0F00001E1E0
F0F00001E1E0
0000001E1E00
0000001E1E00
0000001E1E00
0000001E1E00
0001E1E1E000
0001E1E1E000
0001E1E1E000
0001E1E1E000
00001E1E1E00
00001E1E1E00
00001E1E1E00
00001E1E1E00
0001E1E1E1E0
0001E1E1E1E0
0001E1E1E1E0
0001E1E1E1E0
000000001E00
000000001E00
000000001E00
000000001E00
F0F00001E1E0
F0F00001E1E0
F0F00001E1E0
0F0000001E00
0F0000001E00
0F0000001E00
0F0000001E00
F0F1E1E1E1E0
F0F1E1E1E1E0
F0F1E1E1E1E0
F0F1E1E1E1E0
0F1E1E1E1E00
0F1E1E1E1E00
0F1E1E1E1E00
0F1E1E1E1E00
00F1E1E1E000
00F1E1E1E000
00F1E1E1E000
00F1E1E1E000
ENDCHAR
STARTCHAR 0034
ENCODING 52
SWIDTH 694 0
DWIDTH 54 0
BBX 43 58 6 0
BITMAP
000001E1E000
000001E1E000
000001E1E000
000001E1E000
00001E1E0000
00001E1E0000
00001E1E0000
0001E1E1E000
0001E1E1E000
0001E1E1E000
0001E1E1E000
001E1E1E0000
001E1E1E0000
001E1E1E0000
001E1E1E0000
00F1E1E1E000
00F1E1E1E000
00F1E1E1E000
00F1E1E1E000
0F1E001E0000
0F1E001E0000
0F1E001E0000
0F1E001E0000
F0F001E1E000
F0F001E1E000
F0F001E1E000
F0F001E1E000
0F00001E0000
0F00001E0000
0F00001E0000
0F00001E0000
F0F1E1E1E1E0
F0F1E1E1E1E0
F0F1E1E1E1E0
F0F1E1E1E1E0
0F1E1E1E1E00
0F1E1E1E1E00
0F1E1E1E1E00
0F1E1E1E1E00
F0F1E1E1E1E0
F0F1E1E1E1E0
F0F1E1E1E1E0
0000001E0000
0000001E0000
0000001E0000
0000001E0000
000001E1E000
000001E1E000
000001E1E000
000001E1E000
0000001E0000
0000001E0000
0000001E0000
0000001E0000
000001E1E000
000001E1E000
000001E1E000
000001E1E000
ENDCHAR
STARTCHAR 0035
ENCODING 53
SWIDTH 694 0
DWIDTH 54 0
BBX 43 58 6 0
BITMAP
F0F1E1E1E1E0
F0F1E1E1E1E0
F0F1E1E1E1E0
F0F1E1E1E1E0
0F1E1E1E1E00
0F1E1E1E1E00
0F1E1E1E1E00
F0F1E1E1E1E0
F0F1E1E1E1E0
F0F1E1E1E1E0
F0F1E1E1E1E0
0F0000000000
0F0000000000
0F0000000000
0F0000000000
F0F000000000
F0F000000000
F0F000000000
F0F000000000
0F0000000000
0F0000000000
0F0000000000
0F0000000000
F0F1E1E1E000
F0F1E1E1E000
F0F1E1E1E000
F0F1E1E1E000
0F1E1E1E1E00
0F1E1E1E1E00
0F1E1E1E1E00
0F1E1E1E1E00
F0F1E1E1E1E0
F0F1E1E1E1E0
F0F1E1E1E1E0
F0F1E1E1E1E0
000000001E00
000000001E00
000000001E00
000000001E00
00000001E1E0
00000001E1E0
00000001E1E0
000000001E00
000000001E00
000000001E00
000000001E00
F0F1E1E1E1E0
F0F1E1E1E1E0
F0F1E1E1E1E0
F0F1E1E1E1E0
0F1E1E1E1E00
0F1E1E1E1E00
0F1E1E1E1E00
0F1E1E1E1E00
F0F1E1E1E000
F0F1E1E1E000
F0F1E1E1E000
F0F1E1E1E000
ENDCHAR
STARTCHAR 0036
ENCODING 54
SWIDTH 694 0
DWIDTH 54 0
BBX 43 58 6 0
BITMAP
0001E1E1E1E0
0001E1E1E1E0
0001E1E1E1E0
0001E1E1E1E0
001E1E1E1E00
001E1E1E1E00
001E1E1E1E00
00F1E1E1E1E0
00F1E1E1E1E0
00F1E1E1E1E0
00F1E1E1E1E0
0F1E00000000
0F1E00000000
0F1E00000000
0F1E00000000
F0F000000000
F0F000000000
F0F000000000
F0F000000000
0F0000000000
0F0000000000
0F0000000000
0F0000000000
F0F1E1E1E000
F0F1E1E1E000
F0F1E1E1E000
F0F1E1E1E000
0F1E1E1E1E00
0F1E1E1E1E00
0F1E1E1E1E00
0F1E1E1E1E00
F0F1E1E1E1E0
F0F1E1E1E1E0
F0F1E1E1E1E0
F0F1E1E1E1E0
0F0000001E00
0F0000001E00
0F0000001E00
0F0000001E00
F0F00001E1E0
F0F00001E1E0
F0F00001E1E0
0F0000001E00
0F0000001E00
0F0000001E00
0F0000001E00
F0F1E1E1E1E0
F0F1E1E1E1E0
F0F1E1E1E1E0
F0F1E1E1E1E0
0F1E1E1E1E00
0F1E1E1E1E00
0F1E1E1E1E00
0F1E1E1E1E00
00F1E1E1E000
00F1E1E1E000
00F1E1E1E000
00F1E1E1E000
ENDCHAR
STARTCHAR 0037
ENCODING 55
SWIDTH 694 0
DWIDTH 54 0
BBX 43 58 6 0
BITMAP
F0F1E1E1E1E0
F0F1E1E1E1E0
F0F1E1E1E1E0
F0F1E1E1E1E0
0F1E1E1E1E00
0F1E1E1E1E00
0F1E1E1E1E00
F0F1E1E1E1E0
F0F1E1E1E1E0
F0F1E1E1E1E0
F0F1E1E1E1E0
000000001E00
000000001E00
000000001E00
000000001E00
00000001E1E0
00000001E1E0
00000001E1E0
00000001E1E0
0000001E1E00
0000001E1E00
0000001E1E00
0000001E1E00
000001E1E000
000001E1E000
000001E1E000
000001E1E000
00001E1E0000
00001E1E0000
00001E1E0000
00001E1E0000
0001E1E00000
0001E1E00000
0001E1E00000
0001E1E00000
001E1E000000
001E1E000000
001E1E000000
001E1E000000
00F1E0000000
00F1E0000000
00F1E0000000
001E00000000
001E00000000
001E00000000
001E00000000
00F1E0000000
00F1E0000000
00F1E0000000
00F1E0000000
001E00000000
001E00000000
001E00000000
001E00000000
00F1E0000000
00F1E0000000
00F1E0000000
00F1E0000000
ENDCHAR
STARTCHAR 0038
ENCODING 56
SWIDTH 694 0
DWIDTH 54 0
BBX 43 58 6 0
BITMAP
00F1E1E1E000
00F1E1E1E000
00F1E1E1E000
00F1E1E1E000
0F1E1E1E1E00
0F1E1E1E1E00
0F1E1E1E1E00
F0F1E1E1E1E0
F0F1E1E1E1E0
F0F1E1E1E1E0
F0F1E1E1E1E0
0F0000001E00
0F0000001E00
0F0000001E00
0F0000001E00
F0F00001E1E0
F0F00001E1E0
F0F00001E1E0
F0F00001E1E0
0F1E001E1E00
0F1E001E1E00
0F1E001E1E00
0F1E001E1E00
00F1E1E1E000
00F1E1E1E000
00F1E1E1E000
00F1E1E1E000
001E1E1E0000
001E1E1E0000
001E1E1E0000
001E1E1E0000
00F1E1E1E000
00F1E1E1E000
00F1E1E1E000
00F1E1E1E000
0F1E001E1E00
0F1E001E1E00
0F1E001E1E00
0F1E001E1E00
F0F00001E1E0
F0F00001E1E0
F0F00001E1E0
0F0000001E00
0F0000001E00
0F0000001E00
0F0000001E00
F0F1E1E1E1E0
F0F1E1E1E1E0
F0F1E1E1E1E0
F0F1E1E1E1E0
0F1E1E1E1E00
0F1E1E1E1E00
0F1E1E1E1E00
0F1E1E1E1E00
00F1E1E1E000
00F1E1E1E000
00F1E1E1E000
00F1E1E1E000
ENDCHAR
STARTCHAR 0039
ENCODING 57
SWIDTH 694 0
DWIDTH 54 0
BBX 43 58 6 0
BITMAP
00F1E1E1E000
00F1E1E1E000
00F1E1E1E000
00F1E1E1E000
0F1E1E1E1E00
0F1E1E1E1E00
0F1E1E1E1E00
F0F1E1E1E1E0
F0F1E1E1E1E0
F0F1E1E1E1E0
F0F1E1E1E1E0
0F0000001E00
0F0000001E00
0F0000001E00
0F0000001E00
F0F00001E1E0
F0F00001E1E0
F0F00001E1E0
F0F00001E1E0
0F0000001E00
0F0000001E00
0F0000001E00
0F0000001E00
F0F1E1E1E1E0
F0F1E1E1E1E0
F0F1E1E1E1E0
F0F1E1E1E1E0
0F1E1E1E1E00
0F1E1E1E1E00
0F1E1E1E1E00
0F1E1E1E1E00
00F1E1E1E1E0
00F1E1E1E1E0
00F1E1E1E1E0
00F1E1E1E1E0
000000001E00
000000001E00
000000001E00
000000001E00
00000001E1E0
00000001E1E0
00000001E1E0
0000001E1E00
0000001E1E00
0000001E1E00
0000001E1E00
F0F1E1E1E000
F0F1E1E1E000
F0F1E1E1E000
F0F1E1E1E000
0F1E1E1E0000
0F1E1E1E0000
0F1E1E1E0000
0F1E1E1E0000
F0F1E1E00000
F0F1E1E00000
F0F1E1E00000
F0F1E1E00000
ENDCHAR
STARTCHAR 003A
ENCODING 58
SWIDTH 192 0
DWIDTH 15 0
BBX 12 35 2 12
BITMAP
F0F0
F0F0
F0F0
F0F0
0F00
0F00
0F00
0F00
F0F0
F0F0
F0F0
F0F0
0000
0000
0000
0000
0000
0000
0000
0000
0000
0000
0000
0000
F0F0
F0F0
F0F0
F0F0
0F00
0F00
0F00
F0F0
F0F0
F0F0
F0F0
ENDCHAR
STARTCHAR 003B
ENCODING 59
SWIDTH 192 0
DWIDTH 15 0
BBX 12 43 2 -8
BITMAP
F0F0
F0F0
F0F0
F0F0
0F00
0F00
0F00
0F00
F0F0
F0F0
F0F0
F0F0
0000
0000
0000
0000
0000
0000
0000
0000
0000
0000
0000
F0F0
F0F0
F0F0
F0F0
0F00
0F00
0F00
0F00
F0F0
F0F0
F0F0
F0F0
0F00
0F00
0F00
0F00
F000
F000
F000
F000
ENDCHAR
STARTCHAR 003C
ENCODING 60
SWIDTH 642 0
DWIDTH 50 0
BBX 39 58 2 0
BITMAP
0000001E1E
0000001E1E
0000001E1E
0000001E1E
000001E1E0
000001E1E0
000001E1E0
00001E1E00
00001E1E00
00001E1E00
00001E1E00
0001E1E000
0001E1E000
0001E1E000
0001E1E000
000F1E0000
000F1E0000
000F1E0000
000F1E0000
00F1E00000
00F1E00000
00F1E00000
00F1E00000
0F0F000000
0F0F000000
0F0F000000
0F0F000000
F0F0000000
F0F0000000
F0F0000000
F0F0000000
0F0F000000
0F0F000000
0F0F000000
0F0F000000
00F1E00000
00F1E00000
00F1E00000
00F1E00000
000F1E0000
000F1E0000
000F1E0000
0001E1E000
0001E1E000
0001E1E000
0001E1E000
00001E1E00
00001E1E00
00001E1E00
00001E1E00
000001E1E0
000001E1E0
000001E1E0
000001E1E0
0000001E1E
0000001E1E
0000001E1E
0000001E1E
ENDCHAR
STARTCHAR 003D
ENCODING 61
SWIDTH 694 0
DWIDTH 54 0
BBX 43 35 6 8
BITMAP
F0F1E1E1E1E0
F0F1E1E1E1E0
F0F1E1E1E1E0
F0F1E1E1E1E0
0F1E1E1E1E00
0F1E1E1E1E00
0F1E1E1E1E00
0F1E1E1E1E00
F0F1E1E1E1E0
F0F1E1E1E1E0
F0F1E1E1E1E0
F0F1E1E1E1E0
000000000000
000000000000
000000000000
000000000000
000000000000
000000000000
000000000000
000000000000
000000000000
000000000000
000000000000
000000000000
F0F1E1E1E1E0
F0F1E1E1E1E0
F0F1E1E1E1E0
0F1E1E1E1E00
0F1E1E1E1E00
0F1E1E1E1E00
0F1E1E1E1E00
F0F1E1E1E1E0
F0F1E1E1E1E0
F0F1E1E1E1E0
F0F1E1E1E1E0
ENDCHAR
STARTCHAR 003E
ENCODING 62
SWIDTH 642 0
DWIDTH 50 0
BBX 39 58 10 0
BITMAP
F1E0000000
F1E0000000
F1E0000000
F1E0000000
0F1E000000
0F1E000000
0F1E000000
01E1E00000
01E1E00000
01E1E00000
01E1E00000
001E1E0000
001E1E0000
001E1E0000
001E1E0000
0001E1E000
0001E1E000
0001E1E000
0001E1E000
00001E1E00
00001E1E00
00001E1E00
00001E1E00
000001E1E0
000001E1E0
000001E1E0
000001E1E0
0000001E1E
0000001E1E
0000001E1E
0000001E1E
000001E1E0
000001E1E0
000001E1E0
000001E1E0
00001E1E00
00001E1E00
00001E1E00
00001E1E00
0001E1E000
0001E1E000
0001E1E000
001E1E0000
001E1E0000
001E1E0000
001E1E0000
01E1E00000
01E1E00000
01E1E00000
01E1E00000
0F1E000000
0F1E000000
0F1E000000
0F1E000000
F1E0000000
F1E0000000
F1E0000000
F1E0000000
ENDCHAR
STARTCHAR 003F
ENCODING 63
SWIDTH 694 0
DWIDTH 54 0
BBX 43 58 6 0
BITMAP
00F1E1E1E000
00F1E1E1E000
00F1E1E1E000
00F1E1E1E000
0F1E1E1E1E00
0F1E1E1E1E00
0F1E1E1E1E00
F0F1E1E1E1E0
F0F1E1E1E1E0
F0F1E1E1E1E0
F0F1E1E1E1E0
0F0000001E00
0F0000001E00
0F0000001E00
0F0000001E00
F0F00001E1E0
F0F00001E1E0
F0F00001E1E0
F0F00001E1E0
000000001E00
000000001E00
000000001E00
000000001E00
000001E1E1E0
000001E1E1E0
000001E1E1E0
000001E1E1E0
00001E1E1E00
00001E1E1E00
00001E1E1E00
00001E1E1E00
0001E1E1E000
0001E1E1E000
0001E1E1E000
0001E1E1E000
00001E000000
00001E000000
00001E000000
00001E000000
0001E1E00000
0001E1E00000
0001E1E00000
000000000000
000000000000
000000000000
000000000000
0001E1E00000
0001E1E00000
0001E1E00000
0001E1E00000
00001E000000
00001E000000
00001E000000
00001E000000
0001E1E00000
0001E1E00000
0001E1E00000
0001E1E00000
ENDCHAR
STARTCHAR 0040
ENCODING 64
SWIDTH 1195 0
DWIDTH 93 0
BBX 82 82 6 -8
BITMAP
0001E1E1E1E3C3C3C00000
0001E1E1E1E3C3C3C00000
0001E1E1E1E3C3C3C00000
0001E1E1E1E3C3C3C00000
001E1E1E1E1E3C3C3C0000
001E1E1E1E1E3C3C3C0000
001E1E1E1E1E3C3C3C0000
001E1E1E1E1E3C3C3C0000
00F1E1E1E1E3C3C3C3C000
00F1E1E1E1E3C3C3C3C000
00F1E1E1E1E3C3C3C3C000
00F1E1E1E1E3C3C3C3C000
0F1E0000000000003C3C00
0F1E0000000000003C3C00
0F1E0000000000003C3C00
0F1E0000000000003C3C00
F0F000000000000003C3C0
F0F000000000000003C3C0
F0F000000000000003C3C0
F0F000000000000003C3C0
0F00000000000000003C00
0F00000000000000003C00
0F00000000000000003C00
F0F00001E1E3C3C003C3C0
F0F00001E1E3C3C003C3C0
F0F00001E1E3C3C003C3C0
F0F00001E1E3C3C003C3C0
0F00001E1E1E3C00003C00
0F00001E1E1E3C00003C00
0F00001E1E1E3C00003C00
0F00001E1E1E3C00003C00
F0F001E1E1E3C3C003C3C0
F0F001E1E1E3C3C003C3C0
F0F001E1E1E3C3C003C3C0
F0F001E1E1E3C3C003C3C0
0F00001E00003C00003C00
0F00001E00003C00003C00
0F00001E00003C00003C00
0F00001E00003C00003C00
F0F001E1E003C3C003C3C0
F0F001E1E003C3C003C3C0
F0F001E1E003C3C003C3C0
F0F001E1E003C3C003C3C0
0F00001E00003C00003C00
0F00001E00003C00003C00
0F00001E00003C00003C00
0F00001E00003C00003C00
F0F001E1E1E3C3C3C3C3C0
F0F001E1E1E3C3C3C3C3C0
F0F001E1E1E3C3C3C3C3C0
F0F001E1E1E3C3C3C3C3C0
0F00001E1E1E3C3C3C3C00
0F00001E1E1E3C3C3C3C00
0F00001E1E1E3C3C3C3C00
0F00001E1E1E3C3C3C3C00
F0F00001E1E3C3C3C3C000
F0F00001E1E3C3C3C3C000
F0F00001E1E3C3C3C3C000
0F00000000000000000000
0F00000000000000000000
0F00000000000000000000
0F00000000000000000000
F0F0000000000000000000
F0F0000000000000000000
F0F0000000000000000000
F0F0000000000000000000
0F1E000000000000000000
0F1E000000000000000000
0F1E000000000000000000
0F1E000000000000000000
00F1E1E1E1E3C3C3C3C3C0
00F1E1E1E1E3C3C3C3C3C0
00F1E1E1E1E3C3C3C3C3C0
00F1E1E1E1E3C3C3C3C3C0
001E1E1E1E1E3C3C3C3C00
001E1E1E1E1E3C3C3C3C00
001E1E1E1E1E3C3C3C3C00
001E1E1E1E1E3C3C3C3C00
0001E1E1E1E3C3C3C3C3C0
0001E1E1E1E3C3C3C3C3C0
0001E1E1E1E3C3C3C3C3C0
0001E1E1E1E3C3C3C3C3C0
ENDCHAR
STARTCHAR 0041
ENCODING 65
SWIDTH 694 0
DWIDTH 54 0
BBX 43 58 6 0
BITMAP
0001E1E00000
0001E1E00000
0001E1E00000
0001E1E00000
001E1E1E0000
001E1E1E0000
001E1E1E0000
00F1E1E1E000
00F1E1E1E000
00F1E1E1E000
00F1E1E1E000
0F1E001E1E00
0F1E001E1E00
0F1E001E1E00
0F1E001E1E00
F0F00001E1E0
F0F00001E1E0
F0F00001E1E0
F0F00001E1E0
0F0000001E00
0F0000001E00
0F0000001E00
0F0000001E00
F0F00001E1E0
F0F00001E1E0
F0F00001E1E0
F0F00001E1E0
0F0000001E00
0F0000001E00
0F0000001E00
0F0000001E00
F0F1E1E1E1E0
F0F1E1E1E1E0
F0F1E1E1E1E0
F0F1E1E1E1E0
0F1E1E1E1E00
0F1E1E1E1E00
0F1E1E1E1E00
0F1E1E1E1E00
F0F1E1E1E1E0
F0F1E1E1E1E0
F0F1E1E1E1E0
0F0000001E00
0F0000001E00
0F0000001E00
0F0000001E00
F0F00001E1E0
F0F00001E1E0
F0F00001E1E0
F0F00001E1E0
0F0000001E00
0F0000001E00
0F0000001E00
0F0000001E00
F0F00001E1E0
F0F00001E1E0
F0F00001E1E0
F0F00001E1E0
ENDCHAR
STARTCHAR 0042
ENCODING 66
SWIDTH 694 0
DWIDTH 54 0
BBX 43 58 6 0
BITMAP
F0F1E1E1E000
F0F1E1E1E000
F0F1E1E1E000
F0F1E1E1E000
0F1E1E1E1E00
0F1E1E1E1E00
0F1E1E1E1E00
F0F1E1E1E1E0
F0F1E1E1E1E0
F0F1E1E1E1E0
F0F1E1E1E1E0
0F0000001E00
0F0000001E00
0F0000001E00
0F0000001E00
F0F00001E1E0
F0F00001E1E0
F0F00001E1E0
F0F00001E1E0
0F00001E1E00
0F00001E1E00
0F00001E1E00
0F00001E1E00
F0F1E1E1E000
F0F1E1E1E000
F0F1E1E1E000
F0F1E1E1E000
0F1E1E1E1E00
0F1E1E1E1E00
0F1E1E1E1E00
0F1E1E1E1E00
F0F1E1E1E1E0
F0F1E1E1E1E0
F0F1E1E1E1E0
F0F1E1E1E1E0
0F0000001E00
0F0000001E00
0F0000001E00
0F0000001E00
F0F00001E1E0
F0F00001E1E0
F0F00001E1E0
0F0000001E00
0F0000001E00
0F0000001E00
0F0000001E00
F0F1E1E1E1E0
F0F1E1E1E1E0
F0F1E1E1E1E0
F0F1E1E1E1E0
0F1E1E1E1E00
0F1E1E1E1E00
0F1E1E1E1E00
0F1E1E1E1E00
F0F1E1E1E000
F0F1E1E1E000
F0F1E1E1E000
F0F1E1E1E000
ENDCHAR
STARTCHAR 0043
ENCODING 67
SWIDTH 797 0
DWIDTH 62 0
BBX 50 58 6 0
BITMAP
0001E1E1E00000
0001E1E1E00000
0001E1E1E00000
0001E1E1E00000
001E1E1E1E0000
001E1E1E1E0000
001E1E1E1E0000
00F1E1E1E1E000
00F1E1E1E1E000
00F1E1E1E1E000
00F1E1E1E1E000
0F1E00001E1E00
0F1E00001E1E00
0F1E00001E1E00
0F1E00001E1E00
F0F0000001E3C0
F0F0000001E3C0
F0F0000001E3C0
F0F0000001E3C0
0F000000001E00
0F000000001E00
0F000000001E00
0F000000001E00
F0F0000001E3C0
F0F0000001E3C0
F0F0000001E3C0
F0F0000001E3C0
0F000000000000
0F000000000000
0F000000000000
0F000000000000
F0F00000000000
F0F00000000000
F0F00000000000
F0F00000000000
0F000000000000
0F000000000000
0F000000000000
0F000000000000
F0F0000001E3C0
F0F0000001E3C0
F0F0000001E3C0
0F1E00001E1E00
0F1E00001E1E00
0F1E00001E1E00
0F1E00001E1E00
00F1E1E1E1E000
00F1E1E1E1E000
00F1E1E1E1E000
00F1E1E1E1E000
001E1E1E1E0000
001E1E1E1E0000
001E1E1E1E0000
001E1E1E1E0000
0001E1E1E00000
0001E1E1E00000
0001E1E1E00000
0001E1E1E00000
ENDCHAR
STARTCHAR 0044
ENCODING 68
SWIDTH 797 0
DWIDTH 62 0
BBX 50 58 6 0
BITMAP
F0F1E1E1E00000
F0F1E1E1E00000
F0F1E1E1E00000
F0F1E1E1E00000
0F1E1E1E1E0000
0F1E1E1E1E0000
0F1E1E1E1E0000
F0F1E1E1E1E000
F0F1E1E1E1E000
F0F1E1E1E1E000
F0F1E1E1E1E000
0F0000001E1E00
0F0000001E1E00
0F0000001E1E00
0F0000001E1E00
F0F0000001E3C0
F0F0000001E3C0
F0F0000001E3C0
F0F0000001E3C0
0F000000001E00
0F000000001E00
0F000000001E00
0F000000001E00
F0F0000001E3C0
F0F0000001E3C0
F0F0000001E3C0
F0F0000001E3C0
0F000000001E00
0F000000001E00
0F000000001E00
0F000000001E00
F0F0000001E3C0
F0F0000001E3C0
F0F0000001E3C0
F0F0000001E3C0
0F000000001E00
0F000000001E00
0F000000001E00
0F000000001E00
F0F0000001E3C0
F0F0000001E3C0
F0F0000001E3C0
0F0000001E1E00
0F0000001E1E00
0F0000001E1E00
0F0000001E1E00
F0F1E1E1E1E000
F0F1E1E1E1E000
F0F1E1E1E1E000
F0F1E1E1E1E000
0F1E1E1E1E0000
0F1E1E1E1E0000
0F1E1E1E1E0000
0F1E1E1E1E0000
F0F1E1E1E00000
F0F1E1E1E00000
F0F1E1E1E00000
F0F1E1E1E00000
ENDCHAR
STARTCHAR 0045
ENCODING 69
SWIDTH 694 0
DWIDTH 54 0
BBX 43 58 6 0
BITMAP
0001E1E1E1E0
0001E1E1E1E0
0001E1E1E1E0
0001E1E1E1E0
001E1E1E1E00
001E1E1E1E00
001E1E1E1E00
00F1E1E1E1E0
00F1E1E1E1E0
00F1E1E1E1E0
00F1E1E1E1E0
0F1E00000000
0F1E00000000
0F1E00000000
0F1E00000000
F0F000000000
F0F000000000
F0F000000000
F0F000000000
0F0000000000
0F0000000000
0F0000000000
0F0000000000
F0F1E1E1E000
F0F1E1E1E000
F0F1E1E1E000
F0F1E1E1E000
0F1E1E1E0000
0F1E1E1E0000
0F1E1E1E0000
0F1E1E1E0000
F0F1E1E1E000
F0F1E1E1E000
F0F1E1E1E000
F0F1E1E1E000
0F0000000000
0F0000000000
0F0000000000
0F0000000000
F0F000000000
F0F000000000
F0F000000000
0F1E00000000
0F1E00000000
0F1E00000000
0F1E00000000
00F1E1E1E1E0
00F1E1E1E1E0
00F1E1E1E1E0
00F1E1E1E1E0
001E1E1E1E00
001E1E1E1E00
001E1E1E1E00
001E1E1E1E00
0001E1E1E1E0
0001E1E1E1E0
0001E1E1E1E0
0001E1E1E1E0
ENDCHAR
STARTCHAR 0046
ENCODING 70
SWIDTH 694 0
DWIDTH 54 0
BBX 43 58 6 0
BITMAP
0001E1E1E1E0
0001E1E1E1E0
0001E1E1E1E0
0001E1E1E1E0
001E1E1E1E00
001E1E1E1E00
001E1E1E1E00
00F1E1E1E1E0
00F1E1E1E1E0
00F1E1E1E1E0
00F1E1E1E1E0
0F1E00000000
0F1E00000000
0F1E00000000
0F1E00000000
F0F000000000
F0F000000000
F0F000000000
F0F000000000
0F0000000000
0F0000000000
0F0000000000
0F0000000000
F0F1E1E1E000
F0F1E1E1E000
F0F1E1E1E000
F0F1E1E1E000
0F1E1E1E0000
0F1E1E1E0000
0F1E1E1E0000
0F1E1E1E0000
F0F1E1E1E000
F0F1E1E1E000
F0F1E1E1E000
F0F1E1E1E000
0F0000000000
0F0000000000
0F0000000000
0F0000000000
F0F000000000
F0F000000000
F0F000000000
0F0000000000
0F0000000000
0F0000000000
0F0000000000
F0F000000000
F0F000000000
F0F000000000
F0F000000000
0F0000000000
0F0000000000
0F0000000000
0F0000000000
F0F000000000
F0F000000000
F0F000000000
F0F000000000
ENDCHAR
STARTCHAR 0047
ENCODING 71
SWIDTH 797 0
DWIDTH 62 0
BBX 50 58 6 0
BITMAP
0001E1E1E1E3C0
0001E1E1E1E3C0
0001E1E1E1E3C0
0001E1E1E1E3C0
001E1E1E1E1E00
001E1E1E1E1E00
001E1E1E1E1E00
00F1E1E1E1E3C0
00F1E1E1E1E3C0
00F1E1E1E1E3C0
00F1E1E1E1E3C0
0F1E0000000000
0F1E0000000000
0F1E0000000000
0F1E0000000000
F0F00000000000
F0F00000000000
F0F00000000000
F0F00000000000
0F000000000000
0F000000000000
0F000000000000
0F000000000000
F0F001E1E1E3C0
F0F001E1E1E3C0
F0F001E1E1E3C0
F0F001E1E1E3C0
0F00001E1E1E00
0F00001E1E1E00
0F00001E1E1E00
0F00001E1E1E00
F0F001E1E1E3C0
F0F001E1E1E3C0
F0F001E1E1E3C0
F0F001E1E1E3C0
0F000000001E00
0F000000001E00
0F000000001E00
0F000000001E00
F0F0000001E3C0
F0F0000001E3C0
F0F0000001E3C0
0F1E0000001E00
0F1E0000001E00
0F1E0000001E00
0F1E0000001E00
00F1E1E1E1E3C0
00F1E1E1E1E3C0
00F1E1E1E1E3C0
00F1E1E1E1E3C0
001E1E1E1E1E00
001E1E1E1E1E00
001E1E1E1E1E00
001E1E1E1E1E00
0001E1E1E1E3C0
0001E1E1E1E3C0
0001E1E1E1E3C0
0001E1E1E1E3C0
ENDCHAR
STARTCHAR 0048
ENCODING 72
SWIDTH 797 0
DWIDTH 62 0
BBX 50 58 6 0
BITMAP
F0F0000001E3C0
F0F0000001E3C0
F0F0000001E3C0
F0F0000001E3C0
0F000000001E00
0F000000001E00
0F000000001E00
F0F0000001E3C0
F0F0000001E3C0
F0F0000001E3C0
F0F0000001E3C0
0F000000001E00
0F000000001E00
0F000000001E00
0F000000001E00
F0F0000001E3C0
F0F0000001E3C0
F0F0000001E3C0
F0F0000001E3C0
0F000000001E00
0F000000001E00
0F000000001E00
0F000000001E00
F0F1E1E1E1E3C0
F0F1E1E1E1E3C0
F0F1E1E1E1E3C0
F0F1E1E1E1E3C0
0F1E1E1E1E1E00
0F1E1E1E1E1E00
0F1E1E1E1E1E00
0F1E1E1E1E1E00
F0F1E1E1E1E3C0
F0F1E1E1E1E3C0
F0F1E1E1E1E3C0
F0F1E1E1E1E3C0
0F000000001E00
0F000000001E00
0F000000001E00
0F000000001E00
F0F0000001E3C0
F0F0000001E3C0
F0F0000001E3C0
0F000000001E00
0F000000001E00
0F000000001E00
0F000000001E00
F0F0000001E3C0
F0F0000001E3C0
F0F0000001E3C0
F0F0000001E3C0
0F000000001E00
0F000000001E00
0F000000001E00
0F000000001E00
F0F0000001E3C0
F0F0000001E3C0
F0F0000001E3C0
F0F0000001E3C0
ENDCHAR
STARTCHAR 0049
ENCODING 73
SWIDTH 488 0
DWIDTH 38 0
BBX 27 58 6 0
BITMAP
F0F1E1E0
F0F1E1E0
F0F1E1E0
F0F1E1E0
0F1E1E00
0F1E1E00
0F1E1E00
F0F1E1E0
F0F1E1E0
F0F1E1E0
F0F1E1E0
001E0000
001E0000
001E0000
001E0000
00F1E000
00F1E000
00F1E000
00F1E000
001E0000
001E0000
001E0000
001E0000
00F1E000
00F1E000
00F1E000
00F1E000
001E0000
001E0000
001E0000
001E0000
00F1E000
00F1E000
00F1E000
00F1E000
001E0000
001E0000
001E0000
001E0000
00F1E000
00F1E000
00F1E000
001E0000
001E0000
001E0000
001E0000
F0F1E1E0
F0F1E1E0
F0F1E1E0
F0F1E1E0
0F1E1E00
0F1E1E00
0F1E1E00
0F1E1E00
F0F1E1E0
F0F1E1E0
F0F1E1E0
F0F1E1E0
ENDCHAR
STARTCHAR 004A
ENCODING 74
SWIDTH 591 0
DWIDTH 46 0
BBX 35 58 6 0
BITMAP
F0F1E1E1E0
F0F1E1E1E0
F0F1E1E1E0
F0F1E1E1E0
0F1E1E1E00
0F1E1E1E00
0F1E1E1E00
F0F1E1E1E0
F0F1E1E1E0
F0F1E1E1E0
F0F1E1E1E0
0000001E00
0000001E00
0000001E00
0000001E00
000001E1E0
000001E1E0
000001E1E0
000001E1E0
0000001E00
0000001E00
0000001E00
0000001E00
000001E1E0
000001E1E0
000001E1E0
000001E1E0
0000001E00
0000001E00
0000001E00
0000001E00
000001E1E0
000001E1E0
000001E1E0
000001E1E0
0000001E00
0000001E00
0000001E00
0000001E00
000001E1E0
000001E1E0
000001E1E0
00001E1E00
00001E1E00
00001E1E00
00001E1E00
F0F1E1E000
F0F1E1E000
F0F1E1E000
F0F1E1E000
0F1E1E0000
0F1E1E0000
0F1E1E0000
0F1E1E0000
F0F1E00000
F0F1E00000
F0F1E00000
F0F1E00000
ENDCHAR
STARTCHAR 004B
ENCODING 75
SWIDTH 694 0
DWIDTH 54 0
BBX 43 58 6 0
BITMAP
F0F00001E1E0
F0F00001E1E0
F0F00001E1E0
F0F00001E1E0
0F0000001E00
0F0000001E00
0F0000001E00
F0F00001E1E0
F0F00001E1E0
F0F00001E1E0
F0F00001E1E0
0F00001E1E00
0F00001E1E00
0F00001E1E00
0F00001E1E00
F0F001E1E000
F0F001E1E000
F0F001E1E000
F0F001E1E000
0F001E1E0000
0F001E1E0000
0F001E1E0000
0F001E1E0000
F0F1E1E00000
F0F1E1E00000
F0F1E1E00000
F0F1E1E00000
0F1E1E000000
0F1E1E000000
0F1E1E000000
0F1E1E000000
F0F1E1E00000
F0F1E1E00000
F0F1E1E00000
F0F1E1E00000
0F001E1E0000
0F001E1E0000
0F001E1E0000
0F001E1E0000
F0F001E1E000
F0F001E1E000
F0F001E1E000
0F00001E1E00
0F00001E1E00
0F00001E1E00
0F00001E1E00
F0F00001E1E0
F0F00001E1E0
F0F00001E1E0
F0F00001E1E0
0F0000001E00
0F0000001E00
0F0000001E00
0F0000001E00
F0F00001E1E0
F0F00001E1E0
F0F00001E1E0
F0F00001E1E0
ENDCHAR
STARTCHAR 004C
ENCODING 76
SWIDTH 694 0
DWIDTH 54 0
BBX 43 58 6 0
BITMAP
F0F000000000
F0F000000000
F0F000000000
F0F000000000
0F0000000000
0F0000000000
0F0000000000
F0F000000000
F0F000000000
F0F000000000
F0F000000000
0F0000000000
0F0000000000
0F0000000000
0F0000000000
F0F000000000
F0F000000000
F0F000000000
F0F000000000
0F0000000000
0F0000000000
0F0000000000
0F0000000000
F0F000000000
F0F000000000
F0F000000000
F0F000000000
0F0000000000
0F0000000000
0F0000000000
0F0000000000
F0F000000000
F0F000000000
F0F000000000
F0F000000000
0F0000000000
0F0000000000
0F0000000000
0F0000000000
F0F000000000
F0F000000000
F0F000000000
0F0000000000
0F0000000000
0F0000000000
0F0000000000
F0F1E1E1E1E0
F0F1E1E1E1E0
F0F1E1E1E1E0
F0F1E1E1E1E0
0F1E1E1E1E00
0F1E1E1E1E00
0F1E1E1E1E00
0F1E1E1E1E00
00F1E1E1E1E0
00F1E1E1E1E0
00F1E1E1E1E0
00F1E1E1E1E0
ENDCHAR
STARTCHAR 004D
ENCODING 77
SWIDTH 990 0
DWIDTH 77 0
BBX 66 58 6 0
BITMAP
F0F00000000003C3C0
F0F00000000003C3C0
F0F00000000003C3C0
F0F00000000003C3C0
0F1E000000003C3C00
0F1E000000003C3C00
0F1E000000003C3C00
F0F1E0000003C3C3C0
F0F1E0000003C3C3C0
F0F1E0000003C3C3C0
F0F1E0000003C3C3C0
0F1E1E00001E3C3C00
0F1E1E00001E3C3C00
0F1E1E00001E3C3C00
0F1E1E00001E3C3C00
F0F1E1E001E3C3C3C0
F0F1E1E001E3C3C3C0
F0F1E1E001E3C3C3C0
F0F1E1E001E3C3C3C0
0F001E1E1E1E003C00
0F001E1E1E1E003C00
0F001E1E1E1E003C00
0F001E1E1E1E003C00
F0F001E1E1E003C3C0
F0F001E1E1E003C3C0
F0F001E1E1E003C3C0
F0F001E1E1E003C3C0
0F00001E1E00003C00
0F00001E1E00003C00
0F00001E1E00003C00
0F00001E1E00003C00
F0F00001E00003C3C0
F0F00001E00003C3C0
F0F00001E00003C3C0
F0F00001E00003C3C0
0F0000000000003C00
0F0000000000003C00
0F0000000000003C00
0F0000000000003C00
F0F00000000003C3C0
F0F00000000003C3C0
F0F00000000003C3C0
0F0000000000003C00
0F0000000000003C00
0F0000000000003C00
0F0000000000003C00
F0F00000000003C3C0
F0F00000000003C3C0
F0F00000000003C3C0
F0F00000000003C3C0
0F0000000000003C00
0F0000000000003C00
0F0000000000003C00
0F0000000000003C00
F0F00000000003C3C0
F0F00000000003C3C0
F0F00000000003C3C0
F0F00000000003C3C0
ENDCHAR
STARTCHAR 004E
ENCODING 78
SWIDTH 797 0
DWIDTH 62 0
BBX 50 58 6 0
BITMAP
F0F0000001E3C0
F0F0000001E3C0
F0F0000001E3C0
F0F0000001E3C0
0F1E0000001E00
0F1E0000001E00
0F1E0000001E00
F0F1E00001E3C0
F0F1E00001E3C0
F0F1E00001E3C0
F0F1E00001E3C0
0F1E1E00001E00
0F1E1E00001E00
0F1E1E00001E00
0F1E1E00001E00
F0F1E1E001E3C0
F0F1E1E001E3C0
F0F1E1E001E3C0
F0F1E1E001E3C0
0F001E1E001E00
0F001E1E001E00
0F001E1E001E00
0F001E1E001E00
F0F001E1E1E3C0
F0F001E1E1E3C0
F0F001E1E1E3C0
F0F001E1E1E3C0
0F00001E1E1E00
0F00001E1E1E00
0F00001E1E1E00
0F00001E1E1E00
F0F00001E1E3C0
F0F00001E1E3C0
F0F00001E1E3C0
F0F00001E1E3C0
0F0000001E1E00
0F0000001E1E00
0F0000001E1E00
0F0000001E1E00
F0F0000001E3C0
F0F0000001E3C0
F0F0000001E3C0
0F000000001E00
0F000000001E00
0F000000001E00
0F000000001E00
F0F0000001E3C0
F0F0000001E3C0
F0F0000001E3C0
F0F0000001E3C0
0F000000001E00
0F000000001E00
0F000000001E00
0F000000001E00
F0F0000001E3C0
F0F0000001E3C0
F0F0000001E3C0
F0F0000001E3C0
ENDCHAR
STARTCHAR 004F
ENCODING 79
SWIDTH 797 0
DWIDTH 62 0
BBX 50 58 6 0
BITMAP
0001E1E1E00000
0001E1E1E00000
0001E1E1E00000
0001E1E1E00000
001E1E1E1E0000
001E1E1E1E0000
001E1E1E1E0000
00F1E1E1E1E000
00F1E1E1E1E000
00F1E1E1E1E000
00F1E1E1E1E000
0F1E00001E1E00
0F1E00001E1E00
0F1E00001E1E00
0F1E00001E1E00
F0F0000001E3C0
F0F0000001E3C0
F0F0000001E3C0
F0F0000001E3C0
0F000000001E00
0F000000001E00
0F000000001E00
0F000000001E00
F0F0000001E3C0
F0F0000001E3C0
F0F0000001E3C0
F0F0000001E3C0
0F000000001E00
0F000000001E00
0F000000001E00
0F000000001E00
F0F0000001E3C0
F0F0000001E3C0
F0F0000001E3C0
F0F0000001E3C0
0F000000001E00
0F000000001E00
0F000000001E00
0F000000001E00
F0F0000001E3C0
F0F0000001E3C0
F0F0000001E3C0
0F1E00001E1E00
0F1E00001E1E00
0F1E00001E1E00
0F1E00001E1E00
00F1E1E1E1E000
00F1E1E1E1E000
00F1E1E1E1E000
00F1E1E1E1E000
001E1E1E1E0000
001E1E1E1E0000
001E1E1E1E0000
001E1E1E1E0000
0001E1E1E00000
0001E1E1E00000
0001E1E1E00000
0001E1E1E00000
ENDCHAR
STARTCHAR 0050
ENCODING 80
SWIDTH 694 0
DWIDTH 54 0
BBX 43 58 6 0
BITMAP
F0F1E1E00000
F0F1E1E00000
F0F1E1E00000
F0F1E1E00000
0F1E1E1E0000
0F1E1E1E0000
0F1E1E1E0000
F0F1E1E1E000
F0F1E1E1E000
F0F1E1E1E000
F0F1E1E1E000
0F00001E1E00
0F00001E1E00
0F00001E1E00
0F00001E1E00
F0F00001E1E0
F0F00001E1E0
F0F00001E1E0
F0F00001E1E0
0F0000001E00
0F0000001E00
0F0000001E00
0F0000001E00
F0F00001E1E0
F0F00001E1E0
F0F00001E1E0
F0F00001E1E0
0F0000001E00
0F0000001E00
0F0000001E00
0F0000001E00
F0F00001E1E0
F0F00001E1E0
F0F00001E1E0
F0F00001E1E0
0F00001E1E00
0F00001E1E00
0F00001E1E00
0F00001E1E00
F0F1E1E1E000
F0F1E1E1E000
F0F1E1E1E000
0F1E1E1E0000
0F1E1E1E0000
0F1E1E1E0000
0F1E1E1E0000
F0F1E1E00000
F0F1E1E00000
F0F1E1E00000
F0F1E1E00000
0F0000000000
0F0000000000
0F0000000000
0F0000000000
F0F000000000
F0F000000000
F0F000000000
F0F000000000
ENDCHAR
STARTCHAR 0051
ENCODING 81
SWIDTH 797 0
DWIDTH 62 0
BBX 50 66 6 -8
BITMAP
0001E1E1E00000
0001E1E1E00000
0001E1E1E00000
0001E1E1E00000
001E1E1E1E0000
001E1E1E1E0000
001E1E1E1E0000
00F1E1E1E1E000
00F1E1E1E1E000
00F1E1E1E1E000
00F1E1E1E1E000
0F1E00001E1E00
0F1E00001E1E00
0F1E00001E1E00
0F1E00001E1E00
F0F0000001E3C0
F0F0000001E3C0
F0F0000001E3C0
F0F0000001E3C0
0F000000001E00
0F000000001E00
0F000000001E00
0F000000001E00
F0F0000001E3C0
F0F0000001E3C0
F0F0000001E3C0
F0F0000001E3C0
0F000000001E00
0F000000001E00
0F000000001E00
0F000000001E00
F0F0000001E3C0
F0F0000001E3C0
F0F0000001E3C0
F0F0000001E3C0
0F000000001E00
0F000000001E00
0F000000001E00
0F000000001E00
F0F0000001E3C0
F0F0000001E3C0
F0F0000001E3C0
0F1E00001E1E00
0F1E00001E1E00
0F1E00001E1E00
0F1E00001E1E00
00F1E1E1E1E000
00F1E1E1E1E000
00F1E1E1E1E000
00F1E1E1E1E000
001E1E1E1E0000
001E1E1E1E0000
001E1E1E1E0000
001E1E1E1E0000
0001E1E1E00000
0001E1E1E00000
0001E1E1E00000
0001E1E1E00000
0000001E1E0000
0000001E1E0000
0000001E1E0000
0000001E1E0000
00000001E1E000
00000001E1E000
00000001E1E000
00000001E1E000
ENDCHAR
STARTCHAR 0052
ENCODING 82
SWIDTH 694 0
DWIDTH 54 0
BBX 43 58 6 0
BITMAP
F0F1E1E00000
F0F1E1E00000
F0F1E1E00000
F0F1E1E00000
0F1E1E1E0000
0F1E1E1E0000
0F1E1E1E0000
F0F1E1E1E000
F0F1E1E1E000
F0F1E1E1E000
F0F1E1E1E000
0F00001E1E00
0F00001E1E00
0F00001E1E00
0F00001E1E00
F0F00001E1E0
F0F00001E1E0
F0F00001E1E0
F0F00001E1E0
0F0000001E00
0F0000001E00
0F0000001E00
0F0000001E00
F0F00001E1E0
F0F00001E1E0
F0F00001E1E0
F0F00001E1E0
0F0000001E00
0F0000001E00
0F0000001E00
0F0000001E00
F0F00001E1E0
F0F00001E1E0
F0F00001E1E0
F0F00001E1E0
0F00001E1E00
0F00001E1E00
0F00001E1E00
0F00001E1E00
F0F1E1E1E000
F0F1E1E1E000
F0F1E1E1E000
0F1E1E1E0000
0F1E1E1E0000
0F1E1E1E0000
0F1E1E1E0000
F0F1E1E1E000
F0F1E1E1E000
F0F1E1E1E000
F0F1E1E1E000
0F00001E1E00
0F00001E1E00
0F00001E1E00
0F00001E1E00
F0F00001E1E0
F0F00001E1E0
F0F00001E1E0
F0F00001E1E0
ENDCHAR
STARTCHAR 0053
ENCODING 83
SWIDTH 694 0
DWIDTH 54 0
BBX 43 58 6 0
BITMAP
00F1E1E1E000
00F1E1E1E000
00F1E1E1E000
00F1E1E1E000
0F1E1E1E1E00
0F1E1E1E1E00
0F1E1E1E1E00
F0F1E1E1E1E0
F0F1E1E1E1E0
F0F1E1E1E1E0
F0F1E1E1E1E0
0F0000001E00
0F0000001E00
0F0000001E00
0F0000001E00
F0F00001E1E0
F0F00001E1E0
F0F00001E1E0
F0F00001E1E0
0F0000000000
0F0000000000
0F0000000000
0F0000000000
F0F1E1E1E000
F0F1E1E1E000
F0F1E1E1E000
F0F1E1E1E000
0F1E1E1E1E00
0F1E1E1E1E00
0F1E1E1E1E00
0F1E1E1E1E00
00F1E1E1E1E0
00F1E1E1E1E0
00F1E1E1E1E0
00F1E1E1E1E0
000000001E00
000000001E00
000000001E00
000000001E00
F0F00001E1E0
F0F00001E1E0
F0F00001E1E0
0F0000001E00
0F0000001E00
0F0000001E00
0F0000001E00
F0F1E1E1E1E0
F0F1E1E1E1E0
F0F1E1E1E1E0
F0F1E1E1E1E0
0F1E1E1E1E00
0F1E1E1E1E00
0F1E1E1E1E00
0F1E1E1E1E00
00F1E1E1E000
00F1E1E1E000
00F1E1E1E000
00F1E1E1E000
ENDCHAR
STARTCHAR 0054
ENCODING 84
SWIDTH 694 0
DWIDTH 54 0
BBX 43 58 6 0
BITMAP
F0F1E1E1E1E0
F0F1E1E1E1E0
F0F1E1E1E1E0
F0F1E1E1E1E0
0F1E1E1E1E00
0F1E1E1E1E00
0F1E1E1E1E00
F0F1E1E1E1E0
F0F1E1E1E1E0
F0F1E1E1E1E0
F0F1E1E1E1E0
00001E000000
00001E000000
00001E000000
00001E000000
0001E1E00000
0001E1E00000
0001E1E00000
0001E1E00000
00001E000000
00001E000000
00001E000000
00001E000000
0001E1E00000
0001E1E00000
0001E1E00000
0001E1E00000
00001E000000
00001E000000
00001E000000
00001E000000
0001E1E00000
0001E1E00000
0001E1E00000
0001E1E00000
00001E000000
00001E000000
00001E000000
00001E000000
0001E1E00000
0001E1E00000
0001E1E00000
00001E000000
00001E000000
00001E000000
00001E000000
0001E1E00000
0001E1E00000
0001E1E00000
0001E1E00000
00001E000000
00001E000000
00001E000000
00001E000000
0001E1E00000
0001E1E00000
0001E1E00000
0001E1E00000
ENDCHAR
STARTCHAR 0055
ENCODING 85
SWIDTH 797 0
DWIDTH 62 0
BBX 50 58 6 0
BITMAP
F0F0000001E3C0
F0F0000001E3C0
F0F0000001E3C0
F0F0000001E3C0
0F000000001E00
0F000000001E00
0F000000001E00
F0F0000001E3C0
F0F0000001E3C0
F0F0000001E3C0
F0F0000001E3C0
0F000000001E00
0F000000001E00
0F000000001E00
0F000000001E00
F0F0000001E3C0
F0F0000001E3C0
F0F0000001E3C0
F0F0000001E3C0
0F000000001E00
0F000000001E00
0F000000001E00
0F000000001E00
F0F0000001E3C0
F0F0000001E3C0
F0F0000001E3C0
F0F0000001E3C0
0F000000001E00
0F000000001E00
0F000000001E00
0F000000001E00
F0F0000001E3C0
F0F0000001E3C0
F0F0000001E3C0
F0F0000001E3C0
0F000000001E00
0F000000001E00
0F000000001E00
0F000000001E00
F0F0000001E3C0
F0F0000001E3C0
F0F0000001E3C0
0F1E00001E1E00
0F1E00001E1E00
0F1E00001E1E00
0F1E00001E1E00
00F1E1E1E1E000
00F1E1E1E1E000
00F1E1E1E1E000
00F1E1E1E1E000
001E1E1E1E0000
001E1E1E1E0000
001E1E1E1E0000
001E1E1E1E0000
0001E1E1E00000
0001E1E1E00000
0001E1E1E00000
0001E1E1E00000
ENDCHAR
STARTCHAR 0056
ENCODING 86
SWIDTH 694 0
DWIDTH 54 0
BBX 43 58 6 0
BITMAP
F0F00001E1E0
F0F00001E1E0
F0F00001E1E0
F0F00001E1E0
0F0000001E00
0F0000001E00
0F0000001E00
F0F00001E1E0
F0F00001E1E0
F0F00001E1E0
F0F00001E1E0
0F0000001E00
0F0000001E00
0F0000001E00
0F0000001E00
F0F00001E1E0
F0F00001E1E0
F0F00001E1E0
F0F00001E1E0
0F0000001E00
0F0000001E00
0F0000001E00
0F0000001E00
F0F00001E1E0
F0F00001E1E0
F0F00001E1E0
F0F00001E1E0
0F0000001E00
0F0000001E00
0F0000001E00
0F0000001E00
F0F00001E1E0
F0F00001E1E0
F0F00001E1E0
F0F00001E1E0
0F0000001E00
0F0000001E00
0F0000001E00
0F0000001E00
F0F00001E1E0
F0F00001E1E0
F0F00001E1E0
0F1E001E1E00
0F1E001E1E00
0F1E001E1E00
0F1E001E1E00
00F1E1E1E000
00F1E1E1E000
00F1E1E1E000
00F1E1E1E000
001E1E1E0000
001E1E1E0000
001E1E1E0000
001E1E1E0000
0001E1E00000
0001E1E00000
0001E1E00000
0001E1E00000
ENDCHAR
STARTCHAR 0057
ENCODING 87
SWIDTH 1092 0
DWIDTH 85 0
BBX 74 58 6 0
BITMAP
F0F00001E1E00003C3C0
F0F00001E1E00003C3C0
F0F00001E1E00003C3C0
F0F00001E1E00003C3C0
0F0000001E0000003C00
0F0000001E0000003C00
0F0000001E0000003C00
F0F00001E1E00003C3C0
F0F00001E1E00003C3C0
F0F00001E1E00003C3C0
F0F00001E1E00003C3C0
0F0000001E0000003C00
0F0000001E0000003C00
0F0000001E0000003C00
0F0000001E0000003C00
F0F00001E1E00003C3C0
F0F00001E1E00003C3C0
F0F00001E1E00003C3C0
F0F00001E1E00003C3C0
0F0000001E0000003C00
0F0000001E0000003C00
0F0000001E0000003C00
0F0000001E0000003C00
F0F00001E1E00003C3C0
F0F00001E1E00003C3C0
F0F00001E1E00003C3C0
F0F00001E1E00003C3C0
0F0000001E0000003C00
0F0000001E0000003C00
0F0000001E0000003C00
0F0000001E0000003C00
F0F00001E1E00003C3C0
F0F00001E1E00003C3C0
F0F00001E1E00003C3C0
F0F00001E1E00003C3C0
0F0000001E0000003C00
0F0000001E0000003C00
0F0000001E0000003C00
0F0000001E0000003C00
F0F00001E1E00003C3C0
F0F00001E1E00003C3C0
F0F00001E1E00003C3C0
0F1E001E1E1E003C3C00
0F1E001E1E1E003C3C00
0F1E001E1E1E003C3C00
0F1E001E1E1E003C3C00
00F1E1E1E1E3C3C3C000
00F1E1E1E1E3C3C3C000
00F1E1E1E1E3C3C3C000
00F1E1E1E1E3C3C3C000
001E1E1E001E3C3C0000
001E1E1E001E3C3C0000
001E1E1E001E3C3C0000
001E1E1E001E3C3C0000
0001E1E00003C3C00000
0001E1E00003C3C00000
0001E1E00003C3C00000
0001E1E00003C3C00000
ENDCHAR
STARTCHAR 0058
ENCODING 88
SWIDTH 797 0
DWIDTH 62 0
BBX 50 58 6 0
BITMAP
F0F0000001E3C0
F0F0000001E3C0
F0F0000001E3C0
F0F0000001E3C0
0F000000001E00
0F000000001E00
0F000000001E00
F0F0000001E3C0
F0F0000001E3C0
F0F0000001E3C0
F0F0000001E3C0
0F000000001E00
0F000000001E00
0F000000001E00
0F000000001E00
F0F0000001E3C0
F0F0000001E3C0
F0F0000001E3C0
F0F0000001E3C0
0F1E00001E1E00
0F1E00001E1E00
0F1E00001E1E00
0F1E00001E1E00
00F1E1E1E1E000
00F1E1E1E1E000
00F1E1E1E1E000
00F1E1E1E1E000
001E1E1E1E0000
001E1E1E1E0000
001E1E1E1E0000
001E1E1E1E0000
00F1E1E1E1E000
00F1E1E1E1E000
00F1E1E1E1E000
00F1E1E1E1E000
0F1E00001E1E00
0F1E00001E1E00
0F1E00001E1E00
0F1E00001E1E00
F0F0000001E3C0
F0F0000001E3C0
F0F0000001E3C0
0F000000001E00
0F000000001E00
0F000000001E00
0F000000001E00
F0F0000001E3C0
F0F0000001E3C0
F0F0000001E3C0
F0F0000001E3C0
0F000000001E00
0F000000001E00
0F000000001E00
0F000000001E00
F0F0000001E3C0
F0F0000001E3C0
F0F0000001E3C0
F0F0000001E3C0
ENDCHAR
STARTCHAR 0059
ENCODING 89
SWIDTH 694 0
DWIDTH 54 0
BBX 43 58 6 0
BITMAP
F0F00001E1E0
F0F00001E1E0
F0F00001E1E0
F0F00001E1E0
0F0000001E00
0F0000001E00
0F0000001E00
F0F00001E1E0
F0F00001E1E0
F0F00001E1E0
F0F00001E1E0
0F0000001E00
0F0000001E00
0F0000001E00
0F0000001E00
F0F00001E1E0
F0F00001E1E0
F0F00001E1E0
F0F00001E1E0
0F0000001E00
0F0000001E00
0F0000001E00
0F0000001E00
F0F00001E1E0
F0F00001E1E0
F0F00001E1E0
F0F00001E1E0
0F1E001E1E00
0F1E001E1E00
0F1E001E1E00
0F1E001E1E00
00F1E1E1E000
00F1E1E1E000
00F1E1E1E000
00F1E1E1E000
001E1E1E0000
001E1E1E0000
001E1E1E0000
001E1E1E0000
0001E1E00000
0001E1E00000
0001E1E00000
00001E000000
00001E000000
00001E000000
00001E000000
0001E1E00000
0001E1E00000
0001E1E00000
0001E1E00000
00001E000000
00001E000000
00001E000000
00001E000000
0001E1E00000
0001E1E00000
0001E1E00000
0001E1E00000
ENDCHAR
STARTCHAR 005A
ENCODING 90
SWIDTH 694 0
DWIDTH 54 0
BBX 43 58 6 0
BITMAP
F0F1E1E1E1E0
F0F1E1E1E1E0
F0F1E1E1E1E0
F0F1E1E1E1E0
0F1E1E1E1E00
0F1E1E1E1E00
0F1E1E1E1E00
F0F1E1E1E1E0
F0F1E1E1E1E0
F0F1E1E1E1E0
F0F1E1E1E1E0
0000001E1E00
0000001E1E00
0000001E1E00
0000001E1E00
000001E1E000
000001E1E000
000001E1E000
000001E1E000
00001E1E0000
00001E1E0000
00001E1E0000
00001E1E0000
0001E1E00000
0001E1E00000
0001E1E00000
0001E1E00000
001E1E000000
001E1E000000
001E1E000000
001E1E000000
00F1E0000000
00F1E0000000
00F1E0000000
00F1E0000000
0F1E00000000
0F1E00000000
0F1E00000000
0F1E00000000
F0F000000000
F0F000000000
F0F000000000
0F0000000000
0F0000000000
0F0000000000
0F0000000000
F0F1E1E1E1E0
F0F1E1E1E1E0
F0F1E1E1E1E0
F0F1E1E1E1E0
0F1E1E1E1E00
0F1E1E1E1E00
0F1E1E1E1E00
0F1E1E1E1E00
F0F1E1E1E1E0
F0F1E1E1E1E0
F0F1E1E1E1E0
F0F1E1E1E1E0
ENDCHAR
STARTCHAR 005B
ENCODING 91
SWIDTH 347 0
DWIDTH 27 0
BBX 19 90 6 -16
BITMAP
F0F1E0
F0F1E0
F0F1E0
F0F1E0
0F1E00
0F1E00
0F1E00
0F1E00
F0F1E0
F0F1E0
F0F1E0
F0F1E0
0F0000
0F0000
0F0000
0F0000
F0F000
F0F000
F0F000
F0F000
0F0000
0F0000
0F0000
F0F000
F0F000
F0F000
F0F000
0F0000
0F0000
0F0000
0F0000
F0F000
F0F000
F0F000
F0F000
0F0000
0F0000
0F0000
0F0000
F0F000
F0F000
F0F000
F0F000
0F0000
0F0000
0F0000
0F0000
F0F000
F0F000
F0F000
F0F000
0F0000
0F0000
0F0000
0F0000
F0F000
F0F000
F0F000
0F0000
0F0000
0F0000
0F0000
F0F000
F0F000
F0F000
F0F000
0F0000
0F0000
0F0000
0F0000
F0F000
F0F000
F0F000
F0F000
0F0000
0F0000
0F0000
0F0000
F0F1E0
F0F1E0
F0F1E0
F0F1E0
0F1E00
0F1E00
0F1E00
0F1E00
F0F1E0
F0F1E0
F0F1E0
F0F1E0
ENDCHAR
STARTCHAR 005C
ENCODING 92
SWIDTH 398 0
DWIDTH 31 0
BBX 27 58 2 0
BITMAP
F0F00000
F0F00000
F0F00000
F0F00000
0F000000
0F000000
0F000000
F0F00000
F0F00000
F0F00000
F0F00000
0F0F0000
0F0F0000
0F0F0000
0F0F0000
00F00000
00F00000
00F00000
00F00000
0F0F0000
0F0F0000
0F0F0000
0F0F0000
00F1E000
00F1E000
00F1E000
00F1E000
000F0000
000F0000
000F0000
000F0000
00F1E000
00F1E000
00F1E000
00F1E000
000F1E00
000F1E00
000F1E00
000F1E00
0001E000
0001E000
0001E000
000F1E00
000F1E00
000F1E00
000F1E00
0001E1E0
0001E1E0
0001E1E0
0001E1E0
00001E00
00001E00
00001E00
00001E00
0001E1E0
0001E1E0
0001E1E0
0001E1E0
ENDCHAR
STARTCHAR 005D
ENCODING 93
SWIDTH 347 0
DWIDTH 27 0
BBX 19 90 2 -16
BITMAP
F0F1E0
F0F1E0
F0F1E0
F0F1E0
0F0F00
0F0F00
0F0F00
0F0F00
F0F1E0
F0F1E0
F0F1E0
F0F1E0
000F00
000F00
000F00
000F00
00F1E0
00F1E0
00F1E0
00F1E0
000F00
000F00
000F00
00F1E0
00F1E0
00F1E0
00F1E0
000F00
000F00
000F00
000F00
00F1E0
00F1E0
00F1E0
00F1E0
000F00
000F00
000F00
000F00
00F1E0
00F1E0
00F1E0
00F1E0
000F00
000F00
000F00
000F00
00F1E0
00F1E0
00F1E0
00F1E0
000F00
000F00
000F00
000F00
00F1E0
00F1E0
00F1E0
000F00
000F00
000F00
000F00
00F1E0
00F1E0
00F1E0
00F1E0
000F00
000F00
000F00
000F00
00F1E0
00F1E0
00F1E0
00F1E0
000F00
000F00
000F00
000F00
F0F1E0
F0F1E0
F0F1E0
F0F1E0
0F0F00
0F0F00
0F0F00
0F0F00
F0F1E0
F0F1E0
F0F1E0
F0F1E0
ENDCHAR
STARTCHAR 005F
ENCODING 95
SWIDTH 797 0
DWIDTH 62 0
BBX 58 12 2 -8
BITMAP
F0F1E1E1E1E1E3C0
F0F1E1E1E1E1E3C0
F0F1E1E1E1E1E3C0
F0F1E1E1E1E1E3C0
0F0F1E1E1E1E3C00
0F0F1E1E1E1E3C00
0F0F1E1E1E1E3C00
0F0F1E1E1E1E3C00
F0F1E1E1E1E1E3C0
F0F1E1E1E1E1E3C0
F0F1E1E1E1E1E3C0
F0F1E1E1E1E1E3C0
ENDCHAR
STARTCHAR 0060
ENCODING 96
SWIDTH 347 0
DWIDTH 27 0
BBX 27 20 -6 62
BITMAP
F0F00000
F0F00000
F0F00000
F0F00000
0F0F0000
0F0F0000
0F0F0000
0F0F0000
00F0F000
00F0F000
00F0F000
00F0F000
000F0F00
000F0F00
000F0F00
000F0F00
0000F1E0
0000F1E0
0000F1E0
0000F1E0
ENDCHAR
STARTCHAR 0061
ENCODING 97
SWIDTH 694 0
DWIDTH 54 0
BBX 43 58 6 0
BITMAP
00F1E1E1E000
00F1E1E1E000
00F1E1E1E000
00F1E1E1E000
0F1E1E1E1E00
0F1E1E1E1E00
0F1E1E1E1E00
F0F1E1E1E1E0
F0F1E1E1E1E0
F0F1E1E1E1E0
F0F1E1E1E1E0
0F0000001E00
0F0000001E00
0F0000001E00
0F0000001E00
F0F00001E1E0
F0F00001E1E0
F0F00001E1E0
F0F00001E1E0
0F0000001E00
0F0000001E00
0F0000001E00
0F0000001E00
F0F00001E1E0
F0F00001E1E0
F0F00001E1E0
F0F00001E1E0
0F0000001E00
0F0000001E00
0F0000001E00
0F0000001E00
F0F1E1E1E1E0
F0F1E1E1E1E0
F0F1E1E1E1E0
F0F1E1E1E1E0
0F1E1E1E1E00
0F1E1E1E1E00
0F1E1E1E1E00
0F1E1E1E1E00
F0F1E1E1E1E0
F0F1E1E1E1E0
F0F1E1E1E1E0
0F0000001E00
0F0000001E00
0F0000001E00
0F0000001E00
F0F00001E1E0
F0F00001E1E0
F0F00001E1E0
F0F00001E1E0
0F0000001E00
0F0000001E00
0F0000001E00
0F0000001E00
F0F00001E1E0
F0F00001E1E0
F0F00001E1E0
F0F00001E1E0
ENDCHAR
STARTCHAR 0062
ENCODING 98
SWIDTH 694 0
DWIDTH 54 0
BBX 43 58 6 0
BITMAP
F0F1E1E1E000
F0F1E1E1E000
F0F1E1E1E000
F0F1E1E1E000
0F1E1E1E1E00
0F1E1E1E1E00
0F1E1E1E1E00
F0F1E1E1E1E0
F0F1E1E1E1E0
F0F1E1E1E1E0
F0F1E1E1E1E0
0F0000001E00
0F0000001E00
0F0000001E00
0F0000001E00
F0F00001E1E0
F0F00001E1E0
F0F00001E1E0
F0F00001E1E0
0F00001E1E00
0F00001E1E00
0F00001E1E00
0F00001E1E00
F0F1E1E1E000
F0F1E1E1E000
F0F1E1E1E000
F0F1E1E1E000
0F1E1E1E0000
0F1E1E1E0000
0F1E1E1E0000
0F1E1E1E0000
F0F1E1E1E000
F0F1E1E1E000
F0F1E1E1E000
F0F1E1E1E000
0F00001E1E00
0F00001E1E00
0F00001E1E00
0F00001E1E00
F0F00001E1E0
F0F00001E1E0
F0F00001E1E0
0F0000001E00
0F0000001E00
0F0000001E00
0F0000001E00
F0F1E1E1E1E0
F0F1E1E1E1E0
F0F1E1E1E1E0
F0F1E1E1E1E0
0F1E1E1E1E00
0F1E1E1E1E00
0F1E1E1E1E00
0F1E1E1E1E00
F0F1E1E1E000
F0F1E1E1E000
F0F1E1E1E000
F0F1E1E1E000
ENDCHAR
STARTCHAR 0063
ENCODING 99
SWIDTH 694 0
DWIDTH 54 0
BBX 43 58 6 0
BITMAP
00F1E1E1E000
00F1E1E1E000
00F1E1E1E000
00F1E1E1E000
0F1E1E1E1E00
0F1E1E1E1E00
0F1E1E1E1E00
F0F1E1E1E1E0
F0F1E1E1E1E0
F0F1E1E1E1E0
F0F1E1E1E1E0
0F0000001E00
0F0000001E00
0F0000001E00
0F0000001E00
F0F00001E1E0
F0F00001E1E0
F0F00001E1E0
F0F00001E1E0
0F0000001E00
0F0000001E00
0F0000001E00
0F0000001E00
F0F00001E1E0
F0F00001E1E0
F0F00001E1E0
F0F00001E1E0
0F0000000000
0F0000000000
0F0000000000
0F0000000000
F0F000000000
F0F000000000
F0F000000000
F0F000000000
0F0000000000
0F0000000000
0F0000000000
0F0000000000
F0F00001E1E0
F0F00001E1E0
F0F00001E1E0
0F0000001E00
0F0000001E00
0F0000001E00
0F0000001E00
F0F1E1E1E1E0
F0F1E1E1E1E0
F0F1E1E1E1E0
F0F1E1E1E1E0
0F1E1E1E1E00
0F1E1E1E1E00
0F1E1E1E1E00
0F1E1E1E1E00
00F1E1E1E000
00F1E1E1E000
00F1E1E1E000
00F1E1E1E000
ENDCHAR
STARTCHAR 0064
ENCODING 100
SWIDTH 694 0
DWIDTH 54 0
BBX 43 58 6 0
BITMAP
F0F1E1E1E000
F0F1E1E1E000
F0F1E1E1E000
F0F1E1E1E000
0F1E1E1E1E00
0F1E1E1E1E00
0F1E1E1E1E00
F0F1E1E1E1E0
F0F1E1E1E1E0
F0F1E1E1E1E0
F0F1E1E1E1E0
0F0000001E00
0F0000001E00
0F0000001E00
0F0000001E00
F0F00001E1E0
F0F00001E1E0
F0F00001E1E0
F0F00001E1E0
0F0000001E00
0F0000001E00
0F0000001E00
0F0000001E00
F0F00001E1E0
F0F00001E1E0
F0F00001E1E0
F0F00001E1E0
0F0000001E00
0F0000001E00
0F0000001E00
0F0000001E00
F0F00001E1E0
F0F00001E1E0
F0F00001E1E0
F0F00001E1E0
0F0000001E00
0F0000001E00
0F0000001E00
0F0000001E00
F0F00001E1E0
F0F00001E1E0
F0F00001E1E0
0F0000001E00
0F0000001E00
0F0000001E00
0F0000001E00
F0F1E1E1E1E0
F0F1E1E1E1E0
F0F1E1E1E1E0
F0F1E1E1E1E0
0F1E1E1E1E00
0F1E1E1E1E00
0F1E1E1E1E00
0F1E1E1E1E00
F0F1E1E1E000
F0F1E1E1E000
F0F1E1E1E000
F0F1E1E1E000
ENDCHAR
STARTCHAR 0065
ENCODING 101
SWIDTH 694 0
DWIDTH 54 0
BBX 43 58 6 0
BITMAP
00F1E1E1E1E0
00F1E1E1E1E0
00F1E1E1E1E0
00F1E1E1E1E0
0F1E1E1E1E00
0F1E1E1E1E00
0F1E1E1E1E00
F0F1E1E1E1E0
F0F1E1E1E1E0
F0F1E1E1E1E0
F0F1E1E1E1E0
0F0000000000
0F0000000000
0F0000000000
0F0000000000
F0F000000000
F0F000000000
F0F000000000
F0F000000000
0F0000000000
0F0000000000
0F0000000000
0F0000000000
F0F1E1E1E000
F0F1E1E1E000
F0F1E1E1E000
F0F1E1E1E000
0F1E1E1E0000
0F1E1E1E0000
0F1E1E1E0000
0F1E1E1E0000
F0F1E1E1E000
F0F1E1E1E000
F0F1E1E1E000
F0F1E1E1E000
0F0000000000
0F0000000000
0F0000000000
0F0000000000
F0F000000000
F0F000000000
F0F000000000
0F0000000000
0F0000000000
0F0000000000
0F0000000000
F0F1E1E1E1E0
F0F1E1E1E1E0
F0F1E1E1E1E0
F0F1E1E1E1E0
0F1E1E1E1E00
0F1E1E1E1E00
0F1E1E1E1E00
0F1E1E1E1E00
00F1E1E1E1E0
00F1E1E1E1E0
00F1E1E1E1E0
00F1E1E1E1E0
ENDCHAR
STARTCHAR 0066
ENCODING 102
SWIDTH 694 0
DWIDTH 54 0
BBX 43 58 6 0
BITMAP
00F1E1E1E1E0
00F1E1E1E1E0
00F1E1E1E1E0
00F1E1E1E1E0
0F1E1E1E1E00
0F1E1E1E1E00
0F1E1E1E1E00
F0F1E1E1E1E0
F0F1E1E1E1E0
F0F1E1E1E1E0
F0F1E1E1E1E0
0F0000000000
0F0000000000
0F0000000000
0F0000000000
F0F000000000
F0F000000000
F0F000000000
F0F000000000
0F0000000000
0F0000000000
0F0000000000
0F0000000000
F0F1E1E1E000
F0F1E1E1E000
F0F1E1E1E000
F0F1E1E1E000
0F1E1E1E0000
0F1E1E1E0000
0F1E1E1E0000
0F1E1E1E0000
F0F1E1E1E000
F0F1E1E1E000
F0F1E1E1E000
F0F1E1E1E000
0F0000000000
0F0000000000
0F0000000000
0F0000000000
F0F000000000
F0F000000000
F0F000000000
0F0000000000
0F0000000000
0F0000000000
0F0000000000
F0F000000000
F0F000000000
F0F000000000
F0F000000000
0F0000000000
0F0000000000
0F0000000000
0F0000000000
F0F000000000
F0F000000000
F0F000000000
F0F000000000
ENDCHAR
STARTCHAR 0067
ENCODING 103
SWIDTH 694 0
DWIDTH 54 0
BBX 43 58 6 0
BITMAP
00F1E1E1E1E0
00F1E1E1E1E0
00F1E1E1E1E0
00F1E1E1E1E0
0F1E1E1E1E00
0F1E1E1E1E00
0F1E1E1E1E00
F0F1E1E1E1E0
F0F1E1E1E1E0
F0F1E1E1E1E0
F0F1E1E1E1E0
0F0000000000
0F0000000000
0F0000000000
0F0000000000
F0F000000000
F0F000000000
F0F000000000
F0F000000000
0F0000000000
0F0000000000
0F0000000000
0F0000000000
F0F001E1E1E0
F0F001E1E1E0
F0F001E1E1E0
F0F001E1E1E0
0F00001E1E00
0F00001E1E00
0F00001E1E00
0F00001E1E00
F0F001E1E1E0
F0F001E1E1E0
F0F001E1E1E0
F0F001E1E1E0
0F0000001E00
0F0000001E00
0F0000001E00
0F0000001E00
F0F00001E1E0
F0F00001E1E0
F0F00001E1E0
0F0000001E00
0F0000001E00
0F0000001E00
0F0000001E00
F0F1E1E1E1E0
F0F1E1E1E1E0
F0F1E1E1E1E0
F0F1E1E1E1E0
0F1E1E1E1E00
0F1E1E1E1E00
0F1E1E1E1E00
0F1E1E1E1E00
00F1E1E1E000
00F1E1E1E000
00F1E1E1E000
00F1E1E1E000
ENDCHAR
STARTCHAR 0068
ENCODING 104
SWIDTH 694 0
DWIDTH 54 0
BBX 43 58 6 0
BITMAP
F0F00001E1E0
F0F00001E1E0
F0F00001E1E0
F0F00001E1E0
0F0000001E00
0F0000001E00
0F0000001E00
F0F00001E1E0
F0F00001E1E0
F0F00001E1E0
F0F00001E1E0
0F0000001E00
0F0000001E00
0F0000001E00
0F0000001E00
F0F00001E1E0
F0F00001E1E0
F0F00001E1E0
F0F00001E1E0
0F0000001E00
0F0000001E00
0F0000001E00
0F0000001E00
F0F1E1E1E1E0
F0F1E1E1E1E0
F0F1E1E1E1E0
F0F1E1E1E1E0
0F1E1E1E1E00
0F1E1E1E1E00
0F1E1E1E1E00
0F1E1E1E1E00
F0F1E1E1E1E0
F0F1E1E1E1E0
F0F1E1E1E1E0
F0F1E1E1E1E0
0F0000001E00
0F0000001E00
0F0000001E00
0F0000001E00
F0F00001E1E0
F0F00001E1E0
F0F00001E1E0
0F0000001E00
0F0000001E00
0F0000001E00
0F0000001E00
F0F00001E1E0
F0F00001E1E0
F0F00001E1E0
F0F00001E1E0
0F0000001E00
0F0000001E00
0F0000001E00
0F0000001E00
F0F00001E1E0
F0F00001E1E0
F0F00001E1E0
F0F00001E1E0
ENDCHAR
STARTCHAR 0069
ENCODING 105
SWIDTH 295 0
DWIDTH 23 0
BBX 12 58 6 0
BITMAP
F0F0
F0F0
F0F0
F0F0
0F00
0F00
0F00
F0F0
F0F0
F0F0
F0F0
0F00
0F00
0F00
0F00
F0F0
F0F0
F0F0
F0F0
0F00
0F00
0F00
0F00
F0F0
F0F0
F0F0
F0F0
0F00
0F00
0F00
0F00
F0F0
F0F0
F0F0
F0F0
0F00
0F00
0F00
0F00
F0F0
F0F0
F0F0
0F00
0F00
0F00
0F00
F0F0
F0F0
F0F0
F0F0
0F00
0F00
0F00
0F00
F0F0
F0F0
F0F0
F0F0
ENDCHAR
STARTCHAR 006A
ENCODING 106
SWIDTH 488 0
DWIDTH 38 0
BBX 27 58 6 0
BITMAP
0001E1E0
0001E1E0
0001E1E0
0001E1E0
00001E00
00001E00
00001E00
0001E1E0
0001E1E0
0001E1E0
0001E1E0
00001E00
00001E00
00001E00
00001E00
0001E1E0
0001E1E0
0001E1E0
0001E1E0
00001E00
00001E00
00001E00
00001E00
0001E1E0
0001E1E0
0001E1E0
0001E1E0
00001E00
00001E00
00001E00
00001E00
0001E1E0
0001E1E0
0001E1E0
0001E1E0
00001E00
00001E00
00001E00
00001E00
0001E1E0
0001E1E0
0001E1E0
00001E00
00001E00
00001E00
00001E00
F0F1E1E0
F0F1E1E0
F0F1E1E0
F0F1E1E0
0F1E1E00
0F1E1E00
0F1E1E00
0F1E1E00
F0F1E000
F0F1E000
F0F1E000
F0F1E000
ENDCHAR
STARTCHAR 006B
ENCODING 107
SWIDTH 694 0
DWIDTH 54 0
BBX 43 58 6 0
BITMAP
F0F00001E1E0
F0F00001E1E0
F0F00001E1E0
F0F00001E1E0
0F0000001E00
0F0000001E00
0F0000001E00
F0F00001E1E0
F0F00001E1E0
F0F00001E1E0
F0F00001E1E0
0F0000001E00
0F0000001E00
0F0000001E00
0F0000001E00
F0F00001E1E0
F0F00001E1E0
F0F00001E1E0
F0F00001E1E0
0F00001E1E00
0F00001E1E00
0F00001E1E00
0F00001E1E00
F0F1E1E1E000
F0F1E1E1E000
F0F1E1E1E000
F0F1E1E1E000
0F1E1E1E0000
0F1E1E1E0000
0F1E1E1E0000
0F1E1E1E0000
F0F1E1E1E000
F0F1E1E1E000
F0F1E1E1E000
F0F1E1E1E000
0F00001E1E00
0F00001E1E00
0F00001E1E00
0F00001E1E00
F0F00001E1E0
F0F00001E1E0
F0F00001E1E0
0F0000001E00
0F0000001E00
0F0000001E00
0F0000001E00
F0F00001E1E0
F0F00001E1E0
F0F00001E1E0
F0F00001E1E0
0F0000001E00
0F0000001E00
0F0000001E00
0F0000001E00
F0F00001E1E0
F0F00001E1E0
F0F00001E1E0
F0F00001E1E0
ENDCHAR
STARTCHAR 006C
ENCODING 108
SWIDTH 591 0
DWIDTH 46 0
BBX 35 58 6 0
BITMAP
F0F0000000
F0F0000000
F0F0000000
F0F0000000
0F00000000
0F00000000
0F00000000
F0F0000000
F0F0000000
F0F0000000
F0F0000000
0F00000000
0F00000000
0F00000000
0F00000000
F0F0000000
F0F0000000
F0F0000000
F0F0000000
0F00000000
0F00000000
0F00000000
0F00000000
F0F0000000
F0F0000000
F0F0000000
F0F0000000
0F00000000
0F00000000
0F00000000
0F00000000
F0F0000000
F0F0000000
F0F0000000
F0F0000000
0F00000000
0F00000000
0F00000000
0F00000000
F0F0000000
F0F0000000
F0F0000000
0F00000000
0F00000000
0F00000000
0F00000000
F0F1E1E1E0
F0F1E1E1E0
F0F1E1E1E0
F0F1E1E1E0
0F1E1E1E00
0F1E1E1E00
0F1E1E1E00
0F1E1E1E00
00F1E1E1E0
00F1E1E1E0
00F1E1E1E0
00F1E1E1E0
ENDCHAR
STARTCHAR 006D
ENCODING 109
SWIDTH 900 0
DWIDTH 70 0
BBX 58 58 6 0
BITMAP
F0F000000003C3C0
F0F000000003C3C0
F0F000000003C3C0
F0F000000003C3C0
0F1E0000001E3C00
0F1E0000001E3C00
0F1E0000001E3C00
F0F1E00001E3C3C0
F0F1E00001E3C3C0
F0F1E00001E3C3C0
F0F1E00001E3C3C0
0F1E1E001E1E3C00
0F1E1E001E1E3C00
0F1E1E001E1E3C00
0F1E1E001E1E3C00
F0F1E1E1E1E3C3C0
F0F1E1E1E1E3C3C0
F0F1E1E1E1E3C3C0
F0F1E1E1E1E3C3C0
0F001E1E1E003C00
0F001E1E1E003C00
0F001E1E1E003C00
0F001E1E1E003C00
F0F001E1E003C3C0
F0F001E1E003C3C0
F0F001E1E003C3C0
F0F001E1E003C3C0
0F00001E00003C00
0F00001E00003C00
0F00001E00003C00
0F00001E00003C00
F0F000000003C3C0
F0F000000003C3C0
F0F000000003C3C0
F0F000000003C3C0
0F00000000003C00
0F00000000003C00
0F00000000003C00
0F00000000003C00
F0F000000003C3C0
F0F000000003C3C0
F0F000000003C3C0
0F00000000003C00
0F00000000003C00
0F00000000003C00
0F00000000003C00
F0F000000003C3C0
F0F000000003C3C0
F0F000000003C3C0
F0F000000003C3C0
0F00000000003C00
0F00000000003C00
0F00000000003C00
0F00000000003C00
F0F000000003C3C0
F0F000000003C3C0
F0F000000003C3C0
F0F000000003C3C0
ENDCHAR
STARTCHAR 006E
ENCODING 110
SWIDTH 694 0
DWIDTH 54 0
BBX 43 58 6 0
BITMAP
F0F00001E1E0
F0F00001E1E0
F0F00001E1E0
F0F00001E1E0
0F1E00001E00
0F1E00001E00
0F1E00001E00
F0F1E001E1E0
F0F1E001E1E0
F0F1E001E1E0
F0F1E001E1E0
0F1E1E001E00
0F1E1E001E00
0F1E1E001E00
0F1E1E001E00
F0F1E1E1E1E0
F0F1E1E1E1E0
F0F1E1E1E1E0
F0F1E1E1E1E0
0F001E1E1E00
0F001E1E1E00
0F001E1E1E00
0F001E1E1E00
F0F001E1E1E0
F0F001E1E1E0
F0F001E1E1E0
F0F001E1E1E0
0F00001E1E00
0F00001E1E00
0F00001E1E00
0F00001E1E00
F0F00001E1E0
F0F00001E1E0
F0F00001E1E0
F0F00001E1E0
0F0000001E00
0F0000001E00
0F0000001E00
0F0000001E00
F0F00001E1E0
F0F00001E1E0
F0F00001E1E0
0F0000001E00
0F0000001E00
0F0000001E00
0F0000001E00
F0F00001E1E0
F0F00001E1E0
F0F00001E1E0
F0F00001E1E0
0F0000001E00
0F0000001E00
0F0000001E00
0F0000001E00
F0F00001E1E0
F0F00001E1E0
F0F00001E1E0
F0F00001E1E0
ENDCHAR
STARTCHAR 006F
ENCODING 111
SWIDTH 694 0
DWIDTH 54 0
BBX 43 58 6 0
BITMAP
00F1E1E1E000
00F1E1E1E000
00F1E1E1E000
00F1E1E1E000
0F1E1E1E1E00
0F1E1E1E1E00
0F1E1E1E1E00
F0F1E1E1E1E0
F0F1E1E1E1E0
F0F1E1E1E1E0
F0F1E1E1E1E0
0F0000001E00
0F0000001E00
0F0000001E00
0F0000001E00
F0F00001E1E0
F0F00001E1E0
F0F00001E1E0
F0F00001E1E0
0F0000001E00
0F0000001E00
0F0000001E00
0F0000001E00
F0F00001E1E0
F0F00001E1E0
F0F00001E1E0
F0F00001E1E0
0F0000001E00
0F0000001E00
0F0000001E00
0F0000001E00
F0F00001E1E0
F0F00001E1E0
F0F00001E1E0
F0F00001E1E0
0F0000001E00
0F0000001E00
0F0000001E00
0F0000001E00
F0F00001E1E0
F0F00001E1E0
F0F00001E1E0
0F0000001E00
0F0000001E00
0F0000001E00
0F0000001E00
F0F1E1E1E1E0
F0F1E1E1E1E0
F0F1E1E1E1E0
F0F1E1E1E1E0
0F1E1E1E1E00
0F1E1E1E1E00
0F1E1E1E1E00
0F1E1E1E1E00
00F1E1E1E000
00F1E1E1E000
00F1E1E1E000
00F1E1E1E000
ENDCHAR
STARTCHAR 0070
ENCODING 112
SWIDTH 694 0
DWIDTH 54 0
BBX 43 58 6 0
BITMAP
F0F1E1E1E000
F0F1E1E1E000
F0F1E1E1E000
F0F1E1E1E000
0F1E1E1E1E00
0F1E1E1E1E00
0F1E1E1E1E00
F0F1E1E1E1E0
F0F1E1E1E1E0
F0F1E1E1E1E0
F0F1E1E1E1E0
0F0000001E00
0F0000001E00
0F0000001E00
0F0000001E00
F0F00001E1E0
F0F00001E1E0
F0F00001E1E0
F0F00001E1E0
0F0000001E00
0F0000001E00
0F0000001E00
0F0000001E00
F0F00001E1E0
F0F00001E1E0
F0F00001E1E0
F0F00001E1E0
0F0000001E00
0F0000001E00
0F0000001E00
0F0000001E00
F0F1E1E1E1E0
F0F1E1E1E1E0
F0F1E1E1E1E0
F0F1E1E1E1E0
0F1E1E1E1E00
0F1E1E1E1E00
0F1E1E1E1E00
0F1E1E1E1E00
F0F1E1E1E000
F0F1E1E1E000
F0F1E1E1E000
0F0000000000
0F0000000000
0F0000000000
0F0000000000
F0F000000000
F0F000000000
F0F000000000
F0F000000000
0F0000000000
0F0000000000
0F0000000000
0F0000000000
F0F000000000
F0F000000000
F0F000000000
F0F000000000
ENDCHAR
STARTCHAR 0071
ENCODING 113
SWIDTH 694 0
DWIDTH 54 0
BBX 43 66 6 -8
BITMAP
00F1E1E1E000
00F1E1E1E000
00F1E1E1E000
00F1E1E1E000
0F1E1E1E1E00
0F1E1E1E1E00
0F1E1E1E1E00
F0F1E1E1E1E0
F0F1E1E1E1E0
F0F1E1E1E1E0
F0F1E1E1E1E0
0F0000001E00
0F0000001E00
0F0000001E00
0F0000001E00
F0F00001E1E0
F0F00001E1E0
F0F00001E1E0
F0F00001E1E0
0F0000001E00
0F0000001E00
0F0000001E00
0F0000001E00
F0F00001E1E0
F0F00001E1E0
F0F00001E1E0
F0F00001E1E0
0F0000001E00
0F0000001E00
0F0000001E00
0F0000001E00
F0F00001E1E0
F0F00001E1E0
F0F00001E1E0
F0F00001E1E0
0F0000001E00
0F0000001E00
0F0000001E00
0F0000001E00
F0F00001E1E0
F0F00001E1E0
F0F00001E1E0
0F0000001E00
0F0000001E00
0F0000001E00
0F0000001E00
F0F1E1E1E1E0
F0F1E1E1E1E0
F0F1E1E1E1E0
F0F1E1E1E1E0
0F1E1E1E1E00
0F1E1E1E1E00
0F1E1E1E1E00
0F1E1E1E1E00
00F1E1E1E000
00F1E1E1E000
00F1E1E1E000
00F1E1E1E000
0000001E1E00
0000001E1E00
0000001E1E00
0000001E1E00
00000001E1E0
00000001E1E0
00000001E1E0
00000001E1E0
ENDCHAR
STARTCHAR 0072
ENCODING 114
SWIDTH 694 0
DWIDTH 54 0
BBX 43 58 6 0
BITMAP
F0F1E1E1E000
F0F1E1E1E000
F0F1E1E1E000
F0F1E1E1E000
0F1E1E1E1E00
0F1E1E1E1E00
0F1E1E1E1E00
F0F1E1E1E1E0
F0F1E1E1E1E0
F0F1E1E1E1E0
F0F1E1E1E1E0
0F0000001E00
0F0000001E00
0F0000001E00
0F0000001E00
F0F00001E1E0
F0F00001E1E0
F0F00001E1E0
F0F00001E1E0
0F0000001E00
0F0000001E00
0F0000001E00
0F0000001E00
F0F00001E1E0
F0F00001E1E0
F0F00001E1E0
F0F00001E1E0
0F0000001E00
0F0000001E00
0F0000001E00
0F0000001E00
F0F1E1E1E1E0
F0F1E1E1E1E0
F0F1E1E1E1E0
F0F1E1E1E1E0
0F1E1E1E1E00
0F1E1E1E1E00
0F1E1E1E1E00
0F1E1E1E1E00
F0F1E1E1E000
F0F1E1E1E000
F0F1E1E1E000
0F00001E1E00
0F00001E1E00
0F00001E1E00
0F00001E1E00
F0F00001E1E0
F0F00001E1E0
F0F00001E1E0
F0F00001E1E0
0F0000001E00
0F0000001E00
0F0000001E00
0F0000001E00
F0F00001E1E0
F0F00001E1E0
F0F00001E1E0
F0F00001E1E0
ENDCHAR
STARTCHAR 0073
ENCODING 115
SWIDTH 694 0
DWIDTH 54 0
BBX 43 58 6 0
BITMAP
00F1E1E1E000
00F1E1E1E000
00F1E1E1E000
00F1E1E1E000
0F1E1E1E1E00
0F1E1E1E1E00
0F1E1E1E1E00
F0F1E1E1E1E0
F0F1E1E1E1E0
F0F1E1E1E1E0
F0F1E1E1E1E0
0F0000001E00
0F0000001E00
0F0000001E00
0F0000001E00
F0F00001E1E0
F0F00001E1E0
F0F00001E1E0
F0F00001E1E0
0F0000000000
0F0000000000
0F0000000000
0F0000000000
F0F1E1E1E000
F0F1E1E1E000
F0F1E1E1E000
F0F1E1E1E000
0F1E1E1E1E00
0F1E1E1E1E00
0F1E1E1E1E00
0F1E1E1E1E00
00F1E1E1E1E0
00F1E1E1E1E0
00F1E1E1E1E0
00F1E1E1E1E0
000000001E00
000000001E00
000000001E00
000000001E00
F0F00001E1E0
F0F00001E1E0
F0F00001E1E0
0F0000001E00
0F0000001E00
0F0000001E00
0F0000001E00
F0F1E1E1E1E0
F0F1E1E1E1E0
F0F1E1E1E1E0
F0F1E1E1E1E0
0F1E1E1E1E00
0F1E1E1E1E00
0F1E1E1E1E00
0F1E1E1E1E00
00F1E1E1E000
00F1E1E1E000
00F1E1E1E000
00F1E1E1E000
ENDCHAR
STARTCHAR 0074
ENCODING 116
SWIDTH 694 0
DWIDTH 54 0
BBX 43 58 6 0
BITMAP
F0F1E1E1E1E0
F0F1E1E1E1E0
F0F1E1E1E1E0
F0F1E1E1E1E0
0F1E1E1E1E00
0F1E1E1E1E00
0F1E1E1E1E00
F0F1E1E1E1E0
F0F1E1E1E1E0
F0F1E1E1E1E0
F0F1E1E1E1E0
00001E000000
00001E000000
00001E000000
00001E000000
0001E1E00000
0001E1E00000
0001E1E00000
0001E1E00000
00001E000000
00001E000000
00001E000000
00001E000000
0001E1E00000
0001E1E00000
0001E1E00000
0001E1E00000
00001E000000
00001E000000
00001E000000
00001E000000
0001E1E00000
0001E1E00000
0001E1E00000
0001E1E00000
00001E000000
00001E000000
00001E000000
00001E000000
0001E1E00000
0001E1E00000
0001E1E00000
00001E000000
00001E000000
00001E000000
00001E000000
0001E1E00000
0001E1E00000
0001E1E00000
0001E1E00000
00001E000000
00001E000000
00001E000000
00001E000000
0001E1E00000
0001E1E00000
0001E1E00000
0001E1E00000
ENDCHAR
STARTCHAR 0075
ENCODING 117
SWIDTH 694 0
DWIDTH 54 0
BBX 43 58 6 0
BITMAP
F0F00001E1E0
F0F00001E1E0
F0F00001E1E0
F0F00001E1E0
0F0000001E00
0F0000001E00
0F0000001E00
F0F00001E1E0
F0F00001E1E0
F0F00001E1E0
F0F00001E1E0
0F0000001E00
0F0000001E00
0F0000001E00
0F0000001E00
F0F00001E1E0
F0F00001E1E0
F0F00001E1E0
F0F00001E1E0
0F0000001E00
0F0000001E00
0F0000001E00
0F0000001E00
F0F00001E1E0
F0F00001E1E0
F0F00001E1E0
F0F00001E1E0
0F0000001E00
0F0000001E00
0F0000001E00
0F0000001E00
F0F00001E1E0
F0F00001E1E0
F0F00001E1E0
F0F00001E1E0
0F0000001E00
0F0000001E00
0F0000001E00
0F0000001E00
F0F00001E1E0
F0F00001E1E0
F0F00001E1E0
0F0000001E00
0F0000001E00
0F0000001E00
0F0000001E00
F0F1E1E1E1E0
F0F1E1E1E1E0
F0F1E1E1E1E0
F0F1E1E1E1E0
0F1E1E1E1E00
0F1E1E1E1E00
0F1E1E1E1E00
0F1E1E1E1E00
00F1E1E1E000
00F1E1E1E000
00F1E1E1E000
00F1E1E1E000
ENDCHAR
STARTCHAR 0076
ENCODING 118
SWIDTH 694 0
DWIDTH 54 0
BBX 43 58 6 0
BITMAP
F0F00001E1E0
F0F00001E1E0
F0F00001E1E0
F0F00001E1E0
0F0000001E00
0F0000001E00
0F0000001E00
F0F00001E1E0
F0F00001E1E0
F0F00001E1E0
F0F00001E1E0
0F0000001E00
0F0000001E00
0F0000001E00
0F0000001E00
F0F00001E1E0
F0F00001E1E0
F0F00001E1E0
F0F00001E1E0
0F0000001E00
0F0000001E00
0F0000001E00
0F0000001E00
F0F00001E1E0
F0F00001E1E0
F0F00001E1E0
F0F00001E1E0
0F0000001E00
0F0000001E00
0F0000001E00
0F0000001E00
F0F00001E1E0
F0F00001E1E0
F0F00001E1E0
F0F00001E1E0
0F0000001E00
0F0000001E00
0F0000001E00
0F0000001E00
F0F00001E1E0
F0F00001E1E0
F0F00001E1E0
0F1E001E1E00
0F1E001E1E00
0F1E001E1E00
0F1E001E1E00
00F1E1E1E000
00F1E1E1E000
00F1E1E1E000
00F1E1E1E000
001E1E1E0000
001E1E1E0000
001E1E1E0000
001E1E1E0000
0001E1E00000
0001E1E00000
0001E1E00000
0001E1E00000
ENDCHAR
STARTCHAR 0077
ENCODING 119
SWIDTH 1092 0
DWIDTH 85 0
BBX 74 58 6 0
BITMAP
F0F00001E1E00003C3C0
F0F00001E1E00003C3C0
F0F00001E1E00003C3C0
F0F00001E1E00003C3C0
0F0000001E0000003C00
0F0000001E0000003C00
0F0000001E0000003C00
F0F00001E1E00003C3C0
F0F00001E1E00003C3C0
F0F00001E1E00003C3C0
F0F00001E1E00003C3C0
0F0000001E0000003C00
0F0000001E0000003C00
0F0000001E0000003C00
0F0000001E0000003C00
F0F00001E1E00003C3C0
F0F00001E1E00003C3C0
F0F00001E1E00003C3C0
F0F00001E1E00003C3C0
0F0000001E0000003C00
0F0000001E0000003C00
0F0000001E0000003C00
0F0000001E0000003C00
F0F00001E1E00003C3C0
F0F00001E1E00003C3C0
F0F00001E1E00003C3C0
F0F00001E1E00003C3C0
0F0000001E0000003C00
0F0000001E0000003C00
0F0000001E0000003C00
0F0000001E0000003C00
F0F00001E1E00003C3C0
F0F00001E1E00003C3C0
F0F00001E1E00003C3C0
F0F00001E1E00003C3C0
0F0000001E0000003C00
0F0000001E0000003C00
0F0000001E0000003C00
0F0000001E0000003C00
F0F00001E1E00003C3C0
F0F00001E1E00003C3C0
F0F00001E1E00003C3C0
0F00001E1E1E00003C00
0F00001E1E1E00003C00
0F00001E1E1E00003C00
0F00001E1E1E00003C00
F0F1E1E1E1E3C3C3C3C0
F0F1E1E1E1E3C3C3C3C0
F0F1E1E1E1E3C3C3C3C0
F0F1E1E1E1E3C3C3C3C0
0F1E1E1E001E3C3C3C00
0F1E1E1E001E3C3C3C00
0F1E1E1E001E3C3C3C00
0F1E1E1E001E3C3C3C00
00F1E1E00003C3C3C000
00F1E1E00003C3C3C000
00F1E1E00003C3C3C000
00F1E1E00003C3C3C000
ENDCHAR
STARTCHAR 0078
ENCODING 120
SWIDTH 694 0
DWIDTH 54 0
BBX 43 58 6 0
BITMAP
F0F00001E1E0
F0F00001E1E0
F0F00001E1E0
F0F00001E1E0
0F0000001E00
0F0000001E00
0F0000001E00
F0F00001E1E0
F0F00001E1E0
F0F00001E1E0
F0F00001E1E0
0F0000001E00
0F0000001E00
0F0000001E00
0F0000001E00
F0F00001E1E0
F0F00001E1E0
F0F00001E1E0
F0F00001E1E0
0F1E001E1E00
0F1E001E1E00
0F1E001E1E00
0F1E001E1E00
00F1E1E1E000
00F1E1E1E000
00F1E1E1E000
00F1E1E1E000
001E1E1E0000
001E1E1E0000
001E1E1E0000
001E1E1E0000
00F1E1E1E000
00F1E1E1E000
00F1E1E1E000
00F1E1E1E000
0F1E001E1E00
0F1E001E1E00
0F1E001E1E00
0F1E001E1E00
F0F00001E1E0
F0F00001E1E0
F0F00001E1E0
0F0000001E00
0F0000001E00
0F0000001E00
0F0000001E00
F0F00001E1E0
F0F00001E1E0
F0F00001E1E0
F0F00001E1E0
0F0000001E00
0F0000001E00
0F0000001E00
0F0000001E00
F0F00001E1E0
F0F00001E1E0
F0F00001E1E0
F0F00001E1E0
ENDCHAR
STARTCHAR 0079
ENCODING 121
SWIDTH 694 0
DWIDTH 54 0
BBX 43 58 6 0
BITMAP
F0F00001E1E0
F0F00001E1E0
F0F00001E1E0
F0F00001E1E0
0F0000001E00
0F0000001E00
0F0000001E00
F0F00001E1E0
F0F00001E1E0
F0F00001E1E0
F0F00001E1E0
0F0000001E00
0F0000001E00
0F0000001E00
0F0000001E00
F0F00001E1E0
F0F00001E1E0
F0F00001E1E0
F0F00001E1E0
0F0000001E00
0F0000001E00
0F0000001E00
0F0000001E00
F0F00001E1E0
F0F00001E1E0
F0F00001E1E0
F0F00001E1E0
0F0000001E00
0F0000001E00
0F0000001E00
0F0000001E00
F0F1E1E1E1E0
F0F1E1E1E1E0
F0F1E1E1E1E0
F0F1E1E1E1E0
0F1E1E1E1E00
0F1E1E1E1E00
0F1E1E1E1E00
0F1E1E1E1E00
00F1E1E1E000
00F1E1E1E000
00F1E1E1E000
00001E000000
00001E000000
00001E000000
00001E000000
0001E1E00000
0001E1E00000
0001E1E00000
0001E1E00000
00001E000000
00001E000000
00001E000000
00001E000000
0001E1E00000
0001E1E00000
0001E1E00000
0001E1E00000
ENDCHAR
STARTCHAR 007A
ENCODING 122
SWIDTH 694 0
DWIDTH 54 0
BBX 43 58 6 0
BITMAP
F0F1E1E1E1E0
F0F1E1E1E1E0
F0F1E1E1E1E0
F0F1E1E1E1E0
0F1E1E1E1E00
0F1E1E1E1E00
0F1E1E1E1E00
F0F1E1E1E1E0
F0F1E1E1E1E0
F0F1E1E1E1E0
F0F1E1E1E1E0
000000001E00
000000001E00
000000001E00
000000001E00
00000001E1E0
00000001E1E0
00000001E1E0
00000001E1E0
000000001E00
000000001E00
000000001E00
000000001E00
00F1E1E1E1E0
00F1E1E1E1E0
00F1E1E1E1E0
00F1E1E1E1E0
0F1E1E1E1E00
0F1E1E1E1E00
0F1E1E1E1E00
0F1E1E1E1E00
F0F1E1E1E000
F0F1E1E1E000
F0F1E1E1E000
F0F1E1E1E000
0F0000000000
0F0000000000
0F0000000000
0F0000000000
F0F000000000
F0F000000000
F0F000000000
0F0000000000
0F0000000000
0F0000000000
0F0000000000
F0F1E1E1E1E0
F0F1E1E1E1E0
F0F1E1E1E1E0
F0F1E1E1E1E0
0F1E1E1E1E00
0F1E1E1E1E00
0F1E1E1E1E00
0F1E1E1E1E00
F0F1E1E1E1E0
F0F1E1E1E1E0
F0F1E1E1E1E0
F0F1E1E1E1E0
ENDCHAR
STARTCHAR 007B
ENCODING 123
SWIDTH 398 0
DWIDTH 31 0
BBX 31 90 2 -16
BITMAP
00001E1E
00001E1E
00001E1E
00001E1E
0001E1E0
0001E1E0
0001E1E0
0001E1E0
000F1E00
000F1E00
000F1E00
000F1E00
0001E000
0001E000
0001E000
0001E000
000F1E00
000F1E00
000F1E00
000F1E00
0001E000
0001E000
0001E000
000F1E00
000F1E00
000F1E00
000F1E00
0001E000
0001E000
0001E000
0001E000
000F1E00
000F1E00
000F1E00
000F1E00
00F1E000
00F1E000
00F1E000
00F1E000
0F0F0000
0F0F0000
0F0F0000
0F0F0000
F0F00000
F0F00000
F0F00000
F0F00000
0F0F0000
0F0F0000
0F0F0000
0F0F0000
00F1E000
00F1E000
00F1E000
00F1E000
000F1E00
000F1E00
000F1E00
0001E000
0001E000
0001E000
0001E000
000F1E00
000F1E00
000F1E00
000F1E00
0001E000
0001E000
0001E000
0001E000
000F1E00
000F1E00
000F1E00
000F1E00
0001E000
0001E000
0001E000
0001E000
000F1E00
000F1E00
000F1E00
000F1E00
0001E1E0
0001E1E0
0001E1E0
0001E1E0
00001E1E
00001E1E
00001E1E
00001E1E
ENDCHAR
STARTCHAR 007C
ENCODING 124
SWIDTH 295 0
DWIDTH 23 0
BBX 12 74 6 -8
BITMAP
F0F0
F0F0
F0F0
F0F0
0F00
0F00
0F00
0F00
F0F0
F0F0
F0F0
F0F0
0F00
0F00
0F00
F0F0
F0F0
F0F0
F0F0
0F00
0F00
0F00
0F00
F0F0
F0F0
F0F0
F0F0
0F00
0F00
0F00
0F00
F0F0
F0F0
F0F0
F0F0
0F00
0F00
0F00
0F00
F0F0
F0F0
F0F0
F0F0
0F00
0F00
0F00
0F00
F0F0
F0F0
F0F0
0F00
0F00
0F00
0F00
F0F0
F0F0
F0F0
F0F0
0F00
0F00
0F00
0F00
F0F0
F0F0
F0F0
F0F0
0F00
0F00
0F00
0F00
F0F0
F0F0
F0F0
F0F0
ENDCHAR
STARTCHAR 007D
ENCODING 125
SWIDTH 398 0
DWIDTH 31 0
BBX 31 90 -2 -16
BITMAP
F0F00000
F0F00000
F0F00000
F0F00000
0F0F0000
0F0F0000
0F0F0000
0F0F0000
00F0F000
00F0F000
00F0F000
00F0F000
000F0000
000F0000
000F0000
000F0000
00F0F000
00F0F000
00F0F000
00F0F000
000F0000
000F0000
000F0000
00F0F000
00F0F000
00F0F000
00F0F000
000F0000
000F0000
000F0000
000F0000
00F0F000
00F0F000
00F0F000
00F0F000
000F1E00
000F1E00
000F1E00
000F1E00
0000F1E0
0000F1E0
0000F1E0
0000F1E0
00001E1E
00001E1E
00001E1E
00001E1E
0000F1E0
0000F1E0
0000F1E0
0000F1E0
000F1E00
000F1E00
000F1E00
000F1E00
00F0F000
00F0F000
00F0F000
000F0000
000F0000
000F0000
000F0000
00F0F000
00F0F000
00F0F000
00F0F000
000F0000
000F0000
000F0000
000F0000
00F0F000
00F0F000
00F0F000
00F0F000
000F0000
000F0000
000F0000
000F0000
00F0F000
00F0F000
00F0F000
00F0F000
0F0F0000
0F0F0000
0F0F0000
0F0F0000
F0F00000
F0F00000
F0F00000
F0F00000
ENDCHAR
STARTCHAR 00A1
ENCODING 161
SWIDTH 295 0
DWIDTH 23 0
BBX 12 58 6 0
BITMAP
F0F0
F0F0
F0F0
F0F0
0F00
0F00
0F00
F0F0
F0F0
F0F0
F0F0
0000
0000
0000
0000
0000
0000
0000
0000
0F00
0F00
0F00
0F00
F0F0
F0F0
F0F0
F0F0
0F00
0F00
0F00
0F00
F0F0
F0F0
F0F0
F0F0
0F00
0F00
0F00
0F00
F0F0
F0F0
F0F0
0F00
0F00
0F00
0F00
F0F0
F0F0
F0F0
F0F0
0F00
0F00
0F00
0F00
F0F0
F0F0
F0F0
F0F0
ENDCHAR
STARTCHAR 00A2
ENCODING 162
SWIDTH 694 0
DWIDTH 54 0
BBX 43 74 6 -8
BITMAP
0001E1E00000
0001E1E00000
0001E1E00000
0001E1E00000
00001E000000
00001E000000
00001E000000
00001E000000
00F1E1E1E000
00F1E1E1E000
00F1E1E1E000
00F1E1E1E000
0F1E1E1E1E00
0F1E1E1E1E00
0F1E1E1E1E00
F0F1E1E1E1E0
F0F1E1E1E1E0
F0F1E1E1E1E0
F0F1E1E1E1E0
0F0000001E00
0F0000001E00
0F0000001E00
0F0000001E00
F0F00001E1E0
F0F00001E1E0
F0F00001E1E0
F0F00001E1E0
0F0000001E00
0F0000001E00
0F0000001E00
0F0000001E00
F0F00001E1E0
F0F00001E1E0
F0F00001E1E0
F0F00001E1E0
0F0000000000
0F0000000000
0F0000000000
0F0000000000
F0F000000000
F0F000000000
F0F000000000
F0F000000000
0F0000000000
0F0000000000
0F0000000000
0F0000000000
F0F00001E1E0
F0F00001E1E0
F0F00001E1E0
0F0000001E00
0F0000001E00
0F0000001E00
0F0000001E00
F0F1E1E1E1E0
F0F1E1E1E1E0
F0F1E1E1E1E0
F0F1E1E1E1E0
0F1E1E1E1E00
0F1E1E1E1E00
0F1E1E1E1E00
0F1E1E1E1E00
00F1E1E1E000
00F1E1E1E000
00F1E1E1E000
00F1E1E1E000
00001E000000
00001E000000
00001E000000
00001E000000
0001E1E00000
0001E1E00000
0001E1E00000
0001E1E00000
ENDCHAR
STARTCHAR 00A3
ENCODING 163
SWIDTH 694 0
DWIDTH 54 0
BBX 43 66 6 0
BITMAP
0001E1E1E000
0001E1E1E000
0001E1E1E000
0001E1E1E000
001E1E1E1E00
001E1E1E1E00
001E1E1E1E00
001E1E1E1E00
00F1E1E1E1E0
00F1E1E1E1E0
00F1E1E1E1E0
00F1E1E1E1E0
001E00001E00
001E00001E00
001E00001E00
00F1E001E1E0
00F1E001E1E0
00F1E001E1E0
00F1E001E1E0
001E00000000
001E00000000
001E00000000
001E00000000
00F1E0000000
00F1E0000000
00F1E0000000
00F1E0000000
001E00000000
001E00000000
001E00000000
001E00000000
F0F1E1E1E000
F0F1E1E1E000
F0F1E1E1E000
F0F1E1E1E000
0F1E1E1E0000
0F1E1E1E0000
0F1E1E1E0000
0F1E1E1E0000
F0F1E1E1E000
F0F1E1E1E000
F0F1E1E1E000
F0F1E1E1E000
001E00000000
001E00000000
001E00000000
001E00000000
00F1E0000000
00F1E0000000
00F1E0000000
001E00000000
001E00000000
001E00000000
001E00000000
F0F1E1E1E1E0
F0F1E1E1E1E0
F0F1E1E1E1E0
F0F1E1E1E1E0
0F1E1E1E1E00
0F1E1E1E1E00
0F1E1E1E1E00
0F1E1E1E1E00
F0F1E1E1E1E0
F0F1E1E1E1E0
F0F1E1E1E1E0
F0F1E1E1E1E0
ENDCHAR
STARTCHAR 00A4
ENCODING 164
SWIDTH 797 0
DWIDTH 62 0
BBX 50 50 6 16
BITMAP
00F1E000000000
00F1E000000000
00F1E000000000
00F1E000000000
001E0000000000
001E0000000000
001E0000000000
001E0000000000
00F1E1E1E1E3C0
00F1E1E1E1E3C0
00F1E1E1E1E3C0
00F1E1E1E1E3C0
001E1E1E1E1E00
001E1E1E1E1E00
001E1E1E1E1E00
00F1E1E1E1E3C0
00F1E1E1E1E3C0
00F1E1E1E1E3C0
00F1E1E1E1E3C0
001E00001E0000
001E00001E0000
001E00001E0000
001E00001E0000
00F1E001E1E000
00F1E001E1E000
00F1E001E1E000
00F1E001E1E000
001E00001E0000
001E00001E0000
001E00001E0000
001E00001E0000
F0F1E1E1E1E000
F0F1E1E1E1E000
F0F1E1E1E1E000
F0F1E1E1E1E000
0F1E1E1E1E0000
0F1E1E1E1E0000
0F1E1E1E1E0000
0F1E1E1E1E0000
F0F1E1E1E1E000
F0F1E1E1E1E000
F0F1E1E1E1E000
F0F1E1E1E1E000
000000001E0000
000000001E0000
000000001E0000
000000001E0000
00000001E1E000
00000001E1E000
00000001E1E000
ENDCHAR
STARTCHAR 00A5
ENCODING 165
SWIDTH 694 0
DWIDTH 54 0
BBX 43 82 6 -8
BITMAP
F0F00001E1E0
F0F00001E1E0
F0F00001E1E0
F0F00001E1E0
0F0000001E00
0F0000001E00
0F0000001E00
0F0000001E00
F0F00001E1E0
F0F00001E1E0
F0F00001E1E0
F0F00001E1E0
0F0000001E00
0F0000001E00
0F0000001E00
0F0000001E00
F0F00001E1E0
F0F00001E1E0
F0F00001E1E0
F0F00001E1E0
0F1E001E1E00
0F1E001E1E00
0F1E001E1E00
00F1E1E1E000
00F1E1E1E000
00F1E1E1E000
00F1E1E1E000
001E1E1E0000
001E1E1E0000
001E1E1E0000
001E1E1E0000
0001E1E00000
0001E1E00000
0001E1E00000
0001E1E00000
00001E000000
00001E000000
00001E000000
00001E000000
F0F1E1E1E1E0
F0F1E1E1E1E0
F0F1E1E1E1E0
F0F1E1E1E1E0
0F1E1E1E1E00
0F1E1E1E1E00
0F1E1E1E1E00
0F1E1E1E1E00
F0F1E1E1E1E0
F0F1E1E1E1E0
F0F1E1E1E1E0
F0F1E1E1E1E0
00001E000000
00001E000000
00001E000000
00001E000000
0001E1E00000
0001E1E00000
0001E1E00000
00001E000000
00001E000000
00001E000000
00001E000000
F0F1E1E1E1E0
F0F1E1E1E1E0
F0F1E1E1E1E0
F0F1E1E1E1E0
0F1E1E1E1E00
0F1E1E1E1E00
0F1E1E1E1E00
0F1E1E1E1E00
F0F1E1E1E1E0
F0F1E1E1E1E0
F0F1E1E1E1E0
F0F1E1E1E1E0
00001E000000
00001E000000
00001E000000
00001E000000
0001E1E00000
0001E1E00000
0001E1E00000
0001E1E00000
ENDCHAR
STARTCHAR 00A6
ENCODING 166
SWIDTH 295 0
DWIDTH 23 0
BBX 12 74 6 -8
BITMAP
F0F0
F0F0
F0F0
F0F0
0F00
0F00
0F00
0F00
F0F0
F0F0
F0F0
F0F0
0F00
0F00
0F00
F0F0
F0F0
F0F0
F0F0
0F00
0F00
0F00
0F00
F0F0
F0F0
F0F0
F0F0
0000
0000
0000
0000
0000
0000
0000
0000
0000
0000
0000
0000
0000
0000
0000
0000
0000
0000
0000
0000
F0F0
F0F0
F0F0
0F00
0F00
0F00
0F00
F0F0
F0F0
F0F0
F0F0
0F00
0F00
0F00
0F00
F0F0
F0F0
F0F0
F0F0
0F00
0F00
0F00
0F00
F0F0
F0F0
F0F0
F0F0
ENDCHAR
STARTCHAR 00A7
ENCODING 167
SWIDTH 694 0
DWIDTH 54 0
BBX 43 90 6 -16
BITMAP
0001E1E1E1E0
0001E1E1E1E0
0001E1E1E1E0
0001E1E1E1E0
001E1E1E1E00
001E1E1E1E00
001E1E1E1E00
001E1E1E1E00
00F1E1E1E1E0
00F1E1E1E1E0
00F1E1E1E1E0
00F1E1E1E1E0
0F1E00000000
0F1E00000000
0F1E00000000
0F1E00000000
F0F000000000
F0F000000000
F0F000000000
F0F000000000
0F0000000000
0F0000000000
0F0000000000
F0F1E1E00000
F0F1E1E00000
F0F1E1E00000
F0F1E1E00000
0F1E1E1E0000
0F1E1E1E0000
0F1E1E1E0000
0F1E1E1E0000
F0F1E1E1E000
F0F1E1E1E000
F0F1E1E1E000
F0F1E1E1E000
0F00001E1E00
0F00001E1E00
0F00001E1E00
0F00001E1E00
F0F00001E1E0
F0F00001E1E0
F0F00001E1E0
F0F00001E1E0
0F0000001E00
0F0000001E00
0F0000001E00
0F0000001E00
F0F00001E1E0
F0F00001E1E0
F0F00001E1E0
F0F00001E1E0
0F1E00001E00
0F1E00001E00
0F1E00001E00
0F1E00001E00
00F1E1E1E1E0
00F1E1E1E1E0
00F1E1E1E1E0
001E1E1E1E00
001E1E1E1E00
001E1E1E1E00
001E1E1E1E00
0001E1E1E1E0
0001E1E1E1E0
0001E1E1E1E0
0001E1E1E1E0
000000001E00
000000001E00
000000001E00
000000001E00
00000001E1E0
00000001E1E0
00000001E1E0
00000001E1E0
0000001E1E00
0000001E1E00
0000001E1E00
0000001E1E00
F0F1E1E1E000
F0F1E1E1E000
F0F1E1E1E000
F0F1E1E1E000
0F1E1E1E0000
0F1E1E1E0000
0F1E1E1E0000
0F1E1E1E0000
F0F1E1E00000
F0F1E1E00000
F0F1E1E00000
F0F1E1E00000
ENDCHAR
STARTCHAR 00A8
ENCODING 168
SWIDTH 398 0
DWIDTH 31 0
BBX 27 12 2 62
BITMAP
F0F1E1E0
F0F1E1E0
F0F1E1E0
F0F1E1E0
0F001E00
0F001E00
0F001E00
0F001E00
F0F1E1E0
F0F1E1E0
F0F1E1E0
F0F1E1E0
ENDCHAR
STARTCHAR 00AB
ENCODING 171
SWIDTH 848 0
DWIDTH 66 0
BBX 54 43 2 8
BITMAP
00001E1E001E3C
00001E1E001E3C
00001E1E001E3C
00001E1E001E3C
0001E1E001E1E0
0001E1E001E1E0
0001E1E001E1E0
0001E1E001E1E0
000F1E001E1E00
000F1E001E1E00
000F1E001E1E00
000F1E001E1E00
00F1E001E1E000
00F1E001E1E000
00F1E001E1E000
00F1E001E1E000
0F0F001E1E0000
0F0F001E1E0000
0F0F001E1E0000
0F0F001E1E0000
F0F001E1E00000
F0F001E1E00000
F0F001E1E00000
F0F001E1E00000
0F0F001E1E0000
0F0F001E1E0000
0F0F001E1E0000
0F0F001E1E0000
00F1E001E1E000
00F1E001E1E000
00F1E001E1E000
00F1E001E1E000
000F1E001E1E00
000F1E001E1E00
000F1E001E1E00
0001E1E001E1E0
0001E1E001E1E0
0001E1E001E1E0
0001E1E001E1E0
00001E1E001E3C
00001E1E001E3C
00001E1E001E3C
00001E1E001E3C
ENDCHAR
STARTCHAR 00AD
ENCODING 173
SWIDTH 488 0
DWIDTH 38 0
BBX 35 12 2 23
BITMAP
F0F1E1E1E0
F0F1E1E1E0
F0F1E1E1E0
F0F1E1E1E0
0F0F1E1E00
0F0F1E1E00
0F0F1E1E00
0F0F1E1E00
F0F1E1E1E0
F0F1E1E1E0
F0F1E1E1E0
F0F1E1E1E0
ENDCHAR
STARTCHAR 00AF
ENCODING 175
SWIDTH 398 0
DWIDTH 31 0
BBX 27 12 2 62
BITMAP
F0F1E1E0
F0F1E1E0
F0F1E1E0
F0F1E1E0
0F0F1E00
0F0F1E00
0F0F1E00
0F0F1E00
F0F1E1E0
F0F1E1E0
F0F1E1E0
F0F1E1E0
ENDCHAR
STARTCHAR 00B0
ENCODING 176
SWIDTH 488 0
DWIDTH 38 0
BBX 35 35 2 31
BITMAP
00F1E1E000
00F1E1E000
00F1E1E000
00F1E1E000
0F0F1E1E00
0F0F1E1E00
0F0F1E1E00
0F0F1E1E00
F0F1E1E1E0
F0F1E1E1E0
F0F1E1E1E0
F0F1E1E1E0
0F00001E00
0F00001E00
0F00001E00
F0F001E1E0
F0F001E1E0
F0F001E1E0
F0F001E1E0
0F00001E00
0F00001E00
0F00001E00
0F00001E00
F0F1E1E1E0
F0F1E1E1E0
F0F1E1E1E0
F0F1E1E1E0
0F0F1E1E00
0F0F1E1E00
0F0F1E1E00
0F0F1E1E00
00F1E1E000
00F1E1E000
00F1E1E000
00F1E1E000
ENDCHAR
STARTCHAR 00B4
ENCODING 180
SWIDTH 347 0
DWIDTH 27 0
BBX 27 20 2 62
BITMAP
0001E1E0
0001E1E0
0001E1E0
0001E1E0
000F1E00
000F1E00
000F1E00
000F1E00
00F1E000
00F1E000
00F1E000
00F1E000
0F0F0000
0F0F0000
0F0F0000
0F0F0000
F0F00000
F0F00000
F0F00000
F0F00000
ENDCHAR
STARTCHAR 00B6
ENCODING 182
SWIDTH 694 0
DWIDTH 54 0
BBX 43 58 6 0
BITMAP
00F1E1E1E1E0
00F1E1E1E1E0
00F1E1E1E1E0
00F1E1E1E1E0
0F1E1E001E00
0F1E1E001E00
0F1E1E001E00
F0F1E1E1E1E0
F0F1E1E1E1E0
F0F1E1E1E1E0
F0F1E1E1E1E0
0F1E1E001E00
0F1E1E001E00
0F1E1E001E00
0F1E1E001E00
F0F1E1E1E1E0
F0F1E1E1E1E0
F0F1E1E1E1E0
F0F1E1E1E1E0
0F1E1E001E00
0F1E1E001E00
0F1E1E001E00
0F1E1E001E00
F0F1E1E1E1E0
F0F1E1E1E1E0
F0F1E1E1E1E0
F0F1E1E1E1E0
0F1E1E001E00
0F1E1E001E00
0F1E1E001E00
0F1E1E001E00
00F1E1E1E1E0
00F1E1E1E1E0
00F1E1E1E1E0
00F1E1E1E1E0
00001E001E00
00001E001E00
00001E001E00
00001E001E00
0001E1E1E1E0
0001E1E1E1E0
0001E1E1E1E0
00001E001E00
00001E001E00
00001E001E00
00001E001E00
0001E1E1E1E0
0001E1E1E1E0
0001E1E1E1E0
0001E1E1E1E0
00001E001E00
00001E001E00
00001E001E00
00001E001E00
0001E1E1E1E0
0001E1E1E1E0
0001E1E1E1E0
0001E1E1E1E0
ENDCHAR
STARTCHAR 00B7
ENCODING 183
SWIDTH 192 0
DWIDTH 15 0
BBX 12 12 2 23
BITMAP
F0F0
F0F0
F0F0
F0F0
0F00
0F00
0F00
0F00
F0F0
F0F0
F0F0
F0F0
ENDCHAR
STARTCHAR 00B8
ENCODING 184
SWIDTH 244 0
DWIDTH 19 0
BBX 20 16 -2 -16
BITMAP
000F00
000F00
000F00
000F00
F0F0F0
F0F0F0
F0F0F0
F0F0F0
0F0F00
0F0F00
0F0F00
0F0F00
F0F000
F0F000
F0F000
F0F000
ENDCHAR
STARTCHAR 00BB
ENCODING 187
SWIDTH 848 0
DWIDTH 66 0
BBX 54 43 10 8
BITMAP
F1E001E1E00000
F1E001E1E00000
F1E001E1E00000
F1E001E1E00000
0F1E001E1E0000
0F1E001E1E0000
0F1E001E1E0000
0F1E001E1E0000
01E1E001E1E000
01E1E001E1E000
01E1E001E1E000
01E1E001E1E000
001E1E001E3C00
001E1E001E3C00
001E1E001E3C00
001E1E001E3C00
0001E1E001E3C0
0001E1E001E3C0
0001E1E001E3C0
0001E1E001E3C0
00001E1E003C3C
00001E1E003C3C
00001E1E003C3C
00001E1E003C3C
0001E1E001E3C0
0001E1E001E3C0
0001E1E001E3C0
0001E1E001E3C0
001E1E001E3C00
001E1E001E3C00
001E1E001E3C00
001E1E001E3C00
01E1E001E1E000
01E1E001E1E000
01E1E001E1E000
0F1E001E1E0000
0F1E001E1E0000
0F1E001E1E0000
0F1E001E1E0000
F1E001E1E00000
F1E001E1E00000
F1E001E1E00000
F1E001E1E00000
ENDCHAR
STARTCHAR 00BF
ENCODING 191
SWIDTH 694 0
DWIDTH 54 0
BBX 43 58 6 0
BITMAP
0001E1E00000
0001E1E00000
0001E1E00000
0001E1E00000
00001E000000
00001E000000
00001E000000
0001E1E00000
0001E1E00000
0001E1E00000
0001E1E00000
000000000000
000000000000
000000000000
000000000000
0001E1E00000
0001E1E00000
0001E1E00000
0001E1E00000
00001E000000
00001E000000
00001E000000
00001E000000
00F1E1E00000
00F1E1E00000
00F1E1E00000
00F1E1E00000
0F1E1E000000
0F1E1E000000
0F1E1E000000
0F1E1E000000
F0F1E0000000
F0F1E0000000
F0F1E0000000
F0F1E0000000
0F0000000000
0F0000000000
0F0000000000
0F0000000000
F0F00001E1E0
F0F00001E1E0
F0F00001E1E0
0F0000001E00
0F0000001E00
0F0000001E00
0F0000001E00
F0F1E1E1E1E0
F0F1E1E1E1E0
F0F1E1E1E1E0
F0F1E1E1E1E0
0F1E1E1E1E00
0F1E1E1E1E00
0F1E1E1E1E00
0F1E1E1E1E00
00F1E1E1E000
00F1E1E1E000
00F1E1E1E000
00F1E1E1E000
ENDCHAR
STARTCHAR 00C0
ENCODING 192
SWIDTH 694 0
DWIDTH 54 0
BBX 43 82 6 0
BITMAP
F0F000000000
F0F000000000
F0F000000000
F0F000000000
0F1E00000000
0F1E00000000
0F1E00000000
0F1E00000000
00F1E0000000
00F1E0000000
00F1E0000000
00F1E0000000
001E1E000000
001E1E000000
001E1E000000
001E1E000000
0001E1E00000
0001E1E00000
0001E1E00000
0001E1E00000
000000000000
000000000000
000000000000
000000000000
0001E1E00000
0001E1E00000
0001E1E00000
0001E1E00000
001E1E1E0000
001E1E1E0000
001E1E1E0000
00F1E1E1E000
00F1E1E1E000
00F1E1E1E000
00F1E1E1E000
0F1E001E1E00
0F1E001E1E00
0F1E001E1E00
0F1E001E1E00
F0F00001E1E0
F0F00001E1E0
F0F00001E1E0
F0F00001E1E0
0F0000001E00
0F0000001E00
0F0000001E00
0F0000001E00
F0F00001E1E0
F0F00001E1E0
F0F00001E1E0
F0F00001E1E0
0F0000001E00
0F0000001E00
0F0000001E00
0F0000001E00
F0F1E1E1E1E0
F0F1E1E1E1E0
F0F1E1E1E1E0
F0F1E1E1E1E0
0F1E1E1E1E00
0F1E1E1E1E00
0F1E1E1E1E00
0F1E1E1E1E00
F0F1E1E1E1E0
F0F1E1E1E1E0
F0F1E1E1E1E0
0F0000001E00
0F0000001E00
0F0000001E00
0F0000001E00
F0F00001E1E0
F0F00001E1E0
F0F00001E1E0
F0F00001E1E0
0F0000001E00
0F0000001E00
0F0000001E00
0F0000001E00
F0F00001E1E0
F0F00001E1E0
F0F00001E1E0
F0F00001E1E0
ENDCHAR
STARTCHAR 00C1
ENCODING 193
SWIDTH 694 0
DWIDTH 54 0
BBX 43 82 6 0
BITMAP
0000001E1E00
0000001E1E00
0000001E1E00
0000001E1E00
000001E1E000
000001E1E000
000001E1E000
000001E1E000
00001E1E0000
00001E1E0000
00001E1E0000
00001E1E0000
0001E1E00000
0001E1E00000
0001E1E00000
0001E1E00000
001E1E000000
001E1E000000
001E1E000000
001E1E000000
000000000000
000000000000
000000000000
000000000000
0001E1E00000
0001E1E00000
0001E1E00000
0001E1E00000
001E1E1E0000
001E1E1E0000
001E1E1E0000
00F1E1E1E000
00F1E1E1E000
00F1E1E1E000
00F1E1E1E000
0F1E001E1E00
0F1E001E1E00
0F1E001E1E00
0F1E001E1E00
F0F00001E1E0
F0F00001E1E0
F0F00001E1E0
F0F00001E1E0
0F0000001E00
0F0000001E00
0F0000001E00
0F0000001E00
F0F00001E1E0
F0F00001E1E0
F0F00001E1E0
F0F00001E1E0
0F0000001E00
0F0000001E00
0F0000001E00
0F0000001E00
F0F1E1E1E1E0
F0F1E1E1E1E0
F0F1E1E1E1E0
F0F1E1E1E1E0
0F1E1E1E1E00
0F1E1E1E1E00
0F1E1E1E1E00
0F1E1E1E1E00
F0F1E1E1E1E0
F0F1E1E1E1E0
F0F1E1E1E1E0
0F0000001E00
0F0000001E00
0F0000001E00
0F0000001E00
F0F00001E1E0
F0F00001E1E0
F0F00001E1E0
F0F00001E1E0
0F0000001E00
0F0000001E00
0F0000001E00
0F0000001E00
F0F00001E1E0
F0F00001E1E0
F0F00001E1E0
F0F00001E1E0
ENDCHAR
STARTCHAR 00C2
ENCODING 194
SWIDTH 694 0
DWIDTH 54 0
BBX 43 82 6 0
BITMAP
0001E1E00000
0001E1E00000
0001E1E00000
0001E1E00000
001E1E1E0000
001E1E1E0000
001E1E1E0000
001E1E1E0000
00F1E1E1E000
00F1E1E1E000
00F1E1E1E000
00F1E1E1E000
001E001E0000
001E001E0000
001E001E0000
001E001E0000
00F1E1E1E000
00F1E1E1E000
00F1E1E1E000
00F1E1E1E000
000000000000
000000000000
000000000000
000000000000
0001E1E00000
0001E1E00000
0001E1E00000
0001E1E00000
001E1E1E0000
001E1E1E0000
001E1E1E0000
00F1E1E1E000
00F1E1E1E000
00F1E1E1E000
00F1E1E1E000
0F1E001E1E00
0F1E001E1E00
0F1E001E1E00
0F1E001E1E00
F0F00001E1E0
F0F00001E1E0
F0F00001E1E0
F0F00001E1E0
0F0000001E00
0F0000001E00
0F0000001E00
0F0000001E00
F0F00001E1E0
F0F00001E1E0
F0F00001E1E0
F0F00001E1E0
0F0000001E00
0F0000001E00
0F0000001E00
0F0000001E00
F0F1E1E1E1E0
F0F1E1E1E1E0
F0F1E1E1E1E0
F0F1E1E1E1E0
0F1E1E1E1E00
0F1E1E1E1E00
0F1E1E1E1E00
0F1E1E1E1E00
F0F1E1E1E1E0
F0F1E1E1E1E0
F0F1E1E1E1E0
0F0000001E00
0F0000001E00
0F0000001E00
0F0000001E00
F0F00001E1E0
F0F00001E1E0
F0F00001E1E0
F0F00001E1E0
0F0000001E00
0F0000001E00
0F0000001E00
0F0000001E00
F0F00001E1E0
F0F00001E1E0
F0F00001E1E0
F0F00001E1E0
ENDCHAR
STARTCHAR 00C3
ENCODING 195
SWIDTH 694 0
DWIDTH 54 0
BBX 43 82 6 0
BITMAP
00F1E001E1E0
00F1E001E1E0
00F1E001E1E0
00F1E001E1E0
0F1E1E001E00
0F1E1E001E00
0F1E1E001E00
0F1E1E001E00
F0F1E1E1E1E0
F0F1E1E1E1E0
F0F1E1E1E1E0
F0F1E1E1E1E0
0F001E1E1E00
0F001E1E1E00
0F001E1E1E00
0F001E1E1E00
F0F001E1E000
F0F001E1E000
F0F001E1E000
F0F001E1E000
000000000000
000000000000
000000000000
000000000000
0001E1E00000
0001E1E00000
0001E1E00000
0001E1E00000
001E1E1E0000
001E1E1E0000
001E1E1E0000
00F1E1E1E000
00F1E1E1E000
00F1E1E1E000
00F1E1E1E000
0F1E001E1E00
0F1E001E1E00
0F1E001E1E00
0F1E001E1E00
F0F00001E1E0
F0F00001E1E0
F0F00001E1E0
F0F00001E1E0
0F0000001E00
0F0000001E00
0F0000001E00
0F0000001E00
F0F00001E1E0
F0F00001E1E0
F0F00001E1E0
F0F00001E1E0
0F0000001E00
0F0000001E00
0F0000001E00
0F0000001E00
F0F1E1E1E1E0
F0F1E1E1E1E0
F0F1E1E1E1E0
F0F1E1E1E1E0
0F1E1E1E1E00
0F1E1E1E1E00
0F1E1E1E1E00
0F1E1E1E1E00
F0F1E1E1E1E0
F0F1E1E1E1E0
F0F1E1E1E1E0
0F0000001E00
0F0000001E00
0F0000001E00
0F0000001E00
F0F00001E1E0
F0F00001E1E0
F0F00001E1E0
F0F00001E1E0
0F0000001E00
0F0000001E00
0F0000001E00
0F0000001E00
F0F00001E1E0
F0F00001E1E0
F0F00001E1E0
F0F00001E1E0
ENDCHAR
STARTCHAR 00C4
ENCODING 196
SWIDTH 694 0
DWIDTH 54 0
BBX 43 74 6 0
BITMAP
00F1E1E1E000
00F1E1E1E000
00F1E1E1E000
00F1E1E1E000
001E001E0000
001E001E0000
001E001E0000
001E001E0000
00F1E1E1E000
00F1E1E1E000
00F1E1E1E000
00F1E1E1E000
000000000000
000000000000
000000000000
000000000000
0001E1E00000
0001E1E00000
0001E1E00000
0001E1E00000
001E1E1E0000
001E1E1E0000
001E1E1E0000
00F1E1E1E000
00F1E1E1E000
00F1E1E1E000
00F1E1E1E000
0F1E001E1E00
0F1E001E1E00
0F1E001E1E00
0F1E001E1E00
F0F00001E1E0
F0F00001E1E0
F0F00001E1E0
F0F00001E1E0
0F0000001E00
0F0000001E00
0F0000001E00
0F0000001E00
F0F00001E1E0
F0F00001E1E0
F0F00001E1E0
F0F00001E1E0
0F0000001E00
0F0000001E00
0F0000001E00
0F0000001E00
F0F1E1E1E1E0
F0F1E1E1E1E0
F0F1E1E1E1E0
F0F1E1E1E1E0
0F1E1E1E1E00
0F1E1E1E1E00
0F1E1E1E1E00
0F1E1E1E1E00
F0F1E1E1E1E0
F0F1E1E1E1E0
F0F1E1E1E1E0
0F0000001E00
0F0000001E00
0F0000001E00
0F0000001E00
F0F00001E1E0
F0F00001E1E0
F0F00001E1E0
F0F00001E1E0
0F0000001E00
0F0000001E00
0F0000001E00
0F0000001E00
F0F00001E1E0
F0F00001E1E0
F0F00001E1E0
F0F00001E1E0
ENDCHAR
STARTCHAR 00C5
ENCODING 197
SWIDTH 694 0
DWIDTH 54 0
BBX 43 97 6 0
BITMAP
001E1E1E0000
001E1E1E0000
001E1E1E0000
001E1E1E0000
00F1E1E1E000
00F1E1E1E000
00F1E1E1E000
00F1E1E1E000
0F1E1E1E1E00
0F1E1E1E1E00
0F1E1E1E1E00
00F00001E000
00F00001E000
00F00001E000
00F00001E000
0F1E001E1E00
0F1E001E1E00
0F1E001E1E00
0F1E001E1E00
00F00001E000
00F00001E000
00F00001E000
00F00001E000
0F1E1E1E1E00
0F1E1E1E1E00
0F1E1E1E1E00
0F1E1E1E1E00
00F1E1E1E000
00F1E1E1E000
00F1E1E1E000
00F1E1E1E000
001E1E1E0000
001E1E1E0000
001E1E1E0000
001E1E1E0000
000000000000
000000000000
000000000000
000000000000
0001E1E00000
0001E1E00000
0001E1E00000
0001E1E00000
001E1E1E0000
001E1E1E0000
001E1E1E0000
00F1E1E1E000
00F1E1E1E000
00F1E1E1E000
00F1E1E1E000
0F1E001E1E00
0F1E001E1E00
0F1E001E1E00
0F1E001E1E00
F0F00001E1E0
F0F00001E1E0
F0F00001E1E0
F0F00001E1E0
0F0000001E00
0F0000001E00
0F0000001E00
0F0000001E00
F0F00001E1E0
F0F00001E1E0
F0F00001E1E0
F0F00001E1E0
0F0000001E00
0F0000001E00
0F0000001E00
0F0000001E00
F0F1E1E1E1E0
F0F1E1E1E1E0
F0F1E1E1E1E0
F0F1E1E1E1E0
0F1E1E1E1E00
0F1E1E1E1E00
0F1E1E1E1E00
0F1E1E1E1E00
F0F1E1E1E1E0
F0F1E1E1E1E0
F0F1E1E1E1E0
0F0000001E00
0F0000001E00
0F0000001E00
0F0000001E00
F0F00001E1E0
F0F00001E1E0
F0F00001E1E0
F0F00001E1E0
0F0000001E00
0F0000001E00
0F0000001E00
0F0000001E00
F0F00001E1E0
F0F00001E1E0
F0F00001E1E0
F0F00001E1E0
ENDCHAR
STARTCHAR 00C6
ENCODING 198
SWIDTH 1092 0
DWIDTH 85 0
BBX 74 58 6 0
BITMAP
0001E1E1E1E3C3C3C3C0
0001E1E1E1E3C3C3C3C0
0001E1E1E1E3C3C3C3C0
0001E1E1E1E3C3C3C3C0
001E1E1E1E1E3C3C3C00
001E1E1E1E1E3C3C3C00
001E1E1E1E1E3C3C3C00
00F1E1E1E1E3C3C3C3C0
00F1E1E1E1E3C3C3C3C0
00F1E1E1E1E3C3C3C3C0
00F1E1E1E1E3C3C3C3C0
0F1E00001E0000000000
0F1E00001E0000000000
0F1E00001E0000000000
0F1E00001E0000000000
F0F00001E1E000000000
F0F00001E1E000000000
F0F00001E1E000000000
F0F00001E1E000000000
0F0000001E0000000000
0F0000001E0000000000
0F0000001E0000000000
0F0000001E0000000000
F0F00001E1E3C3C3C000
F0F00001E1E3C3C3C000
F0F00001E1E3C3C3C000
F0F00001E1E3C3C3C000
0F0000001E1E3C3C0000
0F0000001E1E3C3C0000
0F0000001E1E3C3C0000
0F0000001E1E3C3C0000
F0F1E1E1E1E3C3C3C000
F0F1E1E1E1E3C3C3C000
F0F1E1E1E1E3C3C3C000
F0F1E1E1E1E3C3C3C000
0F1E1E1E1E0000000000
0F1E1E1E1E0000000000
0F1E1E1E1E0000000000
0F1E1E1E1E0000000000
F0F1E1E1E1E000000000
F0F1E1E1E1E000000000
F0F1E1E1E1E000000000
0F0000001E0000000000
0F0000001E0000000000
0F0000001E0000000000
0F0000001E0000000000
F0F00001E1E3C3C3C3C0
F0F00001E1E3C3C3C3C0
F0F00001E1E3C3C3C3C0
F0F00001E1E3C3C3C3C0
0F0000001E1E3C3C3C00
0F0000001E1E3C3C3C00
0F0000001E1E3C3C3C00
0F0000001E1E3C3C3C00
F0F0000001E3C3C3C3C0
F0F0000001E3C3C3C3C0
F0F0000001E3C3C3C3C0
F0F0000001E3C3C3C3C0
ENDCHAR
STARTCHAR 00C7
ENCODING 199
SWIDTH 797 0
DWIDTH 62 0
BBX 50 74 6 -16
BITMAP
0001E1E1E00000
0001E1E1E00000
0001E1E1E00000
0001E1E1E00000
001E1E1E1E0000
001E1E1E1E0000
001E1E1E1E0000
00F1E1E1E1E000
00F1E1E1E1E000
00F1E1E1E1E000
00F1E1E1E1E000
0F1E00001E1E00
0F1E00001E1E00
0F1E00001E1E00
0F1E00001E1E00
F0F0000001E3C0
F0F0000001E3C0
F0F0000001E3C0
F0F0000001E3C0
0F000000001E00
0F000000001E00
0F000000001E00
0F000000001E00
F0F0000001E3C0
F0F0000001E3C0
F0F0000001E3C0
F0F0000001E3C0
0F000000000000
0F000000000000
0F000000000000
0F000000000000
F0F00000000000
F0F00000000000
F0F00000000000
F0F00000000000
0F000000000000
0F000000000000
0F000000000000
0F000000000000
F0F0000001E3C0
F0F0000001E3C0
F0F0000001E3C0
0F1E00001E1E00
0F1E00001E1E00
0F1E00001E1E00
0F1E00001E1E00
00F1E1E1E1E000
00F1E1E1E1E000
00F1E1E1E1E000
00F1E1E1E1E000
001E1E1E1E0000
001E1E1E1E0000
001E1E1E1E0000
001E1E1E1E0000
0001E1E1E00000
0001E1E1E00000
0001E1E1E00000
0001E1E1E00000
0000001E000000
0000001E000000
0000001E000000
0000001E000000
0001E1E1E00000
0001E1E1E00000
0001E1E1E00000
0001E1E1E00000
00001E1E000000
00001E1E000000
00001E1E000000
00001E1E000000
0001E1E0000000
0001E1E0000000
0001E1E0000000
0001E1E0000000
ENDCHAR
STARTCHAR 00C8
ENCODING 200
SWIDTH 694 0
DWIDTH 54 0
BBX 43 82 6 0
BITMAP
F0F000000000
F0F000000000
F0F000000000
F0F000000000
0F1E00000000
0F1E00000000
0F1E00000000
0F1E00000000
00F1E0000000
00F1E0000000
00F1E0000000
00F1E0000000
001E1E000000
001E1E000000
001E1E000000
001E1E000000
0001E1E00000
0001E1E00000
0001E1E00000
0001E1E00000
000000000000
000000000000
000000000000
000000000000
0001E1E1E1E0
0001E1E1E1E0
0001E1E1E1E0
0001E1E1E1E0
001E1E1E1E00
001E1E1E1E00
001E1E1E1E00
00F1E1E1E1E0
00F1E1E1E1E0
00F1E1E1E1E0
00F1E1E1E1E0
0F1E00000000
0F1E00000000
0F1E00000000
0F1E00000000
F0F000000000
F0F000000000
F0F000000000
F0F000000000
0F0000000000
0F0000000000
0F0000000000
0F0000000000
F0F1E1E1E000
F0F1E1E1E000
F0F1E1E1E000
F0F1E1E1E000
0F1E1E1E0000
0F1E1E1E0000
0F1E1E1E0000
0F1E1E1E0000
F0F1E1E1E000
F0F1E1E1E000
F0F1E1E1E000
F0F1E1E1E000
0F0000000000
0F0000000000
0F0000000000
0F0000000000
F0F000000000
F0F000000000
F0F000000000
0F1E00000000
0F1E00000000
0F1E00000000
0F1E00000000
00F1E1E1E1E0
00F1E1E1E1E0
00F1E1E1E1E0
00F1E1E1E1E0
001E1E1E1E00
001E1E1E1E00
001E1E1E1E00
001E1E1E1E00
0001E1E1E1E0
0001E1E1E1E0
0001E1E1E1E0
0001E1E1E1E0
ENDCHAR
STARTCHAR 00C9
ENCODING 201
SWIDTH 694 0
DWIDTH 54 0
BBX 43 82 6 0
BITMAP
0000001E1E00
0000001E1E00
0000001E1E00
0000001E1E00
000001E1E000
000001E1E000
000001E1E000
000001E1E000
00001E1E0000
00001E1E0000
00001E1E0000
00001E1E0000
0001E1E00000
0001E1E00000
0001E1E00000
0001E1E00000
001E1E000000
001E1E000000
001E1E000000
001E1E000000
000000000000
000000000000
000000000000
000000000000
0001E1E1E1E0
0001E1E1E1E0
0001E1E1E1E0
0001E1E1E1E0
001E1E1E1E00
001E1E1E1E00
001E1E1E1E00
00F1E1E1E1E0
00F1E1E1E1E0
00F1E1E1E1E0
00F1E1E1E1E0
0F1E00000000
0F1E00000000
0F1E00000000
0F1E00000000
F0F000000000
F0F000000000
F0F000000000
F0F000000000
0F0000000000
0F0000000000
0F0000000000
0F0000000000
F0F1E1E1E000
F0F1E1E1E000
F0F1E1E1E000
F0F1E1E1E000
0F1E1E1E0000
0F1E1E1E0000
0F1E1E1E0000
0F1E1E1E0000
F0F1E1E1E000
F0F1E1E1E000
F0F1E1E1E000
F0F1E1E1E000
0F0000000000
0F0000000000
0F0000000000
0F0000000000
F0F000000000
F0F000000000
F0F000000000
0F1E00000000
0F1E00000000
0F1E00000000
0F1E00000000
00F1E1E1E1E0
00F1E1E1E1E0
00F1E1E1E1E0
00F1E1E1E1E0
001E1E1E1E00
001E1E1E1E00
001E1E1E1E00
001E1E1E1E00
0001E1E1E1E0
0001E1E1E1E0
0001E1E1E1E0
0001E1E1E1E0
ENDCHAR
STARTCHAR 00CA
ENCODING 202
SWIDTH 694 0
DWIDTH 54 0
BBX 43 82 6 0
BITMAP
0001E1E00000
0001E1E00000
0001E1E00000
0001E1E00000
001E1E1E0000
001E1E1E0000
001E1E1E0000
001E1E1E0000
00F1E1E1E000
00F1E1E1E000
00F1E1E1E000
00F1E1E1E000
001E001E0000
001E001E0000
001E001E0000
001E001E0000
00F1E1E1E000
00F1E1E1E000
00F1E1E1E000
00F1E1E1E000
000000000000
000000000000
000000000000
000000000000
0001E1E1E1E0
0001E1E1E1E0
0001E1E1E1E0
0001E1E1E1E0
001E1E1E1E00
001E1E1E1E00
001E1E1E1E00
00F1E1E1E1E0
00F1E1E1E1E0
00F1E1E1E1E0
00F1E1E1E1E0
0F1E00000000
0F1E00000000
0F1E00000000
0F1E00000000
F0F000000000
F0F000000000
F0F000000000
F0F000000000
0F0000000000
0F0000000000
0F0000000000
0F0000000000
F0F1E1E1E000
F0F1E1E1E000
F0F1E1E1E000
F0F1E1E1E000
0F1E1E1E0000
0F1E1E1E0000
0F1E1E1E0000
0F1E1E1E0000
F0F1E1E1E000
F0F1E1E1E000
F0F1E1E1E000
F0F1E1E1E000
0F0000000000
0F0000000000
0F0000000000
0F0000000000
F0F000000000
F0F000000000
F0F000000000
0F1E00000000
0F1E00000000
0F1E00000000
0F1E00000000
00F1E1E1E1E0
00F1E1E1E1E0
00F1E1E1E1E0
00F1E1E1E1E0
001E1E1E1E00
001E1E1E1E00
001E1E1E1E00
001E1E1E1E00
0001E1E1E1E0
0001E1E1E1E0
0001E1E1E1E0
0001E1E1E1E0
ENDCHAR
STARTCHAR 00CB
ENCODING 203
SWIDTH 694 0
DWIDTH 54 0
BBX 43 74 6 0
BITMAP
00F1E1E1E000
00F1E1E1E000
00F1E1E1E000
00F1E1E1E000
001E001E0000
001E001E0000
001E001E0000
001E001E0000
00F1E1E1E000
00F1E1E1E000
00F1E1E1E000
00F1E1E1E000
000000000000
000000000000
000000000000
000000000000
0001E1E1E1E0
0001E1E1E1E0
0001E1E1E1E0
0001E1E1E1E0
001E1E1E1E00
001E1E1E1E00
001E1E1E1E00
00F1E1E1E1E0
00F1E1E1E1E0
00F1E1E1E1E0
00F1E1E1E1E0
0F1E00000000
0F1E00000000
0F1E00000000
0F1E00000000
F0F000000000
F0F000000000
F0F000000000
F0F000000000
0F0000000000
0F0000000000
0F0000000000
0F0000000000
F0F1E1E1E000
F0F1E1E1E000
F0F1E1E1E000
F0F1E1E1E000
0F1E1E1E0000
0F1E1E1E0000
0F1E1E1E0000
0F1E1E1E0000
F0F1E1E1E000
F0F1E1E1E000
F0F1E1E1E000
F0F1E1E1E000
0F0000000000
0F0000000000
0F0000000000
0F0000000000
F0F000000000
F0F000000000
F0F000000000
0F1E00000000
0F1E00000000
0F1E00000000
0F1E00000000
00F1E1E1E1E0
00F1E1E1E1E0
00F1E1E1E1E0
00F1E1E1E1E0
001E1E1E1E00
001E1E1E1E00
001E1E1E1E00
001E1E1E1E00
0001E1E1E1E0
0001E1E1E1E0
0001E1E1E1E0
0001E1E1E1E0
ENDCHAR
STARTCHAR 00CC
ENCODING 204
SWIDTH 488 0
DWIDTH 38 0
BBX 35 82 -2 0
BITMAP
F0F0000000
F0F0000000
F0F0000000
F0F0000000
0F0F000000
0F0F000000
0F0F000000
0F0F000000
00F0F00000
00F0F00000
00F0F00000
00F0F00000
000F1E0000
000F1E0000
000F1E0000
000F1E0000
0000F1E000
0000F1E000
0000F1E000
0000F1E000
0000000000
0000000000
0000000000
0000000000
00F0F1E1E0
00F0F1E1E0
00F0F1E1E0
00F0F1E1E0
000F1E1E00
000F1E1E00
000F1E1E00
00F0F1E1E0
00F0F1E1E0
00F0F1E1E0
00F0F1E1E0
00001E0000
00001E0000
00001E0000
00001E0000
0000F1E000
0000F1E000
0000F1E000
0000F1E000
00001E0000
00001E0000
00001E0000
00001E0000
0000F1E000
0000F1E000
0000F1E000
0000F1E000
00001E0000
00001E0000
00001E0000
00001E0000
0000F1E000
0000F1E000
0000F1E000
0000F1E000
00001E0000
00001E0000
00001E0000
00001E0000
0000F1E000
0000F1E000
0000F1E000
00001E0000
00001E0000
00001E0000
00001E0000
00F0F1E1E0
00F0F1E1E0
00F0F1E1E0
00F0F1E1E0
000F1E1E00
000F1E1E00
000F1E1E00
000F1E1E00
00F0F1E1E0
00F0F1E1E0
00F0F1E1E0
00F0F1E1E0
ENDCHAR
STARTCHAR 00CD
ENCODING 205
SWIDTH 488 0
DWIDTH 38 0
BBX 31 82 6 0
BITMAP
00001E1E
00001E1E
00001E1E
00001E1E
0001E1E0
0001E1E0
0001E1E0
0001E1E0
001E1E00
001E1E00
001E1E00
001E1E00
00F1E000
00F1E000
00F1E000
00F1E000
0F1E0000
0F1E0000
0F1E0000
0F1E0000
00000000
00000000
00000000
00000000
F0F1E1E0
F0F1E1E0
F0F1E1E0
F0F1E1E0
0F1E1E00
0F1E1E00
0F1E1E00
F0F1E1E0
F0F1E1E0
F0F1E1E0
F0F1E1E0
001E0000
001E0000
001E0000
001E0000
00F1E000
00F1E000
00F1E000
00F1E000
001E0000
001E0000
001E0000
001E0000
00F1E000
00F1E000
00F1E000
00F1E000
001E0000
001E0000
001E0000
001E0000
00F1E000
00F1E000
00F1E000
00F1E000
001E0000
001E0000
001E0000
001E0000
00F1E000
00F1E000
00F1E000
001E0000
001E0000
001E0000
001E0000
F0F1E1E0
F0F1E1E0
F0F1E1E0
F0F1E1E0
0F1E1E00
0F1E1E00
0F1E1E00
0F1E1E00
F0F1E1E0
F0F1E1E0
F0F1E1E0
F0F1E1E0
ENDCHAR
STARTCHAR 00CE
ENCODING 206
SWIDTH 488 0
DWIDTH 38 0
BBX 27 82 6 0
BITMAP
00F1E000
00F1E000
00F1E000
00F1E000
0F1E1E00
0F1E1E00
0F1E1E00
0F1E1E00
F0F1E1E0
F0F1E1E0
F0F1E1E0
F0F1E1E0
0F001E00
0F001E00
0F001E00
0F001E00
F0F1E1E0
F0F1E1E0
F0F1E1E0
F0F1E1E0
00000000
00000000
00000000
00000000
F0F1E1E0
F0F1E1E0
F0F1E1E0
F0F1E1E0
0F1E1E00
0F1E1E00
0F1E1E00
F0F1E1E0
F0F1E1E0
F0F1E1E0
F0F1E1E0
001E0000
001E0000
001E0000
001E0000
00F1E000
00F1E000
00F1E000
00F1E000
001E0000
001E0000
001E0000
001E0000
00F1E000
00F1E000
00F1E000
00F1E000
001E0000
001E0000
001E0000
001E0000
00F1E000
00F1E000
00F1E000
00F1E000
001E0000
001E0000
001E0000
001E0000
00F1E000
00F1E000
00F1E000
001E0000
001E0000
001E0000
001E0000
F0F1E1E0
F0F1E1E0
F0F1E1E0
F0F1E1E0
0F1E1E00
0F1E1E00
0F1E1E00
0F1E1E00
F0F1E1E0
F0F1E1E0
F0F1E1E0
F0F1E1E0
ENDCHAR
STARTCHAR 00CF
ENCODING 207
SWIDTH 488 0
DWIDTH 38 0
BBX 27 74 6 0
BITMAP
F0F1E1E0
F0F1E1E0
F0F1E1E0
F0F1E1E0
0F001E00
0F001E00
0F001E00
0F001E00
F0F1E1E0
F0F1E1E0
F0F1E1E0
F0F1E1E0
00000000
00000000
00000000
00000000
F0F1E1E0
F0F1E1E0
F0F1E1E0
F0F1E1E0
0F1E1E00
0F1E1E00
0F1E1E00
F0F1E1E0
F0F1E1E0
F0F1E1E0
F0F1E1E0
001E0000
001E0000
001E0000
001E0000
00F1E000
00F1E000
00F1E000
00F1E000
001E0000
001E0000
001E0000
001E0000
00F1E000
00F1E000
00F1E000
00F1E000
001E0000
001E0000
001E0000
001E0000
00F1E000
00F1E000
00F1E000
00F1E000
001E0000
001E0000
001E0000
001E0000
00F1E000
00F1E000
00F1E000
001E0000
001E0000
001E0000
001E0000
F0F1E1E0
F0F1E1E0
F0F1E1E0
F0F1E1E0
0F1E1E00
0F1E1E00
0F1E1E00
0F1E1E00
F0F1E1E0
F0F1E1E0
F0F1E1E0
F0F1E1E0
ENDCHAR
STARTCHAR 00D0
ENCODING 208
SWIDTH 848 0
DWIDTH 66 0
BBX 58 58 2 0
BITMAP
00F1E1E1E1E00000
00F1E1E1E1E00000
00F1E1E1E1E00000
00F1E1E1E1E00000
000F1E1E1E1E0000
000F1E1E1E1E0000
000F1E1E1E1E0000
00F1E1E1E1E1E000
00F1E1E1E1E1E000
00F1E1E1E1E1E000
00F1E1E1E1E1E000
000F0000001E3C00
000F0000001E3C00
000F0000001E3C00
000F0000001E3C00
00F1E0000001E3C0
00F1E0000001E3C0
00F1E0000001E3C0
00F1E0000001E3C0
000F000000003C00
000F000000003C00
000F000000003C00
000F000000003C00
F0F1E1E00001E3C0
F0F1E1E00001E3C0
F0F1E1E00001E3C0
F0F1E1E00001E3C0
0F0F1E0000003C00
0F0F1E0000003C00
0F0F1E0000003C00
0F0F1E0000003C00
F0F1E1E00001E3C0
F0F1E1E00001E3C0
F0F1E1E00001E3C0
F0F1E1E00001E3C0
000F000000003C00
000F000000003C00
000F000000003C00
000F000000003C00
00F1E0000001E3C0
00F1E0000001E3C0
00F1E0000001E3C0
000F0000001E3C00
000F0000001E3C00
000F0000001E3C00
000F0000001E3C00
00F1E1E1E1E1E000
00F1E1E1E1E1E000
00F1E1E1E1E1E000
00F1E1E1E1E1E000
000F1E1E1E1E0000
000F1E1E1E1E0000
000F1E1E1E1E0000
000F1E1E1E1E0000
00F1E1E1E1E00000
00F1E1E1E1E00000
00F1E1E1E1E00000
00F1E1E1E1E00000
ENDCHAR
STARTCHAR 00D1
ENCODING 209
SWIDTH 797 0
DWIDTH 62 0
BBX 50 82 6 0
BITMAP
001E1E001E1E00
001E1E001E1E00
001E1E001E1E00
001E1E001E1E00
00F1E1E001E000
00F1E1E001E000
00F1E1E001E000
00F1E1E001E000
0F1E1E1E1E1E00
0F1E1E1E1E1E00
0F1E1E1E1E1E00
0F1E1E1E1E1E00
00F001E1E1E000
00F001E1E1E000
00F001E1E1E000
00F001E1E1E000
0F1E001E1E0000
0F1E001E1E0000
0F1E001E1E0000
0F1E001E1E0000
00000000000000
00000000000000
00000000000000
00000000000000
F0F0000001E3C0
F0F0000001E3C0
F0F0000001E3C0
F0F0000001E3C0
0F1E0000001E00
0F1E0000001E00
0F1E0000001E00
F0F1E00001E3C0
F0F1E00001E3C0
F0F1E00001E3C0
F0F1E00001E3C0
0F1E1E00001E00
0F1E1E00001E00
0F1E1E00001E00
0F1E1E00001E00
F0F1E1E001E3C0
F0F1E1E001E3C0
F0F1E1E001E3C0
F0F1E1E001E3C0
0F001E1E001E00
0F001E1E001E00
0F001E1E001E00
0F001E1E001E00
F0F001E1E1E3C0
F0F001E1E1E3C0
F0F001E1E1E3C0
F0F001E1E1E3C0
0F00001E1E1E00
0F00001E1E1E00
0F00001E1E1E00
0F00001E1E1E00
F0F00001E1E3C0
F0F00001E1E3C0
F0F00001E1E3C0
F0F00001E1E3C0
0F0000001E1E00
0F0000001E1E00
0F0000001E1E00
0F0000001E1E00
F0F0000001E3C0
F0F0000001E3C0
F0F0000001E3C0
0F000000001E00
0F000000001E00
0F000000001E00
0F000000001E00
F0F0000001E3C0
F0F0000001E3C0
F0F0000001E3C0
F0F0000001E3C0
0F000000001E00
0F000000001E00
0F000000001E00
0F000000001E00
F0F0000001E3C0
F0F0000001E3C0
F0F0000001E3C0
F0F0000001E3C0
ENDCHAR
STARTCHAR 00D2
ENCODING 210
SWIDTH 797 0
DWIDTH 62 0
BBX 50 82 6 0
BITMAP
0F1E0000000000
0F1E0000000000
0F1E0000000000
0F1E0000000000
00F1E000000000
00F1E000000000
00F1E000000000
00F1E000000000
001E1E00000000
001E1E00000000
001E1E00000000
001E1E00000000
0001E1E0000000
0001E1E0000000
0001E1E0000000
0001E1E0000000
00001E1E000000
00001E1E000000
00001E1E000000
00001E1E000000
00000000000000
00000000000000
00000000000000
00000000000000
0001E1E1E00000
0001E1E1E00000
0001E1E1E00000
0001E1E1E00000
001E1E1E1E0000
001E1E1E1E0000
001E1E1E1E0000
00F1E1E1E1E000
00F1E1E1E1E000
00F1E1E1E1E000
00F1E1E1E1E000
0F1E00001E1E00
0F1E00001E1E00
0F1E00001E1E00
0F1E00001E1E00
F0F0000001E3C0
F0F0000001E3C0
F0F0000001E3C0
F0F0000001E3C0
0F000000001E00
0F000000001E00
0F000000001E00
0F000000001E00
F0F0000001E3C0
F0F0000001E3C0
F0F0000001E3C0
F0F0000001E3C0
0F000000001E00
0F000000001E00
0F000000001E00
0F000000001E00
F0F0000001E3C0
F0F0000001E3C0
F0F0000001E3C0
F0F0000001E3C0
0F000000001E00
0F000000001E00
0F000000001E00
0F000000001E00
F0F0000001E3C0
F0F0000001E3C0
F0F0000001E3C0
0F1E00001E1E00
0F1E00001E1E00
0F1E00001E1E00
0F1E00001E1E00
00F1E1E1E1E000
00F1E1E1E1E000
00F1E1E1E1E000
00F1E1E1E1E000
001E1E1E1E0000
001E1E1E1E0000
001E1E1E1E0000
001E1E1E1E0000
0001E1E1E00000
0001E1E1E00000
0001E1E1E00000
0001E1E1E00000
ENDCHAR
STARTCHAR 00D3
ENCODING 211
SWIDTH 797 0
DWIDTH 62 0
BBX 50 82 6 0
BITMAP
00000001E1E000
00000001E1E000
00000001E1E000
00000001E1E000
0000001E1E0000
0000001E1E0000
0000001E1E0000
0000001E1E0000
000001E1E00000
000001E1E00000
000001E1E00000
000001E1E00000
00001E1E000000
00001E1E000000
00001E1E000000
00001E1E000000
0001E1E0000000
0001E1E0000000
0001E1E0000000
0001E1E0000000
00000000000000
00000000000000
00000000000000
00000000000000
0001E1E1E00000
0001E1E1E00000
0001E1E1E00000
0001E1E1E00000
001E1E1E1E0000
001E1E1E1E0000
001E1E1E1E0000
00F1E1E1E1E000
00F1E1E1E1E000
00F1E1E1E1E000
00F1E1E1E1E000
0F1E00001E1E00
0F1E00001E1E00
0F1E00001E1E00
0F1E00001E1E00
F0F0000001E3C0
F0F0000001E3C0
F0F0000001E3C0
F0F0000001E3C0
0F000000001E00
0F000000001E00
0F000000001E00
0F000000001E00
F0F0000001E3C0
F0F0000001E3C0
F0F0000001E3C0
F0F0000001E3C0
0F000000001E00
0F000000001E00
0F000000001E00
0F000000001E00
F0F0000001E3C0
F0F0000001E3C0
F0F0000001E3C0
F0F0000001E3C0
0F000000001E00
0F000000001E00
0F000000001E00
0F000000001E00
F0F0000001E3C0
F0F0000001E3C0
F0F0000001E3C0
0F1E00001E1E00
0F1E00001E1E00
0F1E00001E1E00
0F1E00001E1E00
00F1E1E1E1E000
00F1E1E1E1E000
00F1E1E1E1E000
00F1E1E1E1E000
001E1E1E1E0000
001E1E1E1E0000
001E1E1E1E0000
001E1E1E1E0000
0001E1E1E00000
0001E1E1E00000
0001E1E1E00000
0001E1E1E00000
ENDCHAR
STARTCHAR 00D4
ENCODING 212
SWIDTH 797 0
DWIDTH 62 0
BBX 50 82 6 0
BITMAP
00001E1E000000
00001E1E000000
00001E1E000000
00001E1E000000
0001E1E1E00000
0001E1E1E00000
0001E1E1E00000
0001E1E1E00000
001E1E1E1E0000
001E1E1E1E0000
001E1E1E1E0000
001E1E1E1E0000
0001E001E00000
0001E001E00000
0001E001E00000
0001E001E00000
001E1E1E1E0000
001E1E1E1E0000
001E1E1E1E0000
001E1E1E1E0000
00000000000000
00000000000000
00000000000000
00000000000000
0001E1E1E00000
0001E1E1E00000
0001E1E1E00000
0001E1E1E00000
001E1E1E1E0000
001E1E1E1E0000
001E1E1E1E0000
00F1E1E1E1E000
00F1E1E1E1E000
00F1E1E1E1E000
00F1E1E1E1E000
0F1E00001E1E00
0F1E00001E1E00
0F1E00001E1E00
0F1E00001E1E00
F0F0000001E3C0
F0F0000001E3C0
F0F0000001E3C0
F0F0000001E3C0
0F000000001E00
0F000000001E00
0F000000001E00
0F000000001E00
F0F0000001E3C0
F0F0000001E3C0
F0F0000001E3C0
F0F0000001E3C0
0F000000001E00
0F000000001E00
0F000000001E00
0F000000001E00
F0F0000001E3C0
F0F0000001E3C0
F0F0000001E3C0
F0F0000001E3C0
0F000000001E00
0F000000001E00
0F000000001E00
0F000000001E00
F0F0000001E3C0
F0F0000001E3C0
F0F0000001E3C0
0F1E00001E1E00
0F1E00001E1E00
0F1E00001E1E00
0F1E00001E1E00
00F1E1E1E1E000
00F1E1E1E1E000
00F1E1E1E1E000
00F1E1E1E1E000
001E1E1E1E0000
001E1E1E1E0000
001E1E1E1E0000
001E1E1E1E0000
0001E1E1E00000
0001E1E1E00000
0001E1E1E00000
0001E1E1E00000
ENDCHAR
STARTCHAR 00D5
ENCODING 213
SWIDTH 797 0
DWIDTH 62 0
BBX 50 82 6 0
BITMAP
001E1E001E1E00
001E1E001E1E00
001E1E001E1E00
001E1E001E1E00
00F1E1E001E000
00F1E1E001E000
00F1E1E001E000
00F1E1E001E000
0F1E1E1E1E1E00
0F1E1E1E1E1E00
0F1E1E1E1E1E00
0F1E1E1E1E1E00
00F001E1E1E000
00F001E1E1E000
00F001E1E1E000
00F001E1E1E000
0F1E001E1E0000
0F1E001E1E0000
0F1E001E1E0000
0F1E001E1E0000
00000000000000
00000000000000
00000000000000
00000000000000
0001E1E1E00000
0001E1E1E00000
0001E1E1E00000
0001E1E1E00000
001E1E1E1E0000
001E1E1E1E0000
001E1E1E1E0000
00F1E1E1E1E000
00F1E1E1E1E000
00F1E1E1E1E000
00F1E1E1E1E000
0F1E00001E1E00
0F1E00001E1E00
0F1E00001E1E00
0F1E00001E1E00
F0F0000001E3C0
F0F0000001E3C0
F0F0000001E3C0
F0F0000001E3C0
0F000000001E00
0F000000001E00
0F000000001E00
0F000000001E00
F0F0000001E3C0
F0F0000001E3C0
F0F0000001E3C0
F0F0000001E3C0
0F000000001E00
0F000000001E00
0F000000001E00
0F000000001E00
F0F0000001E3C0
F0F0000001E3C0
F0F0000001E3C0
F0F0000001E3C0
0F000000001E00
0F000000001E00
0F000000001E00
0F000000001E00
F0F0000001E3C0
F0F0000001E3C0
F0F0000001E3C0
0F1E00001E1E00
0F1E00001E1E00
0F1E00001E1E00
0F1E00001E1E00
00F1E1E1E1E000
00F1E1E1E1E000
00F1E1E1E1E000
00F1E1E1E1E000
001E1E1E1E0000
001E1E1E1E0000
001E1E1E1E0000
001E1E1E1E0000
0001E1E1E00000
0001E1E1E00000
0001E1E1E00000
0001E1E1E00000
ENDCHAR
STARTCHAR 00D6
ENCODING 214
SWIDTH 797 0
DWIDTH 62 0
BBX 50 74 6 0
BITMAP
001E1E1E1E0000
001E1E1E1E0000
001E1E1E1E0000
001E1E1E1E0000
0001E001E00000
0001E001E00000
0001E001E00000
0001E001E00000
001E1E1E1E0000
001E1E1E1E0000
001E1E1E1E0000
001E1E1E1E0000
00000000000000
00000000000000
00000000000000
00000000000000
0001E1E1E00000
0001E1E1E00000
0001E1E1E00000
0001E1E1E00000
001E1E1E1E0000
001E1E1E1E0000
001E1E1E1E0000
00F1E1E1E1E000
00F1E1E1E1E000
00F1E1E1E1E000
00F1E1E1E1E000
0F1E00001E1E00
0F1E00001E1E00
0F1E00001E1E00
0F1E00001E1E00
F0F0000001E3C0
F0F0000001E3C0
F0F0000001E3C0
F0F0000001E3C0
0F000000001E00
0F000000001E00
0F000000001E00
0F000000001E00
F0F0000001E3C0
F0F0000001E3C0
F0F0000001E3C0
F0F0000001E3C0
0F000000001E00
0F000000001E00
0F000000001E00
0F000000001E00
F0F0000001E3C0
F0F0000001E3C0
F0F0000001E3C0
F0F0000001E3C0
0F000000001E00
0F000000001E00
0F000000001E00
0F000000001E00
F0F0000001E3C0
F0F0000001E3C0
F0F0000001E3C0
0F1E00001E1E00
0F1E00001E1E00
0F1E00001E1E00
0F1E00001E1E00
00F1E1E1E1E000
00F1E1E1E1E000
00F1E1E1E1E000
00F1E1E1E1E000
001E1E1E1E0000
001E1E1E1E0000
001E1E1E1E0000
001E1E1E1E0000
0001E1E1E00000
0001E1E1E00000
0001E1E1E00000
0001E1E1E00000
ENDCHAR
STARTCHAR 00D7
ENCODING 215
SWIDTH 694 0
DWIDTH 54 0
BBX 43 46 6 8
BITMAP
0F0000001E00
0F0000001E00
0F0000001E00
F0F00001E1E0
F0F00001E1E0
F0F00001E1E0
F0F00001E1E0
0F1E001E1E00
0F1E001E1E00
0F1E001E1E00
0F1E001E1E00
00F1E1E1E000
00F1E1E1E000
00F1E1E1E000
00F1E1E1E000
001E1E1E0000
001E1E1E0000
001E1E1E0000
001E1E1E0000
0001E1E00000
0001E1E00000
0001E1E00000
0001E1E00000
001E1E1E0000
001E1E1E0000
001E1E1E0000
001E1E1E0000
00F1E1E1E000
00F1E1E1E000
00F1E1E1E000
00F1E1E1E000
0F1E001E1E00
0F1E001E1E00
0F1E001E1E00
0F1E001E1E00
F0F00001E1E0
F0F00001E1E0
F0F00001E1E0
0F0000001E00
0F0000001E00
0F0000001E00
0F0000001E00
F0F00001E1E0
F0F00001E1E0
F0F00001E1E0
F0F00001E1E0
ENDCHAR
STARTCHAR 00D8
ENCODING 216
SWIDTH 900 0
DWIDTH 70 0
BBX 66 58 2 0
BITMAP
000001E1E1E0000000
000001E1E1E0000000
000001E1E1E0000000
000001E1E1E0000000
00001E1E1E1E000000
00001E1E1E1E000000
00001E1E1E1E000000
0001E1E1E1E1E00000
0001E1E1E1E1E00000
0001E1E1E1E1E00000
0001E1E1E1E1E00000
000F1E00001E3C0000
000F1E00001E3C0000
000F1E00001E3C0000
000F1E00001E3C0000
00F1E0000001E3C000
00F1E0000001E3C000
00F1E0000001E3C000
00F1E0000001E3C000
000F000000003C0000
000F000000003C0000
000F000000003C0000
000F000000003C0000
F0F1E1E1E1E1E3C3C0
F0F1E1E1E1E1E3C3C0
F0F1E1E1E1E1E3C3C0
F0F1E1E1E1E1E3C3C0
0F0F1E1E1E1E3C3C00
0F0F1E1E1E1E3C3C00
0F0F1E1E1E1E3C3C00
0F0F1E1E1E1E3C3C00
F0F1E1E1E1E1E3C3C0
F0F1E1E1E1E1E3C3C0
F0F1E1E1E1E1E3C3C0
F0F1E1E1E1E1E3C3C0
000F000000003C0000
000F000000003C0000
000F000000003C0000
000F000000003C0000
00F1E0000001E3C000
00F1E0000001E3C000
00F1E0000001E3C000
000F1E00001E3C0000
000F1E00001E3C0000
000F1E00001E3C0000
000F1E00001E3C0000
0001E1E1E1E1E00000
0001E1E1E1E1E00000
0001E1E1E1E1E00000
0001E1E1E1E1E00000
00001E1E1E1E000000
00001E1E1E1E000000
00001E1E1E1E000000
00001E1E1E1E000000
000001E1E1E0000000
000001E1E1E0000000
000001E1E1E0000000
000001E1E1E0000000
ENDCHAR
STARTCHAR 00D9
ENCODING 217
SWIDTH 797 0
DWIDTH 62 0
BBX 50 82 6 0
BITMAP
0F1E0000000000
0F1E0000000000
0F1E0000000000
0F1E0000000000
00F1E000000000
00F1E000000000
00F1E000000000
00F1E000000000
001E1E00000000
001E1E00000000
001E1E00000000
001E1E00000000
0001E1E0000000
0001E1E0000000
0001E1E0000000
0001E1E0000000
00001E1E000000
00001E1E000000
00001E1E000000
00001E1E000000
00000000000000
00000000000000
00000000000000
00000000000000
F0F0000001E3C0
F0F0000001E3C0
F0F0000001E3C0
F0F0000001E3C0
0F000000001E00
0F000000001E00
0F000000001E00
F0F0000001E3C0
F0F0000001E3C0
F0F0000001E3C0
F0F0000001E3C0
0F000000001E00
0F000000001E00
0F000000001E00
0F000000001E00
F0F0000001E3C0
F0F0000001E3C0
F0F0000001E3C0
F0F0000001E3C0
0F000000001E00
0F000000001E00
0F000000001E00
0F000000001E00
F0F0000001E3C0
F0F0000001E3C0
F0F0000001E3C0
F0F0000001E3C0
0F000000001E00
0F000000001E00
0F000000001E00
0F000000001E00
F0F0000001E3C0
F0F0000001E3C0
F0F0000001E3C0
F0F0000001E3C0
0F000000001E00
0F000000001E00
0F000000001E00
0F000000001E00
F0F0000001E3C0
F0F0000001E3C0
F0F0000001E3C0
0F1E00001E1E00
0F1E00001E1E00
0F1E00001E1E00
0F1E00001E1E00
00F1E1E1E1E000
00F1E1E1E1E000
00F1E1E1E1E000
00F1E1E1E1E000
001E1E1E1E0000
001E1E1E1E0000
001E1E1E1E0000
001E1E1E1E0000
0001E1E1E00000
0001E1E1E00000
0001E1E1E00000
0001E1E1E00000
ENDCHAR
STARTCHAR 00DA
ENCODING 218
SWIDTH 797 0
DWIDTH 62 0
BBX 50 82 6 0
BITMAP
00000001E1E000
00000001E1E000
00000001E1E000
00000001E1E000
0000001E1E0000
0000001E1E0000
0000001E1E0000
0000001E1E0000
000001E1E00000
000001E1E00000
000001E1E00000
000001E1E00000
00001E1E000000
00001E1E000000
00001E1E000000
00001E1E000000
0001E1E0000000
0001E1E0000000
0001E1E0000000
0001E1E0000000
00000000000000
00000000000000
00000000000000
00000000000000
F0F0000001E3C0
F0F0000001E3C0
F0F0000001E3C0
F0F0000001E3C0
0F000000001E00
0F000000001E00
0F000000001E00
F0F0000001E3C0
F0F0000001E3C0
F0F0000001E3C0
F0F0000001E3C0
0F000000001E00
0F000000001E00
0F000000001E00
0F000000001E00
F0F0000001E3C0
F0F0000001E3C0
F0F0000001E3C0
F0F0000001E3C0
0F000000001E00
0F000000001E00
0F000000001E00
0F000000001E00
F0F0000001E3C0
F0F0000001E3C0
F0F0000001E3C0
F0F0000001E3C0
0F000000001E00
0F000000001E00
0F000000001E00
0F000000001E00
F0F0000001E3C0
F0F0000001E3C0
F0F0000001E3C0
F0F0000001E3C0
0F000000001E00
0F000000001E00
0F000000001E00
0F000000001E00
F0F0000001E3C0
F0F0000001E3C0
F0F0000001E3C0
0F1E00001E1E00
0F1E00001E1E00
0F1E00001E1E00
0F1E00001E1E00
00F1E1E1E1E000
00F1E1E1E1E000
00F1E1E1E1E000
00F1E1E1E1E000
001E1E1E1E0000
001E1E1E1E0000
001E1E1E1E0000
001E1E1E1E0000
0001E1E1E00000
0001E1E1E00000
0001E1E1E00000
0001E1E1E00000
ENDCHAR
STARTCHAR 00DB
ENCODING 219
SWIDTH 797 0
DWIDTH 62 0
BBX 50 82 6 0
BITMAP
00001E1E000000
00001E1E000000
00001E1E000000
00001E1E000000
0001E1E1E00000
0001E1E1E00000
0001E1E1E00000
0001E1E1E00000
001E1E1E1E0000
001E1E1E1E0000
001E1E1E1E0000
001E1E1E1E0000
0001E001E00000
0001E001E00000
0001E001E00000
0001E001E00000
001E1E1E1E0000
001E1E1E1E0000
001E1E1E1E0000
001E1E1E1E0000
00000000000000
00000000000000
00000000000000
00000000000000
F0F0000001E3C0
F0F0000001E3C0
F0F0000001E3C0
F0F0000001E3C0
0F000000001E00
0F000000001E00
0F000000001E00
F0F0000001E3C0
F0F0000001E3C0
F0F0000001E3C0
F0F0000001E3C0
0F000000001E00
0F000000001E00
0F000000001E00
0F000000001E00
F0F0000001E3C0
F0F0000001E3C0
F0F0000001E3C0
F0F0000001E3C0
0F000000001E00
0F000000001E00
0F000000001E00
0F000000001E00
F0F0000001E3C0
F0F0000001E3C0
F0F0000001E3C0
F0F0000001E3C0
0F000000001E00
0F000000001E00
0F000000001E00
0F000000001E00
F0F0000001E3C0
F0F0000001E3C0
F0F0000001E3C0
F0F0000001E3C0
0F000000001E00
0F000000001E00
0F000000001E00
0F000000001E00
F0F0000001E3C0
F0F0000001E3C0
F0F0000001E3C0
0F1E00001E1E00
0F1E00001E1E00
0F1E00001E1E00
0F1E00001E1E00
00F1E1E1E1E000
00F1E1E1E1E000
00F1E1E1E1E000
00F1E1E1E1E000
001E1E1E1E0000
001E1E1E1E0000
001E1E1E1E0000
001E1E1E1E0000
0001E1E1E00000
0001E1E1E00000
0001E1E1E00000
0001E1E1E00000
ENDCHAR
STARTCHAR 00DC
ENCODING 220
SWIDTH 797 0
DWIDTH 62 0
BBX 50 74 6 0
BITMAP
001E1E1E1E0000
001E1E1E1E0000
001E1E1E1E0000
001E1E1E1E0000
0001E001E00000
0001E001E00000
0001E001E00000
0001E001E00000
001E1E1E1E0000
001E1E1E1E0000
001E1E1E1E0000
001E1E1E1E0000
00000000000000
00000000000000
00000000000000
00000000000000
F0F0000001E3C0
F0F0000001E3C0
F0F0000001E3C0
F0F0000001E3C0
0F000000001E00
0F000000001E00
0F000000001E00
F0F0000001E3C0
F0F0000001E3C0
F0F0000001E3C0
F0F0000001E3C0
0F000000001E00
0F000000001E00
0F000000001E00
0F000000001E00
F0F0000001E3C0
F0F0000001E3C0
F0F0000001E3C0
F0F0000001E3C0
0F000000001E00
0F000000001E00
0F000000001E00
0F000000001E00
F0F0000001E3C0
F0F0000001E3C0
F0F0000001E3C0
F0F0000001E3C0
0F000000001E00
0F000000001E00
0F000000001E00
0F000000001E00
F0F0000001E3C0
F0F0000001E3C0
F0F0000001E3C0
F0F0000001E3C0
0F000000001E00
0F000000001E00
0F000000001E00
0F000000001E00
F0F0000001E3C0
F0F0000001E3C0
F0F0000001E3C0
0F1E00001E1E00
0F1E00001E1E00
0F1E00001E1E00
0F1E00001E1E00
00F1E1E1E1E000
00F1E1E1E1E000
00F1E1E1E1E000
00F1E1E1E1E000
001E1E1E1E0000
001E1E1E1E0000
001E1E1E1E0000
001E1E1E1E0000
0001E1E1E00000
0001E1E1E00000
0001E1E1E00000
0001E1E1E00000
ENDCHAR
STARTCHAR 00DD
ENCODING 221
SWIDTH 694 0
DWIDTH 54 0
BBX 43 82 6 0
BITMAP
0000001E1E00
0000001E1E00
0000001E1E00
0000001E1E00
000001E1E000
000001E1E000
000001E1E000
000001E1E000
00001E1E0000
00001E1E0000
00001E1E0000
00001E1E0000
0001E1E00000
0001E1E00000
0001E1E00000
0001E1E00000
001E1E000000
001E1E000000
001E1E000000
001E1E000000
000000000000
000000000000
000000000000
000000000000
F0F00001E1E0
F0F00001E1E0
F0F00001E1E0
F0F00001E1E0
0F0000001E00
0F0000001E00
0F0000001E00
F0F00001E1E0
F0F00001E1E0
F0F00001E1E0
F0F00001E1E0
0F0000001E00
0F0000001E00
0F0000001E00
0F0000001E00
F0F00001E1E0
F0F00001E1E0
F0F00001E1E0
F0F00001E1E0
0F0000001E00
0F0000001E00
0F0000001E00
0F0000001E00
F0F00001E1E0
F0F00001E1E0
F0F00001E1E0
F0F00001E1E0
0F1E001E1E00
0F1E001E1E00
0F1E001E1E00
0F1E001E1E00
00F1E1E1E000
00F1E1E1E000
00F1E1E1E000
00F1E1E1E000
001E1E1E0000
001E1E1E0000
001E1E1E0000
001E1E1E0000
0001E1E00000
0001E1E00000
0001E1E00000
00001E000000
00001E000000
00001E000000
00001E000000
0001E1E00000
0001E1E00000
0001E1E00000
0001E1E00000
00001E000000
00001E000000
00001E000000
00001E000000
0001E1E00000
0001E1E00000
0001E1E00000
0001E1E00000
ENDCHAR
STARTCHAR 00DE
ENCODING 222
SWIDTH 694 0
DWIDTH 54 0
BBX 43 58 6 0
BITMAP
F0F000000000
F0F000000000
F0F000000000
F0F000000000
0F0000000000
0F0000000000
0F0000000000
F0F1E1E1E000
F0F1E1E1E000
F0F1E1E1E000
F0F1E1E1E000
0F1E1E1E1E00
0F1E1E1E1E00
0F1E1E1E1E00
0F1E1E1E1E00
F0F1E1E1E1E0
F0F1E1E1E1E0
F0F1E1E1E1E0
F0F1E1E1E1E0
0F0000001E00
0F0000001E00
0F0000001E00
0F0000001E00
F0F00001E1E0
F0F00001E1E0
F0F00001E1E0
F0F00001E1E0
0F0000001E00
0F0000001E00
0F0000001E00
0F0000001E00
F0F00001E1E0
F0F00001E1E0
F0F00001E1E0
F0F00001E1E0
0F0000001E00
0F0000001E00
0F0000001E00
0F0000001E00
F0F1E1E1E1E0
F0F1E1E1E1E0
F0F1E1E1E1E0
0F1E1E1E1E00
0F1E1E1E1E00
0F1E1E1E1E00
0F1E1E1E1E00
F0F1E1E1E000
F0F1E1E1E000
F0F1E1E1E000
F0F1E1E1E000
0F0000000000
0F0000000000
0F0000000000
0F0000000000
F0F000000000
F0F000000000
F0F000000000
F0F000000000
ENDCHAR
STARTCHAR 00DF
ENCODING 223
SWIDTH 694 0
DWIDTH 54 0
BBX 43 58 6 0
BITMAP
00F1E1E1E000
00F1E1E1E000
00F1E1E1E000
00F1E1E1E000
0F1E1E1E1E00
0F1E1E1E1E00
0F1E1E1E1E00
F0F1E1E1E1E0
F0F1E1E1E1E0
F0F1E1E1E1E0
F0F1E1E1E1E0
0F0000001E00
0F0000001E00
0F0000001E00
0F0000001E00
F0F00001E1E0
F0F00001E1E0
F0F00001E1E0
F0F00001E1E0
0F00001E1E00
0F00001E1E00
0F00001E1E00
0F00001E1E00
F0F1E1E1E000
F0F1E1E1E000
F0F1E1E1E000
F0F1E1E1E000
0F001E1E1E00
0F001E1E1E00
0F001E1E1E00
0F001E1E1E00
F0F1E1E1E1E0
F0F1E1E1E1E0
F0F1E1E1E1E0
F0F1E1E1E1E0
0F0000001E00
0F0000001E00
0F0000001E00
0F0000001E00
F0F00001E1E0
F0F00001E1E0
F0F00001E1E0
0F0000001E00
0F0000001E00
0F0000001E00
0F0000001E00
F0F1E1E1E1E0
F0F1E1E1E1E0
F0F1E1E1E1E0
F0F1E1E1E1E0
0F001E1E1E00
0F001E1E1E00
0F001E1E1E00
0F001E1E1E00
F0F1E1E1E000
F0F1E1E1E000
F0F1E1E1E000
F0F1E1E1E000
ENDCHAR
STARTCHAR 00E0
ENCODING 224
SWIDTH 694 0
DWIDTH 54 0
BBX 43 82 6 0
BITMAP
F0F000000000
F0F000000000
F0F000000000
F0F000000000
0F1E00000000
0F1E00000000
0F1E00000000
0F1E00000000
00F1E0000000
00F1E0000000
00F1E0000000
00F1E0000000
001E1E000000
001E1E000000
001E1E000000
001E1E000000
0001E1E00000
0001E1E00000
0001E1E00000
0001E1E00000
000000000000
000000000000
000000000000
000000000000
00F1E1E1E000
00F1E1E1E000
00F1E1E1E000
00F1E1E1E000
0F1E1E1E1E00
0F1E1E1E1E00
0F1E1E1E1E00
F0F1E1E1E1E0
F0F1E1E1E1E0
F0F1E1E1E1E0
F0F1E1E1E1E0
0F0000001E00
0F0000001E00
0F0000001E00
0F0000001E00
F0F00001E1E0
F0F00001E1E0
F0F00001E1E0
F0F00001E1E0
0F0000001E00
0F0000001E00
0F0000001E00
0F0000001E00
F0F00001E1E0
F0F00001E1E0
F0F00001E1E0
F0F00001E1E0
0F0000001E00
0F0000001E00
0F0000001E00
0F0000001E00
F0F1E1E1E1E0
F0F1E1E1E1E0
F0F1E1E1E1E0
F0F1E1E1E1E0
0F1E1E1E1E00
0F1E1E1E1E00
0F1E1E1E1E00
0F1E1E1E1E00
F0F1E1E1E1E0
F0F1E1E1E1E0
F0F1E1E1E1E0
0F0000001E00
0F0000001E00
0F0000001E00
0F0000001E00
F0F00001E1E0
F0F00001E1E0
F0F00001E1E0
F0F00001E1E0
0F0000001E00
0F0000001E00
0F0000001E00
0F0000001E00
F0F00001E1E0
F0F00001E1E0
F0F00001E1E0
F0F00001E1E0
ENDCHAR
STARTCHAR 00E1
ENCODING 225
SWIDTH 694 0
DWIDTH 54 0
BBX 43 82 6 0
BITMAP
0000001E1E00
0000001E1E00
0000001E1E00
0000001E1E00
000001E1E000
000001E1E000
000001E1E000
000001E1E000
00001E1E0000
00001E1E0000
00001E1E0000
00001E1E0000
0001E1E00000
0001E1E00000
0001E1E00000
0001E1E00000
001E1E000000
001E1E000000
001E1E000000
001E1E000000
000000000000
000000000000
000000000000
000000000000
00F1E1E1E000
00F1E1E1E000
00F1E1E1E000
00F1E1E1E000
0F1E1E1E1E00
0F1E1E1E1E00
0F1E1E1E1E00
F0F1E1E1E1E0
F0F1E1E1E1E0
F0F1E1E1E1E0
F0F1E1E1E1E0
0F0000001E00
0F0000001E00
0F0000001E00
0F0000001E00
F0F00001E1E0
F0F00001E1E0
F0F00001E1E0
F0F00001E1E0
0F0000001E00
0F0000001E00
0F0000001E00
0F0000001E00
F0F00001E1E0
F0F00001E1E0
F0F00001E1E0
F0F00001E1E0
0F0000001E00
0F0000001E00
0F0000001E00
0F0000001E00
F0F1E1E1E1E0
F0F1E1E1E1E0
F0F1E1E1E1E0
F0F1E1E1E1E0
0F1E1E1E1E00
0F1E1E1E1E00
0F1E1E1E1E00
0F1E1E1E1E00
F0F1E1E1E1E0
F0F1E1E1E1E0
F0F1E1E1E1E0
0F0000001E00
0F0000001E00
0F0000001E00
0F0000001E00
F0F00001E1E0
F0F00001E1E0
F0F00001E1E0
F0F00001E1E0
0F0000001E00
0F0000001E00
0F0000001E00
0F0000001E00
F0F00001E1E0
F0F00001E1E0
F0F00001E1E0
F0F00001E1E0
ENDCHAR
STARTCHAR 00E2
ENCODING 226
SWIDTH 694 0
DWIDTH 54 0
BBX 43 82 6 0
BITMAP
0001E1E00000
0001E1E00000
0001E1E00000
0001E1E00000
001E1E1E0000
001E1E1E0000
001E1E1E0000
001E1E1E0000
00F1E1E1E000
00F1E1E1E000
00F1E1E1E000
00F1E1E1E000
001E001E0000
001E001E0000
001E001E0000
001E001E0000
00F1E1E1E000
00F1E1E1E000
00F1E1E1E000
00F1E1E1E000
000000000000
000000000000
000000000000
000000000000
00F1E1E1E000
00F1E1E1E000
00F1E1E1E000
00F1E1E1E000
0F1E1E1E1E00
0F1E1E1E1E00
0F1E1E1E1E00
F0F1E1E1E1E0
F0F1E1E1E1E0
F0F1E1E1E1E0
F0F1E1E1E1E0
0F0000001E00
0F0000001E00
0F0000001E00
0F0000001E00
F0F00001E1E0
F0F00001E1E0
F0F00001E1E0
F0F00001E1E0
0F0000001E00
0F0000001E00
0F0000001E00
0F0000001E00
F0F00001E1E0
F0F00001E1E0
F0F00001E1E0
F0F00001E1E0
0F0000001E00
0F0000001E00
0F0000001E00
0F0000001E00
F0F1E1E1E1E0
F0F1E1E1E1E0
F0F1E1E1E1E0
F0F1E1E1E1E0
0F1E1E1E1E00
0F1E1E1E1E00
0F1E1E1E1E00
0F1E1E1E1E00
F0F1E1E1E1E0
F0F1E1E1E1E0
F0F1E1E1E1E0
0F0000001E00
0F0000001E00
0F0000001E00
0F0000001E00
F0F00001E1E0
F0F00001E1E0
F0F00001E1E0
F0F00001E1E0
0F0000001E00
0F0000001E00
0F0000001E00
0F0000001E00
F0F00001E1E0
F0F00001E1E0
F0F00001E1E0
F0F00001E1E0
ENDCHAR
STARTCHAR 00E3
ENCODING 227
SWIDTH 694 0
DWIDTH 54 0
BBX 43 82 6 0
BITMAP
00F1E001E1E0
00F1E001E1E0
00F1E001E1E0
00F1E001E1E0
0F1E1E001E00
0F1E1E001E00
0F1E1E001E00
0F1E1E001E00
F0F1E1E1E1E0
F0F1E1E1E1E0
F0F1E1E1E1E0
F0F1E1E1E1E0
0F001E1E1E00
0F001E1E1E00
0F001E1E1E00
0F001E1E1E00
F0F001E1E000
F0F001E1E000
F0F001E1E000
F0F001E1E000
000000000000
000000000000
000000000000
000000000000
00F1E1E1E000
00F1E1E1E000
00F1E1E1E000
00F1E1E1E000
0F1E1E1E1E00
0F1E1E1E1E00
0F1E1E1E1E00
F0F1E1E1E1E0
F0F1E1E1E1E0
F0F1E1E1E1E0
F0F1E1E1E1E0
0F0000001E00
0F0000001E00
0F0000001E00
0F0000001E00
F0F00001E1E0
F0F00001E1E0
F0F00001E1E0
F0F00001E1E0
0F0000001E00
0F0000001E00
0F0000001E00
0F0000001E00
F0F00001E1E0
F0F00001E1E0
F0F00001E1E0
F0F00001E1E0
0F0000001E00
0F0000001E00
0F0000001E00
0F0000001E00
F0F1E1E1E1E0
F0F1E1E1E1E0
F0F1E1E1E1E0
F0F1E1E1E1E0
0F1E1E1E1E00
0F1E1E1E1E00
0F1E1E1E1E00
0F1E1E1E1E00
F0F1E1E1E1E0
F0F1E1E1E1E0
F0F1E1E1E1E0
0F0000001E00
0F0000001E00
0F0000001E00
0F0000001E00
F0F00001E1E0
F0F00001E1E0
F0F00001E1E0
F0F00001E1E0
0F0000001E00
0F0000001E00
0F0000001E00
0F0000001E00
F0F00001E1E0
F0F00001E1E0
F0F00001E1E0
F0F00001E1E0
ENDCHAR
STARTCHAR 00E4
ENCODING 228
SWIDTH 694 0
DWIDTH 54 0
BBX 43 74 6 0
BITMAP
00F1E1E1E000
00F1E1E1E000
00F1E1E1E000
00F1E1E1E000
001E001E0000
001E001E0000
001E001E0000
001E001E0000
00F1E1E1E000
00F1E1E1E000
00F1E1E1E000
00F1E1E1E000
000000000000
000000000000
000000000000
000000000000
00F1E1E1E000
00F1E1E1E000
00F1E1E1E000
00F1E1E1E000
0F1E1E1E1E00
0F1E1E1E1E00
0F1E1E1E1E00
F0F1E1E1E1E0
F0F1E1E1E1E0
F0F1E1E1E1E0
F0F1E1E1E1E0
0F0000001E00
0F0000001E00
0F0000001E00
0F0000001E00
F0F00001E1E0
F0F00001E1E0
F0F00001E1E0
F0F00001E1E0
0F0000001E00
0F0000001E00
0F0000001E00
0F0000001E00
F0F00001E1E0
F0F00001E1E0
F0F00001E1E0
F0F00001E1E0
0F0000001E00
0F0000001E00
0F0000001E00
0F0000001E00
F0F1E1E1E1E0
F0F1E1E1E1E0
F0F1E1E1E1E0
F0F1E1E1E1E0
0F1E1E1E1E00
0F1E1E1E1E00
0F1E1E1E1E00
0F1E1E1E1E00
F0F1E1E1E1E0
F0F1E1E1E1E0
F0F1E1E1E1E0
0F0000001E00
0F0000001E00
0F0000001E00
0F0000001E00
F0F00001E1E0
F0F00001E1E0
F0F00001E1E0
F0F00001E1E0
0F0000001E00
0F0000001E00
0F0000001E00
0F0000001E00
F0F00001E1E0
F0F00001E1E0
F0F00001E1E0
F0F00001E1E0
ENDCHAR
STARTCHAR 00E5
ENCODING 229
SWIDTH 694 0
DWIDTH 54 0
BBX 43 97 6 0
BITMAP
001E1E1E0000
001E1E1E0000
001E1E1E0000
001E1E1E0000
00F1E1E1E000
00F1E1E1E000
00F1E1E1E000
00F1E1E1E000
0F1E1E1E1E00
0F1E1E1E1E00
0F1E1E1E1E00
00F00001E000
00F00001E000
00F00001E000
00F00001E000
0F1E001E1E00
0F1E001E1E00
0F1E001E1E00
0F1E001E1E00
00F00001E000
00F00001E000
00F00001E000
00F00001E000
0F1E1E1E1E00
0F1E1E1E1E00
0F1E1E1E1E00
0F1E1E1E1E00
00F1E1E1E000
00F1E1E1E000
00F1E1E1E000
00F1E1E1E000
001E1E1E0000
001E1E1E0000
001E1E1E0000
001E1E1E0000
000000000000
000000000000
000000000000
000000000000
00F1E1E1E000
00F1E1E1E000
00F1E1E1E000
00F1E1E1E000
0F1E1E1E1E00
0F1E1E1E1E00
0F1E1E1E1E00
F0F1E1E1E1E0
F0F1E1E1E1E0
F0F1E1E1E1E0
F0F1E1E1E1E0
0F0000001E00
0F0000001E00
0F0000001E00
0F0000001E00
F0F00001E1E0
F0F00001E1E0
F0F00001E1E0
F0F00001E1E0
0F0000001E00
0F0000001E00
0F0000001E00
0F0000001E00
F0F00001E1E0
F0F00001E1E0
F0F00001E1E0
F0F00001E1E0
0F0000001E00
0F0000001E00
0F0000001E00
0F0000001E00
F0F1E1E1E1E0
F0F1E1E1E1E0
F0F1E1E1E1E0
F0F1E1E1E1E0
0F1E1E1E1E00
0F1E1E1E1E00
0F1E1E1E1E00
0F1E1E1E1E00
F0F1E1E1E1E0
F0F1E1E1E1E0
F0F1E1E1E1E0
0F0000001E00
0F0000001E00
0F0000001E00
0F0000001E00
F0F00001E1E0
F0F00001E1E0
F0F00001E1E0
F0F00001E1E0
0F0000001E00
0F0000001E00
0F0000001E00
0F0000001E00
F0F00001E1E0
F0F00001E1E0
F0F00001E1E0
F0F00001E1E0
ENDCHAR
STARTCHAR 00E6
ENCODING 230
SWIDTH 1092 0
DWIDTH 85 0
BBX 74 58 6 0
BITMAP
00F1E1E1E1E3C3C3C3C0
00F1E1E1E1E3C3C3C3C0
00F1E1E1E1E3C3C3C3C0
00F1E1E1E1E3C3C3C3C0
0F1E1E1E1E1E3C3C3C00
0F1E1E1E1E1E3C3C3C00
0F1E1E1E1E1E3C3C3C00
F0F1E1E1E1E3C3C3C3C0
F0F1E1E1E1E3C3C3C3C0
F0F1E1E1E1E3C3C3C3C0
F0F1E1E1E1E3C3C3C3C0
0F0000001E0000000000
0F0000001E0000000000
0F0000001E0000000000
0F0000001E0000000000
F0F00001E1E000000000
F0F00001E1E000000000
F0F00001E1E000000000
F0F00001E1E000000000
0F0000001E0000000000
0F0000001E0000000000
0F0000001E0000000000
0F0000001E0000000000
F0F00001E1E3C3C3C000
F0F00001E1E3C3C3C000
F0F00001E1E3C3C3C000
F0F00001E1E3C3C3C000
0F0000001E1E3C3C0000
0F0000001E1E3C3C0000
0F0000001E1E3C3C0000
0F0000001E1E3C3C0000
F0F1E1E1E1E3C3C3C000
F0F1E1E1E1E3C3C3C000
F0F1E1E1E1E3C3C3C000
F0F1E1E1E1E3C3C3C000
0F1E1E1E1E0000000000
0F1E1E1E1E0000000000
0F1E1E1E1E0000000000
0F1E1E1E1E0000000000
F0F1E1E1E1E000000000
F0F1E1E1E1E000000000
F0F1E1E1E1E000000000
0F0000001E0000000000
0F0000001E0000000000
0F0000001E0000000000
0F0000001E0000000000
F0F00001E1E3C3C3C3C0
F0F00001E1E3C3C3C3C0
F0F00001E1E3C3C3C3C0
F0F00001E1E3C3C3C3C0
0F0000001E1E3C3C3C00
0F0000001E1E3C3C3C00
0F0000001E1E3C3C3C00
0F0000001E1E3C3C3C00
F0F0000001E3C3C3C3C0
F0F0000001E3C3C3C3C0
F0F0000001E3C3C3C3C0
F0F0000001E3C3C3C3C0
ENDCHAR
STARTCHAR 00E7
ENCODING 231
SWIDTH 694 0
DWIDTH 54 0
BBX 43 74 6 -16
BITMAP
00F1E1E1E000
00F1E1E1E000
00F1E1E1E000
00F1E1E1E000
0F1E1E1E1E00
0F1E1E1E1E00
0F1E1E1E1E00
F0F1E1E1E1E0
F0F1E1E1E1E0
F0F1E1E1E1E0
F0F1E1E1E1E0
0F0000001E00
0F0000001E00
0F0000001E00
0F0000001E00
F0F00001E1E0
F0F00001E1E0
F0F00001E1E0
F0F00001E1E0
0F0000001E00
0F0000001E00
0F0000001E00
0F0000001E00
F0F00001E1E0
F0F00001E1E0
F0F00001E1E0
F0F00001E1E0
0F0000000000
0F0000000000
0F0000000000
0F0000000000
F0F000000000
F0F000000000
F0F000000000
F0F000000000
0F0000000000
0F0000000000
0F0000000000
0F0000000000
F0F00001E1E0
F0F00001E1E0
F0F00001E1E0
0F0000001E00
0F0000001E00
0F0000001E00
0F0000001E00
F0F1E1E1E1E0
F0F1E1E1E1E0
F0F1E1E1E1E0
F0F1E1E1E1E0
0F1E1E1E1E00
0F1E1E1E1E00
0F1E1E1E1E00
0F1E1E1E1E00
00F1E1E1E000
00F1E1E1E000
00F1E1E1E000
00F1E1E1E000
00001E000000
00001E000000
00001E000000
00001E000000
00F1E1E00000
00F1E1E00000
00F1E1E00000
00F1E1E00000
001E1E000000
001E1E000000
001E1E000000
001E1E000000
00F1E0000000
00F1E0000000
00F1E0000000
00F1E0000000
ENDCHAR
STARTCHAR 00E8
ENCODING 232
SWIDTH 694 0
DWIDTH 54 0
BBX 43 82 6 0
BITMAP
F0F000000000
F0F000000000
F0F000000000
F0F000000000
0F1E00000000
0F1E00000000
0F1E00000000
0F1E00000000
00F1E0000000
00F1E0000000
00F1E0000000
00F1E0000000
001E1E000000
001E1E000000
001E1E000000
001E1E000000
0001E1E00000
0001E1E00000
0001E1E00000
0001E1E00000
000000000000
000000000000
000000000000
000000000000
00F1E1E1E1E0
00F1E1E1E1E0
00F1E1E1E1E0
00F1E1E1E1E0
0F1E1E1E1E00
0F1E1E1E1E00
0F1E1E1E1E00
F0F1E1E1E1E0
F0F1E1E1E1E0
F0F1E1E1E1E0
F0F1E1E1E1E0
0F0000000000
0F0000000000
0F0000000000
0F0000000000
F0F000000000
F0F000000000
F0F000000000
F0F000000000
0F0000000000
0F0000000000
0F0000000000
0F0000000000
F0F1E1E1E000
F0F1E1E1E000
F0F1E1E1E000
F0F1E1E1E000
0F1E1E1E0000
0F1E1E1E0000
0F1E1E1E0000
0F1E1E1E0000
F0F1E1E1E000
F0F1E1E1E000
F0F1E1E1E000
F0F1E1E1E000
0F0000000000
0F0000000000
0F0000000000
0F0000000000
F0F000000000
F0F000000000
F0F000000000
0F0000000000
0F0000000000
0F0000000000
0F0000000000
F0F1E1E1E1E0
F0F1E1E1E1E0
F0F1E1E1E1E0
F0F1E1E1E1E0
0F1E1E1E1E00
0F1E1E1E1E00
0F1E1E1E1E00
0F1E1E1E1E00
00F1E1E1E1E0
00F1E1E1E1E0
00F1E1E1E1E0
00F1E1E1E1E0
ENDCHAR
STARTCHAR 00E9
ENCODING 233
SWIDTH 694 0
DWIDTH 54 0
BBX 43 82 6 0
BITMAP
0000001E1E00
0000001E1E00
0000001E1E00
0000001E1E00
000001E1E000
000001E1E000
000001E1E000
000001E1E000
00001E1E0000
00001E1E0000
00001E1E0000
00001E1E0000
0001E1E00000
0001E1E00000
0001E1E00000
0001E1E00000
001E1E000000
001E1E000000
001E1E000000
001E1E000000
000000000000
000000000000
000000000000
000000000000
00F1E1E1E1E0
00F1E1E1E1E0
00F1E1E1E1E0
00F1E1E1E1E0
0F1E1E1E1E00
0F1E1E1E1E00
0F1E1E1E1E00
F0F1E1E1E1E0
F0F1E1E1E1E0
F0F1E1E1E1E0
F0F1E1E1E1E0
0F0000000000
0F0000000000
0F0000000000
0F0000000000
F0F000000000
F0F000000000
F0F000000000
F0F000000000
0F0000000000
0F0000000000
0F0000000000
0F0000000000
F0F1E1E1E000
F0F1E1E1E000
F0F1E1E1E000
F0F1E1E1E000
0F1E1E1E0000
0F1E1E1E0000
0F1E1E1E0000
0F1E1E1E0000
F0F1E1E1E000
F0F1E1E1E000
F0F1E1E1E000
F0F1E1E1E000
0F0000000000
0F0000000000
0F0000000000
0F0000000000
F0F000000000
F0F000000000
F0F000000000
0F0000000000
0F0000000000
0F0000000000
0F0000000000
F0F1E1E1E1E0
F0F1E1E1E1E0
F0F1E1E1E1E0
F0F1E1E1E1E0
0F1E1E1E1E00
0F1E1E1E1E00
0F1E1E1E1E00
0F1E1E1E1E00
00F1E1E1E1E0
00F1E1E1E1E0
00F1E1E1E1E0
00F1E1E1E1E0
ENDCHAR
STARTCHAR 00EA
ENCODING 234
SWIDTH 694 0
DWIDTH 54 0
BBX 43 82 6 0
BITMAP
0001E1E00000
0001E1E00000
0001E1E00000
0001E1E00000
001E1E1E0000
001E1E1E0000
001E1E1E0000
001E1E1E0000
00F1E1E1E000
00F1E1E1E000
00F1E1E1E000
00F1E1E1E000
001E001E0000
001E001E0000
001E001E0000
001E001E0000
00F1E1E1E000
00F1E1E1E000
00F1E1E1E000
00F1E1E1E000
000000000000
000000000000
000000000000
000000000000
00F1E1E1E1E0
00F1E1E1E1E0
00F1E1E1E1E0
00F1E1E1E1E0
0F1E1E1E1E00
0F1E1E1E1E00
0F1E1E1E1E00
F0F1E1E1E1E0
F0F1E1E1E1E0
F0F1E1E1E1E0
F0F1E1E1E1E0
0F0000000000
0F0000000000
0F0000000000
0F0000000000
F0F000000000
F0F000000000
F0F000000000
F0F000000000
0F0000000000
0F0000000000
0F0000000000
0F0000000000
F0F1E1E1E000
F0F1E1E1E000
F0F1E1E1E000
F0F1E1E1E000
0F1E1E1E0000
0F1E1E1E0000
0F1E1E1E0000
0F1E1E1E0000
F0F1E1E1E000
F0F1E1E1E000
F0F1E1E1E000
F0F1E1E1E000
0F0000000000
0F0000000000
0F0000000000
0F0000000000
F0F000000000
F0F000000000
F0F000000000
0F0000000000
0F0000000000
0F0000000000
0F0000000000
F0F1E1E1E1E0
F0F1E1E1E1E0
F0F1E1E1E1E0
F0F1E1E1E1E0
0F1E1E1E1E00
0F1E1E1E1E00
0F1E1E1E1E00
0F1E1E1E1E00
00F1E1E1E1E0
00F1E1E1E1E0
00F1E1E1E1E0
00F1E1E1E1E0
ENDCHAR
STARTCHAR 00EB
ENCODING 235
SWIDTH 694 0
DWIDTH 54 0
BBX 43 74 6 0
BITMAP
00F1E1E1E000
00F1E1E1E000
00F1E1E1E000
00F1E1E1E000
001E001E0000
001E001E0000
001E001E0000
001E001E0000
00F1E1E1E000
00F1E1E1E000
00F1E1E1E000
00F1E1E1E000
000000000000
000000000000
000000000000
000000000000
00F1E1E1E1E0
00F1E1E1E1E0
00F1E1E1E1E0
00F1E1E1E1E0
0F1E1E1E1E00
0F1E1E1E1E00
0F1E1E1E1E00
F0F1E1E1E1E0
F0F1E1E1E1E0
F0F1E1E1E1E0
F0F1E1E1E1E0
0F0000000000
0F0000000000
0F0000000000
0F0000000000
F0F000000000
F0F000000000
F0F000000000
F0F000000000
0F0000000000
0F0000000000
0F0000000000
0F0000000000
F0F1E1E1E000
F0F1E1E1E000
F0F1E1E1E000
F0F1E1E1E000
0F1E1E1E0000
0F1E1E1E0000
0F1E1E1E0000
0F1E1E1E0000
F0F1E1E1E000
F0F1E1E1E000
F0F1E1E1E000
F0F1E1E1E000
0F0000000000
0F0000000000
0F0000000000
0F0000000000
F0F000000000
F0F000000000
F0F000000000
0F0000000000
0F0000000000
0F0000000000
0F0000000000
F0F1E1E1E1E0
F0F1E1E1E1E0
F0F1E1E1E1E0
F0F1E1E1E1E0
0F1E1E1E1E00
0F1E1E1E1E00
0F1E1E1E1E00
0F1E1E1E1E00
00F1E1E1E1E0
00F1E1E1E1E0
00F1E1E1E1E0
00F1E1E1E1E0
ENDCHAR
STARTCHAR 00EC
ENCODING 236
SWIDTH 295 0
DWIDTH 23 0
BBX 28 82 -10 0
BITMAP
F0F00000
F0F00000
F0F00000
F0F00000
0F0F0000
0F0F0000
0F0F0000
0F0F0000
00F0F000
00F0F000
00F0F000
00F0F000
000F0F00
000F0F00
000F0F00
000F0F00
0000F0F0
0000F0F0
0000F0F0
0000F0F0
00000000
00000000
00000000
00000000
0000F0F0
0000F0F0
0000F0F0
0000F0F0
00000F00
00000F00
00000F00
0000F0F0
0000F0F0
0000F0F0
0000F0F0
00000F00
00000F00
00000F00
00000F00
0000F0F0
0000F0F0
0000F0F0
0000F0F0
00000F00
00000F00
00000F00
00000F00
0000F0F0
0000F0F0
0000F0F0
0000F0F0
00000F00
00000F00
00000F00
00000F00
0000F0F0
0000F0F0
0000F0F0
0000F0F0
00000F00
00000F00
00000F00
00000F00
0000F0F0
0000F0F0
0000F0F0
00000F00
00000F00
00000F00
00000F00
0000F0F0
0000F0F0
0000F0F0
0000F0F0
00000F00
00000F00
00000F00
00000F00
0000F0F0
0000F0F0
0000F0F0
0000F0F0
ENDCHAR
STARTCHAR 00ED
ENCODING 237
SWIDTH 295 0
DWIDTH 23 0
BBX 27 82 2 0
BITMAP
0001E1E0
0001E1E0
0001E1E0
0001E1E0
000F1E00
000F1E00
000F1E00
000F1E00
00F1E000
00F1E000
00F1E000
00F1E000
0F0F0000
0F0F0000
0F0F0000
0F0F0000
F0F00000
F0F00000
F0F00000
F0F00000
00000000
00000000
00000000
00000000
0F0F0000
0F0F0000
0F0F0000
0F0F0000
00F00000
00F00000
00F00000
0F0F0000
0F0F0000
0F0F0000
0F0F0000
00F00000
00F00000
00F00000
00F00000
0F0F0000
0F0F0000
0F0F0000
0F0F0000
00F00000
00F00000
00F00000
00F00000
0F0F0000
0F0F0000
0F0F0000
0F0F0000
00F00000
00F00000
00F00000
00F00000
0F0F0000
0F0F0000
0F0F0000
0F0F0000
00F00000
00F00000
00F00000
00F00000
0F0F0000
0F0F0000
0F0F0000
00F00000
00F00000
00F00000
00F00000
0F0F0000
0F0F0000
0F0F0000
0F0F0000
00F00000
00F00000
00F00000
00F00000
0F0F0000
0F0F0000
0F0F0000
0F0F0000
ENDCHAR
STARTCHAR 00EE
ENCODING 238
SWIDTH 295 0
DWIDTH 23 0
BBX 27 82 -2 0
BITMAP
00F0F000
00F0F000
00F0F000
00F0F000
0F0F1E00
0F0F1E00
0F0F1E00
0F0F1E00
F0F0F1E0
F0F0F1E0
F0F0F1E0
F0F0F1E0
0F001E00
0F001E00
0F001E00
0F001E00
F0F0F1E0
F0F0F1E0
F0F0F1E0
F0F0F1E0
00000000
00000000
00000000
00000000
00F0F000
00F0F000
00F0F000
00F0F000
000F0000
000F0000
000F0000
00F0F000
00F0F000
00F0F000
00F0F000
000F0000
000F0000
000F0000
000F0000
00F0F000
00F0F000
00F0F000
00F0F000
000F0000
000F0000
000F0000
000F0000
00F0F000
00F0F000
00F0F000
00F0F000
000F0000
000F0000
000F0000
000F0000
00F0F000
00F0F000
00F0F000
00F0F000
000F0000
000F0000
000F0000
000F0000
00F0F000
00F0F000
00F0F000
000F0000
000F0000
000F0000
000F0000
00F0F000
00F0F000
00F0F000
00F0F000
000F0000
000F0000
000F0000
000F0000
00F0F000
00F0F000
00F0F000
00F0F000
ENDCHAR
STARTCHAR 00EF
ENCODING 239
SWIDTH 295 0
DWIDTH 23 0
BBX 27 74 -2 0
BITMAP
F0F0F1E0
F0F0F1E0
F0F0F1E0
F0F0F1E0
0F001E00
0F001E00
0F001E00
0F001E00
F0F0F1E0
F0F0F1E0
F0F0F1E0
F0F0F1E0
00000000
00000000
00000000
00000000
00F0F000
00F0F000
00F0F000
00F0F000
000F0000
000F0000
000F0000
00F0F000
00F0F000
00F0F000
00F0F000
000F0000
000F0000
000F0000
000F0000
00F0F000
00F0F000
00F0F000
00F0F000
000F0000
000F0000
000F0000
000F0000
00F0F000
00F0F000
00F0F000
00F0F000
000F0000
000F0000
000F0000
000F0000
00F0F000
00F0F000
00F0F000
00F0F000
000F0000
000F0000
000F0000
000F0000
00F0F000
00F0F000
00F0F000
000F0000
000F0000
000F0000
000F0000
00F0F000
00F0F000
00F0F000
00F0F000
000F0000
000F0000
000F0000
000F0000
00F0F000
00F0F000
00F0F000
00F0F000
ENDCHAR
STARTCHAR 00F0
ENCODING 240
SWIDTH 745 0
DWIDTH 58 0
BBX 51 58 2 0
BITMAP
00F1E1E1E1E000
00F1E1E1E1E000
00F1E1E1E1E000
00F1E1E1E1E000
000F1E1E1E1E00
000F1E1E1E1E00
000F1E1E1E1E00
00F1E1E1E1E1E0
00F1E1E1E1E1E0
00F1E1E1E1E1E0
00F1E1E1E1E1E0
000F0000001E00
000F0000001E00
000F0000001E00
000F0000001E00
00F1E00001E1E0
00F1E00001E1E0
00F1E00001E1E0
00F1E00001E1E0
000F0000001E00
000F0000001E00
000F0000001E00
000F0000001E00
F0F1E1E001E1E0
F0F1E1E001E1E0
F0F1E1E001E1E0
F0F1E1E001E1E0
0F0F1E00001E00
0F0F1E00001E00
0F0F1E00001E00
0F0F1E00001E00
F0F1E1E001E1E0
F0F1E1E001E1E0
F0F1E1E001E1E0
F0F1E1E001E1E0
000F0000001E00
000F0000001E00
000F0000001E00
000F0000001E00
00F1E00001E1E0
00F1E00001E1E0
00F1E00001E1E0
000F0000001E00
000F0000001E00
000F0000001E00
000F0000001E00
00F1E1E1E1E1E0
00F1E1E1E1E1E0
00F1E1E1E1E1E0
00F1E1E1E1E1E0
000F1E1E1E1E00
000F1E1E1E1E00
000F1E1E1E1E00
000F1E1E1E1E00
00F1E1E1E1E000
00F1E1E1E1E000
00F1E1E1E1E000
00F1E1E1E1E000
ENDCHAR
STARTCHAR 00F1
ENCODING 241
SWIDTH 694 0
DWIDTH 54 0
BBX 43 82 6 0
BITMAP
00F1E001E1E0
00F1E001E1E0
00F1E001E1E0
00F1E001E1E0
0F1E1E001E00
0F1E1E001E00
0F1E1E001E00
0F1E1E001E00
F0F1E1E1E1E0
F0F1E1E1E1E0
F0F1E1E1E1E0
F0F1E1E1E1E0
0F001E1E1E00
0F001E1E1E00
0F001E1E1E00
0F001E1E1E00
F0F001E1E000
F0F001E1E000
F0F001E1E000
F0F001E1E000
000000000000
000000000000
000000000000
000000000000
F0F00001E1E0
F0F00001E1E0
F0F00001E1E0
F0F00001E1E0
0F1E00001E00
0F1E00001E00
0F1E00001E00
F0F1E001E1E0
F0F1E001E1E0
F0F1E001E1E0
F0F1E001E1E0
0F1E1E001E00
0F1E1E001E00
0F1E1E001E00
0F1E1E001E00
F0F1E1E1E1E0
F0F1E1E1E1E0
F0F1E1E1E1E0
F0F1E1E1E1E0
0F001E1E1E00
0F001E1E1E00
0F001E1E1E00
0F001E1E1E00
F0F001E1E1E0
F0F001E1E1E0
F0F001E1E1E0
F0F001E1E1E0
0F00001E1E00
0F00001E1E00
0F00001E1E00
0F00001E1E00
F0F00001E1E0
F0F00001E1E0
F0F00001E1E0
F0F00001E1E0
0F0000001E00
0F0000001E00
0F0000001E00
0F0000001E00
F0F00001E1E0
F0F00001E1E0
F0F00001E1E0
0F0000001E00
0F0000001E00
0F0000001E00
0F0000001E00
F0F00001E1E0
F0F00001E1E0
F0F00001E1E0
F0F00001E1E0
0F0000001E00
0F0000001E00
0F0000001E00
0F0000001E00
F0F00001E1E0
F0F00001E1E0
F0F00001E1E0
F0F00001E1E0
ENDCHAR
STARTCHAR 00F2
ENCODING 242
SWIDTH 694 0
DWIDTH 54 0
BBX 43 82 6 0
BITMAP
F0F000000000
F0F000000000
F0F000000000
F0F000000000
0F1E00000000
0F1E00000000
0F1E00000000
0F1E00000000
00F1E0000000
00F1E0000000
00F1E0000000
00F1E0000000
001E1E000000
001E1E000000
001E1E000000
001E1E000000
0001E1E00000
0001E1E00000
0001E1E00000
0001E1E00000
000000000000
000000000000
000000000000
000000000000
00F1E1E1E000
00F1E1E1E000
00F1E1E1E000
00F1E1E1E000
0F1E1E1E1E00
0F1E1E1E1E00
0F1E1E1E1E00
F0F1E1E1E1E0
F0F1E1E1E1E0
F0F1E1E1E1E0
F0F1E1E1E1E0
0F0000001E00
0F0000001E00
0F0000001E00
0F0000001E00
F0F00001E1E0
F0F00001E1E0
F0F00001E1E0
F0F00001E1E0
0F0000001E00
0F0000001E00
0F0000001E00
0F0000001E00
F0F00001E1E0
F0F00001E1E0
F0F00001E1E0
F0F00001E1E0
0F0000001E00
0F0000001E00
0F0000001E00
0F0000001E00
F0F00001E1E0
F0F00001E1E0
F0F00001E1E0
F0F00001E1E0
0F0000001E00
0F0000001E00
0F0000001E00
0F0000001E00
F0F00001E1E0
F0F00001E1E0
F0F00001E1E0
0F0000001E00
0F0000001E00
0F0000001E00
0F0000001E00
F0F1E1E1E1E0
F0F1E1E1E1E0
F0F1E1E1E1E0
F0F1E1E1E1E0
0F1E1E1E1E00
0F1E1E1E1E00
0F1E1E1E1E00
0F1E1E1E1E00
00F1E1E1E000
00F1E1E1E000
00F1E1E1E000
00F1E1E1E000
ENDCHAR
STARTCHAR 00F3
ENCODING 243
SWIDTH 694 0
DWIDTH 54 0
BBX 43 82 6 0
BITMAP
0000001E1E00
0000001E1E00
0000001E1E00
0000001E1E00
000001E1E000
000001E1E000
000001E1E000
000001E1E000
00001E1E0000
00001E1E0000
00001E1E0000
00001E1E0000
0001E1E00000
0001E1E00000
0001E1E00000
0001E1E00000
001E1E000000
001E1E000000
001E1E000000
001E1E000000
000000000000
000000000000
000000000000
000000000000
00F1E1E1E000
00F1E1E1E000
00F1E1E1E000
00F1E1E1E000
0F1E1E1E1E00
0F1E1E1E1E00
0F1E1E1E1E00
F0F1E1E1E1E0
F0F1E1E1E1E0
F0F1E1E1E1E0
F0F1E1E1E1E0
0F0000001E00
0F0000001E00
0F0000001E00
0F0000001E00
F0F00001E1E0
F0F00001E1E0
F0F00001E1E0
F0F00001E1E0
0F0000001E00
0F0000001E00
0F0000001E00
0F0000001E00
F0F00001E1E0
F0F00001E1E0
F0F00001E1E0
F0F00001E1E0
0F0000001E00
0F0000001E00
0F0000001E00
0F0000001E00
F0F00001E1E0
F0F00001E1E0
F0F00001E1E0
F0F00001E1E0
0F0000001E00
0F0000001E00
0F0000001E00
0F0000001E00
F0F00001E1E0
F0F00001E1E0
F0F00001E1E0
0F0000001E00
0F0000001E00
0F0000001E00
0F0000001E00
F0F1E1E1E1E0
F0F1E1E1E1E0
F0F1E1E1E1E0
F0F1E1E1E1E0
0F1E1E1E1E00
0F1E1E1E1E00
0F1E1E1E1E00
0F1E1E1E1E00
00F1E1E1E000
00F1E1E1E000
00F1E1E1E000
00F1E1E1E000
ENDCHAR
STARTCHAR 00F4
ENCODING 244
SWIDTH 694 0
DWIDTH 54 0
BBX 43 82 6 0
BITMAP
0001E1E00000
0001E1E00000
0001E1E00000
0001E1E00000
001E1E1E0000
001E1E1E0000
001E1E1E0000
001E1E1E0000
00F1E1E1E000
00F1E1E1E000
00F1E1E1E000
00F1E1E1E000
001E001E0000
001E001E0000
001E001E0000
001E001E0000
00F1E1E1E000
00F1E1E1E000
00F1E1E1E000
00F1E1E1E000
000000000000
000000000000
000000000000
000000000000
00F1E1E1E000
00F1E1E1E000
00F1E1E1E000
00F1E1E1E000
0F1E1E1E1E00
0F1E1E1E1E00
0F1E1E1E1E00
F0F1E1E1E1E0
F0F1E1E1E1E0
F0F1E1E1E1E0
F0F1E1E1E1E0
0F0000001E00
0F0000001E00
0F0000001E00
0F0000001E00
F0F00001E1E0
F0F00001E1E0
F0F00001E1E0
F0F00001E1E0
0F0000001E00
0F0000001E00
0F0000001E00
0F0000001E00
F0F00001E1E0
F0F00001E1E0
F0F00001E1E0
F0F00001E1E0
0F0000001E00
0F0000001E00
0F0000001E00
0F0000001E00
F0F00001E1E0
F0F00001E1E0
F0F00001E1E0
F0F00001E1E0
0F0000001E00
0F0000001E00
0F0000001E00
0F0000001E00
F0F00001E1E0
F0F00001E1E0
F0F00001E1E0
0F0000001E00
0F0000001E00
0F0000001E00
0F0000001E00
F0F1E1E1E1E0
F0F1E1E1E1E0
F0F1E1E1E1E0
F0F1E1E1E1E0
0F1E1E1E1E00
0F1E1E1E1E00
0F1E1E1E1E00
0F1E1E1E1E00
00F1E1E1E000
00F1E1E1E000
00F1E1E1E000
00F1E1E1E000
ENDCHAR
STARTCHAR 00F5
ENCODING 245
SWIDTH 694 0
DWIDTH 54 0
BBX 43 82 6 0
BITMAP
00F1E001E1E0
00F1E001E1E0
00F1E001E1E0
00F1E001E1E0
0F1E1E001E00
0F1E1E001E00
0F1E1E001E00
0F1E1E001E00
F0F1E1E1E1E0
F0F1E1E1E1E0
F0F1E1E1E1E0
F0F1E1E1E1E0
0F001E1E1E00
0F001E1E1E00
0F001E1E1E00
0F001E1E1E00
F0F001E1E000
F0F001E1E000
F0F001E1E000
F0F001E1E000
000000000000
000000000000
000000000000
000000000000
00F1E1E1E000
00F1E1E1E000
00F1E1E1E000
00F1E1E1E000
0F1E1E1E1E00
0F1E1E1E1E00
0F1E1E1E1E00
F0F1E1E1E1E0
F0F1E1E1E1E0
F0F1E1E1E1E0
F0F1E1E1E1E0
0F0000001E00
0F0000001E00
0F0000001E00
0F0000001E00
F0F00001E1E0
F0F00001E1E0
F0F00001E1E0
F0F00001E1E0
0F0000001E00
0F0000001E00
0F0000001E00
0F0000001E00
F0F00001E1E0
F0F00001E1E0
F0F00001E1E0
F0F00001E1E0
0F0000001E00
0F0000001E00
0F0000001E00
0F0000001E00
F0F00001E1E0
F0F00001E1E0
F0F00001E1E0
F0F00001E1E0
0F0000001E00
0F0000001E00
0F0000001E00
0F0000001E00
F0F00001E1E0
F0F00001E1E0
F0F00001E1E0
0F0000001E00
0F0000001E00
0F0000001E00
0F0000001E00
F0F1E1E1E1E0
F0F1E1E1E1E0
F0F1E1E1E1E0
F0F1E1E1E1E0
0F1E1E1E1E00
0F1E1E1E1E00
0F1E1E1E1E00
0F1E1E1E1E00
00F1E1E1E000
00F1E1E1E000
00F1E1E1E000
00F1E1E1E000
ENDCHAR
STARTCHAR 00F6
ENCODING 246
SWIDTH 694 0
DWIDTH 54 0
BBX 43 74 6 0
BITMAP
00F1E1E1E000
00F1E1E1E000
00F1E1E1E000
00F1E1E1E000
001E001E0000
001E001E0000
001E001E0000
001E001E0000
00F1E1E1E000
00F1E1E1E000
00F1E1E1E000
00F1E1E1E000
000000000000
000000000000
000000000000
000000000000
00F1E1E1E000
00F1E1E1E000
00F1E1E1E000
00F1E1E1E000
0F1E1E1E1E00
0F1E1E1E1E00
0F1E1E1E1E00
F0F1E1E1E1E0
F0F1E1E1E1E0
F0F1E1E1E1E0
F0F1E1E1E1E0
0F0000001E00
0F0000001E00
0F0000001E00
0F0000001E00
F0F00001E1E0
F0F00001E1E0
F0F00001E1E0
F0F00001E1E0
0F0000001E00
0F0000001E00
0F0000001E00
0F0000001E00
F0F00001E1E0
F0F00001E1E0
F0F00001E1E0
F0F00001E1E0
0F0000001E00
0F0000001E00
0F0000001E00
0F0000001E00
F0F00001E1E0
F0F00001E1E0
F0F00001E1E0
F0F00001E1E0
0F0000001E00
0F0000001E00
0F0000001E00
0F0000001E00
F0F00001E1E0
F0F00001E1E0
F0F00001E1E0
0F0000001E00
0F0000001E00
0F0000001E00
0F0000001E00
F0F1E1E1E1E0
F0F1E1E1E1E0
F0F1E1E1E1E0
F0F1E1E1E1E0
0F1E1E1E1E00
0F1E1E1E1E00
0F1E1E1E1E00
0F1E1E1E1E00
00F1E1E1E000
00F1E1E1E000
00F1E1E1E000
00F1E1E1E000
ENDCHAR
STARTCHAR 00F7
ENCODING 247
SWIDTH 694 0
DWIDTH 54 0
BBX 43 43 6 8
BITMAP
0001E1E00000
0001E1E00000
0001E1E00000
0001E1E00000
00001E000000
00001E000000
00001E000000
00001E000000
0001E1E00000
0001E1E00000
0001E1E00000
0001E1E00000
000000000000
000000000000
000000000000
000000000000
F0F1E1E1E1E0
F0F1E1E1E1E0
F0F1E1E1E1E0
F0F1E1E1E1E0
0F1E1E1E1E00
0F1E1E1E1E00
0F1E1E1E1E00
0F1E1E1E1E00
F0F1E1E1E1E0
F0F1E1E1E1E0
F0F1E1E1E1E0
F0F1E1E1E1E0
000000000000
000000000000
000000000000
000000000000
0001E1E00000
0001E1E00000
0001E1E00000
00001E000000
00001E000000
00001E000000
00001E000000
0001E1E00000
0001E1E00000
0001E1E00000
0001E1E00000
ENDCHAR
STARTCHAR 00F8
ENCODING 248
SWIDTH 797 0
DWIDTH 62 0
BBX 58 58 2 0
BITMAP
0001E1E1E1E00000
0001E1E1E1E00000
0001E1E1E1E00000
0001E1E1E1E00000
000F1E1E1E1E0000
000F1E1E1E1E0000
000F1E1E1E1E0000
00F1E1E1E1E1E000
00F1E1E1E1E1E000
00F1E1E1E1E1E000
00F1E1E1E1E1E000
000F0000001E0000
000F0000001E0000
000F0000001E0000
000F0000001E0000
00F1E00001E1E000
00F1E00001E1E000
00F1E00001E1E000
00F1E00001E1E000
000F0000001E0000
000F0000001E0000
000F0000001E0000
000F0000001E0000
F0F1E1E1E1E1E3C0
F0F1E1E1E1E1E3C0
F0F1E1E1E1E1E3C0
F0F1E1E1E1E1E3C0
0F0F1E1E1E1E3C00
0F0F1E1E1E1E3C00
0F0F1E1E1E1E3C00
0F0F1E1E1E1E3C00
F0F1E1E1E1E1E3C0
F0F1E1E1E1E1E3C0
F0F1E1E1E1E1E3C0
F0F1E1E1E1E1E3C0
000F0000001E0000
000F0000001E0000
000F0000001E0000
000F0000001E0000
00F1E00001E1E000
00F1E00001E1E000
00F1E00001E1E000
000F0000001E0000
000F0000001E0000
000F0000001E0000
000F0000001E0000
00F1E1E1E1E1E000
00F1E1E1E1E1E000
00F1E1E1E1E1E000
00F1E1E1E1E1E000
000F1E1E1E1E0000
000F1E1E1E1E0000
000F1E1E1E1E0000
000F1E1E1E1E0000
0001E1E1E1E00000
0001E1E1E1E00000
0001E1E1E1E00000
0001E1E1E1E00000
ENDCHAR
STARTCHAR 00F9
ENCODING 249
SWIDTH 694 0
DWIDTH 54 0
BBX 43 82 6 0
BITMAP
F0F000000000
F0F000000000
F0F000000000
F0F000000000
0F1E00000000
0F1E00000000
0F1E00000000
0F1E00000000
00F1E0000000
00F1E0000000
00F1E0000000
00F1E0000000
001E1E000000
001E1E000000
001E1E000000
001E1E000000
0001E1E00000
0001E1E00000
0001E1E00000
0001E1E00000
000000000000
000000000000
000000000000
000000000000
F0F00001E1E0
F0F00001E1E0
F0F00001E1E0
F0F00001E1E0
0F0000001E00
0F0000001E00
0F0000001E00
F0F00001E1E0
F0F00001E1E0
F0F00001E1E0
F0F00001E1E0
0F0000001E00
0F0000001E00
0F0000001E00
0F0000001E00
F0F00001E1E0
F0F00001E1E0
F0F00001E1E0
F0F00001E1E0
0F0000001E00
0F0000001E00
0F0000001E00
0F0000001E00
F0F00001E1E0
F0F00001E1E0
F0F00001E1E0
F0F00001E1E0
0F0000001E00
0F0000001E00
0F0000001E00
0F0000001E00
F0F00001E1E0
F0F00001E1E0
F0F00001E1E0
F0F00001E1E0
0F0000001E00
0F0000001E00
0F0000001E00
0F0000001E00
F0F00001E1E0
F0F00001E1E0
F0F00001E1E0
0F0000001E00
0F0000001E00
0F0000001E00
0F0000001E00
F0F1E1E1E1E0
F0F1E1E1E1E0
F0F1E1E1E1E0
F0F1E1E1E1E0
0F1E1E1E1E00
0F1E1E1E1E00
0F1E1E1E1E00
0F1E1E1E1E00
00F1E1E1E000
00F1E1E1E000
00F1E1E1E000
00F1E1E1E000
ENDCHAR
STARTCHAR 00FA
ENCODING 250
SWIDTH 694 0
DWIDTH 54 0
BBX 43 82 6 0
BITMAP
0000001E1E00
0000001E1E00
0000001E1E00
0000001E1E00
000001E1E000
000001E1E000
000001E1E000
000001E1E000
00001E1E0000
00001E1E0000
00001E1E0000
00001E1E0000
0001E1E00000
0001E1E00000
0001E1E00000
0001E1E00000
001E1E000000
001E1E000000
001E1E000000
001E1E000000
000000000000
000000000000
000000000000
000000000000
F0F00001E1E0
F0F00001E1E0
F0F00001E1E0
F0F00001E1E0
0F0000001E00
0F0000001E00
0F0000001E00
F0F00001E1E0
F0F00001E1E0
F0F00001E1E0
F0F00001E1E0
0F0000001E00
0F0000001E00
0F0000001E00
0F0000001E00
F0F00001E1E0
F0F00001E1E0
F0F00001E1E0
F0F00001E1E0
0F0000001E00
0F0000001E00
0F0000001E00
0F0000001E00
F0F00001E1E0
F0F00001E1E0
F0F00001E1E0
F0F00001E1E0
0F0000001E00
0F0000001E00
0F0000001E00
0F0000001E00
F0F00001E1E0
F0F00001E1E0
F0F00001E1E0
F0F00001E1E0
0F0000001E00
0F0000001E00
0F0000001E00
0F0000001E00
F0F00001E1E0
F0F00001E1E0
F0F00001E1E0
0F0000001E00
0F0000001E00
0F0000001E00
0F0000001E00
F0F1E1E1E1E0
F0F1E1E1E1E0
F0F1E1E1E1E0
F0F1E1E1E1E0
0F1E1E1E1E00
0F1E1E1E1E00
0F1E1E1E1E00
0F1E1E1E1E00
00F1E1E1E000
00F1E1E1E000
00F1E1E1E000
00F1E1E1E000
ENDCHAR
STARTCHAR 00FB
ENCODING 251
SWIDTH 694 0
DWIDTH 54 0
BBX 43 82 6 0
BITMAP
0001E1E00000
0001E1E00000
0001E1E00000
0001E1E00000
001E1E1E0000
001E1E1E0000
001E1E1E0000
001E1E1E0000
00F1E1E1E000
00F1E1E1E000
00F1E1E1E000
00F1E1E1E000
001E001E0000
001E001E0000
001E001E0000
001E001E0000
00F1E1E1E000
00F1E1E1E000
00F1E1E1E000
00F1E1E1E000
000000000000
000000000000
000000000000
000000000000
F0F00001E1E0
F0F00001E1E0
F0F00001E1E0
F0F00001E1E0
0F0000001E00
0F0000001E00
0F0000001E00
F0F00001E1E0
F0F00001E1E0
F0F00001E1E0
F0F00001E1E0
0F0000001E00
0F0000001E00
0F0000001E00
0F0000001E00
F0F00001E1E0
F0F00001E1E0
F0F00001E1E0
F0F00001E1E0
0F0000001E00
0F0000001E00
0F0000001E00
0F0000001E00
F0F00001E1E0
F0F00001E1E0
F0F00001E1E0
F0F00001E1E0
0F0000001E00
0F0000001E00
0F0000001E00
0F0000001E00
F0F00001E1E0
F0F00001E1E0
F0F00001E1E0
F0F00001E1E0
0F0000001E00
0F0000001E00
0F0000001E00
0F0000001E00
F0F00001E1E0
F0F00001E1E0
F0F00001E1E0
0F0000001E00
0F0000001E00
0F0000001E00
0F0000001E00
F0F1E1E1E1E0
F0F1E1E1E1E0
F0F1E1E1E1E0
F0F1E1E1E1E0
0F1E1E1E1E00
0F1E1E1E1E00
0F1E1E1E1E00
0F1E1E1E1E00
00F1E1E1E000
00F1E1E1E000
00F1E1E1E000
00F1E1E1E000
ENDCHAR
STARTCHAR 00FC
ENCODING 252
SWIDTH 694 0
DWIDTH 54 0
BBX 43 74 6 0
BITMAP
00F1E1E1E000
00F1E1E1E000
00F1E1E1E000
00F1E1E1E000
001E001E0000
001E001E0000
001E001E0000
001E001E0000
00F1E1E1E000
00F1E1E1E000
00F1E1E1E000
00F1E1E1E000
000000000000
000000000000
000000000000
000000000000
F0F00001E1E0
F0F00001E1E0
F0F00001E1E0
F0F00001E1E0
0F0000001E00
0F0000001E00
0F0000001E00
F0F00001E1E0
F0F00001E1E0
F0F00001E1E0
F0F00001E1E0
0F0000001E00
0F0000001E00
0F0000001E00
0F0000001E00
F0F00001E1E0
F0F00001E1E0
F0F00001E1E0
F0F00001E1E0
0F0000001E00
0F0000001E00
0F0000001E00
0F0000001E00
F0F00001E1E0
F0F00001E1E0
F0F00001E1E0
F0F00001E1E0
0F0000001E00
0F0000001E00
0F0000001E00
0F0000001E00
F0F00001E1E0
F0F00001E1E0
F0F00001E1E0
F0F00001E1E0
0F0000001E00
0F0000001E00
0F0000001E00
0F0000001E00
F0F00001E1E0
F0F00001E1E0
F0F00001E1E0
0F0000001E00
0F0000001E00
0F0000001E00
0F0000001E00
F0F1E1E1E1E0
F0F1E1E1E1E0
F0F1E1E1E1E0
F0F1E1E1E1E0
0F1E1E1E1E00
0F1E1E1E1E00
0F1E1E1E1E00
0F1E1E1E1E00
00F1E1E1E000
00F1E1E1E000
00F1E1E1E000
00F1E1E1E000
ENDCHAR
STARTCHAR 00FD
ENCODING 253
SWIDTH 694 0
DWIDTH 54 0
BBX 43 82 6 0
BITMAP
0000001E1E00
0000001E1E00
0000001E1E00
0000001E1E00
000001E1E000
000001E1E000
000001E1E000
000001E1E000
00001E1E0000
00001E1E0000
00001E1E0000
00001E1E0000
0001E1E00000
0001E1E00000
0001E1E00000
0001E1E00000
001E1E000000
001E1E000000
001E1E000000
001E1E000000
000000000000
000000000000
000000000000
000000000000
F0F00001E1E0
F0F00001E1E0
F0F00001E1E0
F0F00001E1E0
0F0000001E00
0F0000001E00
0F0000001E00
F0F00001E1E0
F0F00001E1E0
F0F00001E1E0
F0F00001E1E0
0F0000001E00
0F0000001E00
0F0000001E00
0F0000001E00
F0F00001E1E0
F0F00001E1E0
F0F00001E1E0
F0F00001E1E0
0F0000001E00
0F0000001E00
0F0000001E00
0F0000001E00
F0F00001E1E0
F0F00001E1E0
F0F00001E1E0
F0F00001E1E0
0F0000001E00
0F0000001E00
0F0000001E00
0F0000001E00
F0F1E1E1E1E0
F0F1E1E1E1E0
F0F1E1E1E1E0
F0F1E1E1E1E0
0F1E1E1E1E00
0F1E1E1E1E00
0F1E1E1E1E00
0F1E1E1E1E00
00F1E1E1E000
00F1E1E1E000
00F1E1E1E000
00001E000000
00001E000000
00001E000000
00001E000000
0001E1E00000
0001E1E00000
0001E1E00000
0001E1E00000
00001E000000
00001E000000
00001E000000
00001E000000
0001E1E00000
0001E1E00000
0001E1E00000
0001E1E00000
ENDCHAR
STARTCHAR 00FE
ENCODING 254
SWIDTH 694 0
DWIDTH 54 0
BBX 43 58 6 0
BITMAP
F0F000000000
F0F000000000
F0F000000000
F0F000000000
0F0000000000
0F0000000000
0F0000000000
F0F1E1E1E000
F0F1E1E1E000
F0F1E1E1E000
F0F1E1E1E000
0F1E1E1E1E00
0F1E1E1E1E00
0F1E1E1E1E00
0F1E1E1E1E00
F0F1E1E1E1E0
F0F1E1E1E1E0
F0F1E1E1E1E0
F0F1E1E1E1E0
0F0000001E00
0F0000001E00
0F0000001E00
0F0000001E00
F0F00001E1E0
F0F00001E1E0
F0F00001E1E0
F0F00001E1E0
0F0000001E00
0F0000001E00
0F0000001E00
0F0000001E00
F0F00001E1E0
F0F00001E1E0
F0F00001E1E0
F0F00001E1E0
0F0000001E00
0F0000001E00
0F0000001E00
0F0000001E00
F0F1E1E1E1E0
F0F1E1E1E1E0
F0F1E1E1E1E0
0F1E1E1E1E00
0F1E1E1E1E00
0F1E1E1E1E00
0F1E1E1E1E00
F0F1E1E1E000
F0F1E1E1E000
F0F1E1E1E000
F0F1E1E1E000
0F0000000000
0F0000000000
0F0000000000
0F0000000000
F0F000000000
F0F000000000
F0F000000000
F0F000000000
ENDCHAR
STARTCHAR 00FF
ENCODING 255
SWIDTH 694 0
DWIDTH 54 0
BBX 43 74 6 0
BITMAP
00F1E1E1E000
00F1E1E1E000
00F1E1E1E000
00F1E1E1E000
001E001E0000
001E001E0000
001E001E0000
001E001E0000
00F1E1E1E000
00F1E1E1E000
00F1E1E1E000
00F1E1E1E000
000000000000
000000000000
000000000000
000000000000
F0F00001E1E0
F0F00001E1E0
F0F00001E1E0
F0F00001E1E0
0F0000001E00
0F0000001E00
0F0000001E00
F0F00001E1E0
F0F00001E1E0
F0F00001E1E0
F0F00001E1E0
0F0000001E00
0F0000001E00
0F0000001E00
0F0000001E00
F0F00001E1E0
F0F00001E1E0
F0F00001E1E0
F0F00001E1E0
0F0000001E00
0F0000001E00
0F0000001E00
0F0000001E00
F0F00001E1E0
F0F00001E1E0
F0F00001E1E0
F0F00001E1E0
0F0000001E00
0F0000001E00
0F0000001E00
0F0000001E00
F0F1E1E1E1E0
F0F1E1E1E1E0
F0F1E1E1E1E0
F0F1E1E1E1E0
0F1E1E1E1E00
0F1E1E1E1E00
0F1E1E1E1E00
0F1E1E1E1E00
00F1E1E1E000
00F1E1E1E000
00F1E1E1E000
00001E000000
00001E000000
00001E000000
00001E000000
0001E1E00000
0001E1E00000
0001E1E00000
0001E1E00000
00001E000000
00001E000000
00001E000000
00001E000000
0001E1E00000
0001E1E00000
0001E1E00000
0001E1E00000
ENDCHAR
STARTCHAR 0100
ENCODING 256
SWIDTH 694 0
DWIDTH 54 0
BBX 43 74 6 0
BITMAP
00F1E1E1E000
00F1E1E1E000
00F1E1E1E000
00F1E1E1E000
001E1E1E0000
001E1E1E0000
001E1E1E0000
001E1E1E0000
00F1E1E1E000
00F1E1E1E000
00F1E1E1E000
00F1E1E1E000
000000000000
000000000000
000000000000
000000000000
0001E1E00000
0001E1E00000
0001E1E00000
0001E1E00000
001E1E1E0000
001E1E1E0000
001E1E1E0000
00F1E1E1E000
00F1E1E1E000
00F1E1E1E000
00F1E1E1E000
0F1E001E1E00
0F1E001E1E00
0F1E001E1E00
0F1E001E1E00
F0F00001E1E0
F0F00001E1E0
F0F00001E1E0
F0F00001E1E0
0F0000001E00
0F0000001E00
0F0000001E00
0F0000001E00
F0F00001E1E0
F0F00001E1E0
F0F00001E1E0
F0F00001E1E0
0F0000001E00
0F0000001E00
0F0000001E00
0F0000001E00
F0F1E1E1E1E0
F0F1E1E1E1E0
F0F1E1E1E1E0
F0F1E1E1E1E0
0F1E1E1E1E00
0F1E1E1E1E00
0F1E1E1E1E00
0F1E1E1E1E00
F0F1E1E1E1E0
F0F1E1E1E1E0
F0F1E1E1E1E0
0F0000001E00
0F0000001E00
0F0000001E00
0F0000001E00
F0F00001E1E0
F0F00001E1E0
F0F00001E1E0
F0F00001E1E0
0F0000001E00
0F0000001E00
0F0000001E00
0F0000001E00
F0F00001E1E0
F0F00001E1E0
F0F00001E1E0
F0F00001E1E0
ENDCHAR
STARTCHAR 0101
ENCODING 257
SWIDTH 694 0
DWIDTH 54 0
BBX 43 74 6 0
BITMAP
00F1E1E1E000
00F1E1E1E000
00F1E1E1E000
00F1E1E1E000
001E1E1E0000
001E1E1E0000
001E1E1E0000
001E1E1E0000
00F1E1E1E000
00F1E1E1E000
00F1E1E1E000
00F1E1E1E000
000000000000
000000000000
000000000000
000000000000
00F1E1E1E000
00F1E1E1E000
00F1E1E1E000
00F1E1E1E000
0F1E1E1E1E00
0F1E1E1E1E00
0F1E1E1E1E00
F0F1E1E1E1E0
F0F1E1E1E1E0
F0F1E1E1E1E0
F0F1E1E1E1E0
0F0000001E00
0F0000001E00
0F0000001E00
0F0000001E00
F0F00001E1E0
F0F00001E1E0
F0F00001E1E0
F0F00001E1E0
0F0000001E00
0F0000001E00
0F0000001E00
0F0000001E00
F0F00001E1E0
F0F00001E1E0
F0F00001E1E0
F0F00001E1E0
0F0000001E00
0F0000001E00
0F0000001E00
0F0000001E00
F0F1E1E1E1E0
F0F1E1E1E1E0
F0F1E1E1E1E0
F0F1E1E1E1E0
0F1E1E1E1E00
0F1E1E1E1E00
0F1E1E1E1E00
0F1E1E1E1E00
F0F1E1E1E1E0
F0F1E1E1E1E0
F0F1E1E1E1E0
0F0000001E00
0F0000001E00
0F0000001E00
0F0000001E00
F0F00001E1E0
F0F00001E1E0
F0F00001E1E0
F0F00001E1E0
0F0000001E00
0F0000001E00
0F0000001E00
0F0000001E00
F0F00001E1E0
F0F00001E1E0
F0F00001E1E0
F0F00001E1E0
ENDCHAR
STARTCHAR 0102
ENCODING 258
SWIDTH 694 0
DWIDTH 54 0
BBX 43 82 6 0
BITMAP
0F1E001E1E00
0F1E001E1E00
0F1E001E1E00
0F1E001E1E00
00F00001E000
00F00001E000
00F00001E000
00F00001E000
0F1E1E1E1E00
0F1E1E1E1E00
0F1E1E1E1E00
0F1E1E1E1E00
00F1E1E1E000
00F1E1E1E000
00F1E1E1E000
00F1E1E1E000
001E1E1E0000
001E1E1E0000
001E1E1E0000
001E1E1E0000
000000000000
000000000000
000000000000
000000000000
0001E1E00000
0001E1E00000
0001E1E00000
0001E1E00000
001E1E1E0000
001E1E1E0000
001E1E1E0000
00F1E1E1E000
00F1E1E1E000
00F1E1E1E000
00F1E1E1E000
0F1E001E1E00
0F1E001E1E00
0F1E001E1E00
0F1E001E1E00
F0F00001E1E0
F0F00001E1E0
F0F00001E1E0
F0F00001E1E0
0F0000001E00
0F0000001E00
0F0000001E00
0F0000001E00
F0F00001E1E0
F0F00001E1E0
F0F00001E1E0
F0F00001E1E0
0F0000001E00
0F0000001E00
0F0000001E00
0F0000001E00
F0F1E1E1E1E0
F0F1E1E1E1E0
F0F1E1E1E1E0
F0F1E1E1E1E0
0F1E1E1E1E00
0F1E1E1E1E00
0F1E1E1E1E00
0F1E1E1E1E00
F0F1E1E1E1E0
F0F1E1E1E1E0
F0F1E1E1E1E0
0F0000001E00
0F0000001E00
0F0000001E00
0F0000001E00
F0F00001E1E0
F0F00001E1E0
F0F00001E1E0
F0F00001E1E0
0F0000001E00
0F0000001E00
0F0000001E00
0F0000001E00
F0F00001E1E0
F0F00001E1E0
F0F00001E1E0
F0F00001E1E0
ENDCHAR
STARTCHAR 0103
ENCODING 259
SWIDTH 694 0
DWIDTH 54 0
BBX 43 82 6 0
BITMAP
0F1E001E1E00
0F1E001E1E00
0F1E001E1E00
0F1E001E1E00
00F00001E000
00F00001E000
00F00001E000
00F00001E000
0F1E1E1E1E00
0F1E1E1E1E00
0F1E1E1E1E00
0F1E1E1E1E00
00F1E1E1E000
00F1E1E1E000
00F1E1E1E000
00F1E1E1E000
001E1E1E0000
001E1E1E0000
001E1E1E0000
001E1E1E0000
000000000000
000000000000
000000000000
000000000000
00F1E1E1E000
00F1E1E1E000
00F1E1E1E000
00F1E1E1E000
0F1E1E1E1E00
0F1E1E1E1E00
0F1E1E1E1E00
F0F1E1E1E1E0
F0F1E1E1E1E0
F0F1E1E1E1E0
F0F1E1E1E1E0
0F0000001E00
0F0000001E00
0F0000001E00
0F0000001E00
F0F00001E1E0
F0F00001E1E0
F0F00001E1E0
F0F00001E1E0
0F0000001E00
0F0000001E00
0F0000001E00
0F0000001E00
F0F00001E1E0
F0F00001E1E0
F0F00001E1E0
F0F00001E1E0
0F0000001E00
0F0000001E00
0F0000001E00
0F0000001E00
F0F1E1E1E1E0
F0F1E1E1E1E0
F0F1E1E1E1E0
F0F1E1E1E1E0
0F1E1E1E1E00
0F1E1E1E1E00
0F1E1E1E1E00
0F1E1E1E1E00
F0F1E1E1E1E0
F0F1E1E1E1E0
F0F1E1E1E1E0
0F0000001E00
0F0000001E00
0F0000001E00
0F0000001E00
F0F00001E1E0
F0F00001E1E0
F0F00001E1E0
F0F00001E1E0
0F0000001E00
0F0000001E00
0F0000001E00
0F0000001E00
F0F00001E1E0
F0F00001E1E0
F0F00001E1E0
F0F00001E1E0
ENDCHAR
STARTCHAR 0104
ENCODING 260
SWIDTH 694 0
DWIDTH 54 0
BBX 50 74 6 -16
BITMAP
0001E1E0000000
0001E1E0000000
0001E1E0000000
0001E1E0000000
001E1E1E000000
001E1E1E000000
001E1E1E000000
00F1E1E1E00000
00F1E1E1E00000
00F1E1E1E00000
00F1E1E1E00000
0F1E001E1E0000
0F1E001E1E0000
0F1E001E1E0000
0F1E001E1E0000
F0F00001E1E000
F0F00001E1E000
F0F00001E1E000
F0F00001E1E000
0F0000001E0000
0F0000001E0000
0F0000001E0000
0F0000001E0000
F0F00001E1E000
F0F00001E1E000
F0F00001E1E000
F0F00001E1E000
0F0000001E0000
0F0000001E0000
0F0000001E0000
0F0000001E0000
F0F1E1E1E1E000
F0F1E1E1E1E000
F0F1E1E1E1E000
F0F1E1E1E1E000
0F1E1E1E1E0000
0F1E1E1E1E0000
0F1E1E1E1E0000
0F1E1E1E1E0000
F0F1E1E1E1E000
F0F1E1E1E1E000
F0F1E1E1E1E000
0F0000001E0000
0F0000001E0000
0F0000001E0000
0F0000001E0000
F0F00001E1E000
F0F00001E1E000
F0F00001E1E000
F0F00001E1E000
0F0000001E0000
0F0000001E0000
0F0000001E0000
0F0000001E0000
F0F00001E1E000
F0F00001E1E000
F0F00001E1E000
F0F00001E1E000
000000001E0000
000000001E0000
000000001E0000
000000001E0000
00000001E1E3C0
00000001E1E3C0
00000001E1E3C0
00000001E1E3C0
000000001E1E00
000000001E1E00
000000001E1E00
000000001E1E00
0000000001E3C0
0000000001E3C0
0000000001E3C0
0000000001E3C0
ENDCHAR
STARTCHAR 0105
ENCODING 261
SWIDTH 694 0
DWIDTH 54 0
BBX 50 74 6 -16
BITMAP
00F1E1E1E00000
00F1E1E1E00000
00F1E1E1E00000
00F1E1E1E00000
0F1E1E1E1E0000
0F1E1E1E1E0000
0F1E1E1E1E0000
F0F1E1E1E1E000
F0F1E1E1E1E000
F0F1E1E1E1E000
F0F1E1E1E1E000
0F0000001E0000
0F0000001E0000
0F0000001E0000
0F0000001E0000
F0F00001E1E000
F0F00001E1E000
F0F00001E1E000
F0F00001E1E000
0F0000001E0000
0F0000001E0000
0F0000001E0000
0F0000001E0000
F0F00001E1E000
F0F00001E1E000
F0F00001E1E000
F0F00001E1E000
0F0000001E0000
0F0000001E0000
0F0000001E0000
0F0000001E0000
F0F1E1E1E1E000
F0F1E1E1E1E000
F0F1E1E1E1E000
F0F1E1E1E1E000
0F1E1E1E1E0000
0F1E1E1E1E0000
0F1E1E1E1E0000
0F1E1E1E1E0000
F0F1E1E1E1E000
F0F1E1E1E1E000
F0F1E1E1E1E000
0F0000001E0000
0F0000001E0000
0F0000001E0000
0F0000001E0000
F0F00001E1E000
F0F00001E1E000
F0F00001E1E000
F0F00001E1E000
0F0000001E0000
0F0000001E0000
0F0000001E0000
0F0000001E0000
F0F00001E1E000
F0F00001E1E000
F0F00001E1E000
F0F00001E1E000
000000001E0000
000000001E0000
000000001E0000
000000001E0000
00000001E1E3C0
00000001E1E3C0
00000001E1E3C0
00000001E1E3C0
000000001E1E00
000000001E1E00
000000001E1E00
000000001E1E00
0000000001E3C0
0000000001E3C0
0000000001E3C0
0000000001E3C0
ENDCHAR
STARTCHAR 0106
ENCODING 262
SWIDTH 797 0
DWIDTH 62 0
BBX 50 82 6 0
BITMAP
00000001E1E000
00000001E1E000
00000001E1E000
00000001E1E000
0000001E1E0000
0000001E1E0000
0000001E1E0000
0000001E1E0000
000001E1E00000
000001E1E00000
000001E1E00000
000001E1E00000
00001E1E000000
00001E1E000000
00001E1E000000
00001E1E000000
0001E1E0000000
0001E1E0000000
0001E1E0000000
0001E1E0000000
00000000000000
00000000000000
00000000000000
00000000000000
0001E1E1E00000
0001E1E1E00000
0001E1E1E00000
0001E1E1E00000
001E1E1E1E0000
001E1E1E1E0000
001E1E1E1E0000
00F1E1E1E1E000
00F1E1E1E1E000
00F1E1E1E1E000
00F1E1E1E1E000
0F1E00001E1E00
0F1E00001E1E00
0F1E00001E1E00
0F1E00001E1E00
F0F0000001E3C0
F0F0000001E3C0
F0F0000001E3C0
F0F0000001E3C0
0F000000001E00
0F000000001E00
0F000000001E00
0F000000001E00
F0F0000001E3C0
F0F0000001E3C0
F0F0000001E3C0
F0F0000001E3C0
0F000000000000
0F000000000000
0F000000000000
0F000000000000
F0F00000000000
F0F00000000000
F0F00000000000
F0F00000000000
0F000000000000
0F000000000000
0F000000000000
0F000000000000
F0F0000001E3C0
F0F0000001E3C0
F0F0000001E3C0
0F1E00001E1E00
0F1E00001E1E00
0F1E00001E1E00
0F1E00001E1E00
00F1E1E1E1E000
00F1E1E1E1E000
00F1E1E1E1E000
00F1E1E1E1E000
001E1E1E1E0000
001E1E1E1E0000
001E1E1E1E0000
001E1E1E1E0000
0001E1E1E00000
0001E1E1E00000
0001E1E1E00000
0001E1E1E00000
ENDCHAR
STARTCHAR 0107
ENCODING 263
SWIDTH 694 0
DWIDTH 54 0
BBX 43 82 6 0
BITMAP
0000001E1E00
0000001E1E00
0000001E1E00
0000001E1E00
000001E1E000
000001E1E000
000001E1E000
000001E1E000
00001E1E0000
00001E1E0000
00001E1E0000
00001E1E0000
0001E1E00000
0001E1E00000
0001E1E00000
0001E1E00000
001E1E000000
001E1E000000
001E1E000000
001E1E000000
000000000000
000000000000
000000000000
000000000000
00F1E1E1E000
00F1E1E1E000
00F1E1E1E000
00F1E1E1E000
0F1E1E1E1E00
0F1E1E1E1E00
0F1E1E1E1E00
F0F1E1E1E1E0
F0F1E1E1E1E0
F0F1E1E1E1E0
F0F1E1E1E1E0
0F0000001E00
0F0000001E00
0F0000001E00
0F0000001E00
F0F00001E1E0
F0F00001E1E0
F0F00001E1E0
F0F00001E1E0
0F0000001E00
0F0000001E00
0F0000001E00
0F0000001E00
F0F00001E1E0
F0F00001E1E0
F0F00001E1E0
F0F00001E1E0
0F0000000000
0F0000000000
0F0000000000
0F0000000000
F0F000000000
F0F000000000
F0F000000000
F0F000000000
0F0000000000
0F0000000000
0F0000000000
0F0000000000
F0F00001E1E0
F0F00001E1E0
F0F00001E1E0
0F0000001E00
0F0000001E00
0F0000001E00
0F0000001E00
F0F1E1E1E1E0
F0F1E1E1E1E0
F0F1E1E1E1E0
F0F1E1E1E1E0
0F1E1E1E1E00
0F1E1E1E1E00
0F1E1E1E1E00
0F1E1E1E1E00
00F1E1E1E000
00F1E1E1E000
00F1E1E1E000
00F1E1E1E000
ENDCHAR
STARTCHAR 010A
ENCODING 266
SWIDTH 797 0
DWIDTH 62 0
BBX 50 74 6 0
BITMAP
00001E1E000000
00001E1E000000
00001E1E000000
00001E1E000000
000001E0000000
000001E0000000
000001E0000000
000001E0000000
00001E1E000000
00001E1E000000
00001E1E000000
00001E1E000000
00000000000000
00000000000000
00000000000000
00000000000000
0001E1E1E00000
0001E1E1E00000
0001E1E1E00000
0001E1E1E00000
001E1E1E1E0000
001E1E1E1E0000
001E1E1E1E0000
00F1E1E1E1E000
00F1E1E1E1E000
00F1E1E1E1E000
00F1E1E1E1E000
0F1E00001E1E00
0F1E00001E1E00
0F1E00001E1E00
0F1E00001E1E00
F0F0000001E3C0
F0F0000001E3C0
F0F0000001E3C0
F0F0000001E3C0
0F000000001E00
0F000000001E00
0F000000001E00
0F000000001E00
F0F0000001E3C0
F0F0000001E3C0
F0F0000001E3C0
F0F0000001E3C0
0F000000000000
0F000000000000
0F000000000000
0F000000000000
F0F00000000000
F0F00000000000
F0F00000000000
F0F00000000000
0F000000000000
0F000000000000
0F000000000000
0F000000000000
F0F0000001E3C0
F0F0000001E3C0
F0F0000001E3C0
0F1E00001E1E00
0F1E00001E1E00
0F1E00001E1E00
0F1E00001E1E00
00F1E1E1E1E000
00F1E1E1E1E000
00F1E1E1E1E000
00F1E1E1E1E000
001E1E1E1E0000
001E1E1E1E0000
001E1E1E1E0000
001E1E1E1E0000
0001E1E1E00000
0001E1E1E00000
0001E1E1E00000
0001E1E1E00000
ENDCHAR
STARTCHAR 010B
ENCODING 267
SWIDTH 694 0
DWIDTH 54 0
BBX 43 74 6 0
BITMAP
0001E1E00000
0001E1E00000
0001E1E00000
0001E1E00000
00001E000000
00001E000000
00001E000000
00001E000000
0001E1E00000
0001E1E00000
0001E1E00000
0001E1E00000
000000000000
000000000000
000000000000
000000000000
00F1E1E1E000
00F1E1E1E000
00F1E1E1E000
00F1E1E1E000
0F1E1E1E1E00
0F1E1E1E1E00
0F1E1E1E1E00
F0F1E1E1E1E0
F0F1E1E1E1E0
F0F1E1E1E1E0
F0F1E1E1E1E0
0F0000001E00
0F0000001E00
0F0000001E00
0F0000001E00
F0F00001E1E0
F0F00001E1E0
F0F00001E1E0
F0F00001E1E0
0F0000001E00
0F0000001E00
0F0000001E00
0F0000001E00
F0F00001E1E0
F0F00001E1E0
F0F00001E1E0
F0F00001E1E0
0F0000000000
0F0000000000
0F0000000000
0F0000000000
F0F000000000
F0F000000000
F0F000000000
F0F000000000
0F0000000000
0F0000000000
0F0000000000
0F0000000000
F0F00001E1E0
F0F00001E1E0
F0F00001E1E0
0F0000001E00
0F0000001E00
0F0000001E00
0F0000001E00
F0F1E1E1E1E0
F0F1E1E1E1E0
F0F1E1E1E1E0
F0F1E1E1E1E0
0F1E1E1E1E00
0F1E1E1E1E00
0F1E1E1E1E00
0F1E1E1E1E00
00F1E1E1E000
00F1E1E1E000
00F1E1E1E000
00F1E1E1E000
ENDCHAR
STARTCHAR 010C
ENCODING 268
SWIDTH 797 0
DWIDTH 62 0
BBX 50 82 6 0
BITMAP
001E1E1E1E0000
001E1E1E1E0000
001E1E1E1E0000
001E1E1E1E0000
0001E001E00000
0001E001E00000
0001E001E00000
0001E001E00000
001E1E1E1E0000
001E1E1E1E0000
001E1E1E1E0000
001E1E1E1E0000
0001E1E1E00000
0001E1E1E00000
0001E1E1E00000
0001E1E1E00000
00001E1E000000
00001E1E000000
00001E1E000000
00001E1E000000
00000000000000
00000000000000
00000000000000
00000000000000
0001E1E1E00000
0001E1E1E00000
0001E1E1E00000
0001E1E1E00000
001E1E1E1E0000
001E1E1E1E0000
001E1E1E1E0000
00F1E1E1E1E000
00F1E1E1E1E000
00F1E1E1E1E000
00F1E1E1E1E000
0F1E00001E1E00
0F1E00001E1E00
0F1E00001E1E00
0F1E00001E1E00
F0F0000001E3C0
F0F0000001E3C0
F0F0000001E3C0
F0F0000001E3C0
0F000000001E00
0F000000001E00
0F000000001E00
0F000000001E00
F0F0000001E3C0
F0F0000001E3C0
F0F0000001E3C0
F0F0000001E3C0
0F000000000000
0F000000000000
0F000000000000
0F000000000000
F0F00000000000
F0F00000000000
F0F00000000000
F0F00000000000
0F000000000000
0F000000000000
0F000000000000
0F000000000000
F0F0000001E3C0
F0F0000001E3C0
F0F0000001E3C0
0F1E00001E1E00
0F1E00001E1E00
0F1E00001E1E00
0F1E00001E1E00
00F1E1E1E1E000
00F1E1E1E1E000
00F1E1E1E1E000
00F1E1E1E1E000
001E1E1E1E0000
001E1E1E1E0000
001E1E1E1E0000
001E1E1E1E0000
0001E1E1E00000
0001E1E1E00000
0001E1E1E00000
0001E1E1E00000
ENDCHAR
STARTCHAR 010D
ENCODING 269
SWIDTH 694 0
DWIDTH 54 0
BBX 43 82 6 0
BITMAP
00F1E1E1E000
00F1E1E1E000
00F1E1E1E000
00F1E1E1E000
001E001E0000
001E001E0000
001E001E0000
001E001E0000
00F1E1E1E000
00F1E1E1E000
00F1E1E1E000
00F1E1E1E000
001E1E1E0000
001E1E1E0000
001E1E1E0000
001E1E1E0000
0001E1E00000
0001E1E00000
0001E1E00000
0001E1E00000
000000000000
000000000000
000000000000
000000000000
00F1E1E1E000
00F1E1E1E000
00F1E1E1E000
00F1E1E1E000
0F1E1E1E1E00
0F1E1E1E1E00
0F1E1E1E1E00
F0F1E1E1E1E0
F0F1E1E1E1E0
F0F1E1E1E1E0
F0F1E1E1E1E0
0F0000001E00
0F0000001E00
0F0000001E00
0F0000001E00
F0F00001E1E0
F0F00001E1E0
F0F00001E1E0
F0F00001E1E0
0F0000001E00
0F0000001E00
0F0000001E00
0F0000001E00
F0F00001E1E0
F0F00001E1E0
F0F00001E1E0
F0F00001E1E0
0F0000000000
0F0000000000
0F0000000000
0F0000000000
F0F000000000
F0F000000000
F0F000000000
F0F000000000
0F0000000000
0F0000000000
0F0000000000
0F0000000000
F0F00001E1E0
F0F00001E1E0
F0F00001E1E0
0F0000001E00
0F0000001E00
0F0000001E00
0F0000001E00
F0F1E1E1E1E0
F0F1E1E1E1E0
F0F1E1E1E1E0
F0F1E1E1E1E0
0F1E1E1E1E00
0F1E1E1E1E00
0F1E1E1E1E00
0F1E1E1E1E00
00F1E1E1E000
00F1E1E1E000
00F1E1E1E000
00F1E1E1E000
ENDCHAR
STARTCHAR 010E
ENCODING 270
SWIDTH 797 0
DWIDTH 62 0
BBX 50 82 6 0
BITMAP
001E1E1E1E0000
001E1E1E1E0000
001E1E1E1E0000
001E1E1E1E0000
0001E001E00000
0001E001E00000
0001E001E00000
0001E001E00000
001E1E1E1E0000
001E1E1E1E0000
001E1E1E1E0000
001E1E1E1E0000
0001E1E1E00000
0001E1E1E00000
0001E1E1E00000
0001E1E1E00000
00001E1E000000
00001E1E000000
00001E1E000000
00001E1E000000
00000000000000
00000000000000
00000000000000
00000000000000
F0F1E1E1E00000
F0F1E1E1E00000
F0F1E1E1E00000
F0F1E1E1E00000
0F1E1E1E1E0000
0F1E1E1E1E0000
0F1E1E1E1E0000
F0F1E1E1E1E000
F0F1E1E1E1E000
F0F1E1E1E1E000
F0F1E1E1E1E000
0F0000001E1E00
0F0000001E1E00
0F0000001E1E00
0F0000001E1E00
F0F0000001E3C0
F0F0000001E3C0
F0F0000001E3C0
F0F0000001E3C0
0F000000001E00
0F000000001E00
0F000000001E00
0F000000001E00
F0F0000001E3C0
F0F0000001E3C0
F0F0000001E3C0
F0F0000001E3C0
0F000000001E00
0F000000001E00
0F000000001E00
0F000000001E00
F0F0000001E3C0
F0F0000001E3C0
F0F0000001E3C0
F0F0000001E3C0
0F000000001E00
0F000000001E00
0F000000001E00
0F000000001E00
F0F0000001E3C0
F0F0000001E3C0
F0F0000001E3C0
0F0000001E1E00
0F0000001E1E00
0F0000001E1E00
0F0000001E1E00
F0F1E1E1E1E000
F0F1E1E1E1E000
F0F1E1E1E1E000
F0F1E1E1E1E000
0F1E1E1E1E0000
0F1E1E1E1E0000
0F1E1E1E1E0000
0F1E1E1E1E0000
F0F1E1E1E00000
F0F1E1E1E00000
F0F1E1E1E00000
F0F1E1E1E00000
ENDCHAR
STARTCHAR 010F
ENCODING 271
SWIDTH 694 0
DWIDTH 54 0
BBX 43 82 6 0
BITMAP
00F1E1E1E000
00F1E1E1E000
00F1E1E1E000
00F1E1E1E000
001E001E0000
001E001E0000
001E001E0000
001E001E0000
00F1E1E1E000
00F1E1E1E000
00F1E1E1E000
00F1E1E1E000
001E1E1E0000
001E1E1E0000
001E1E1E0000
001E1E1E0000
0001E1E00000
0001E1E00000
0001E1E00000
0001E1E00000
000000000000
000000000000
000000000000
000000000000
F0F1E1E1E000
F0F1E1E1E000
F0F1E1E1E000
F0F1E1E1E000
0F1E1E1E1E00
0F1E1E1E1E00
0F1E1E1E1E00
F0F1E1E1E1E0
F0F1E1E1E1E0
F0F1E1E1E1E0
F0F1E1E1E1E0
0F0000001E00
0F0000001E00
0F0000001E00
0F0000001E00
F0F00001E1E0
F0F00001E1E0
F0F00001E1E0
F0F00001E1E0
0F0000001E00
0F0000001E00
0F0000001E00
0F0000001E00
F0F00001E1E0
F0F00001E1E0
F0F00001E1E0
F0F00001E1E0
0F0000001E00
0F0000001E00
0F0000001E00
0F0000001E00
F0F00001E1E0
F0F00001E1E0
F0F00001E1E0
F0F00001E1E0
0F0000001E00
0F0000001E00
0F0000001E00
0F0000001E00
F0F00001E1E0
F0F00001E1E0
F0F00001E1E0
0F0000001E00
0F0000001E00
0F0000001E00
0F0000001E00
F0F1E1E1E1E0
F0F1E1E1E1E0
F0F1E1E1E1E0
F0F1E1E1E1E0
0F1E1E1E1E00
0F1E1E1E1E00
0F1E1E1E1E00
0F1E1E1E1E00
F0F1E1E1E000
F0F1E1E1E000
F0F1E1E1E000
F0F1E1E1E000
ENDCHAR
STARTCHAR 0110
ENCODING 272
SWIDTH 848 0
DWIDTH 66 0
BBX 58 58 2 0
BITMAP
00F1E1E1E1E00000
00F1E1E1E1E00000
00F1E1E1E1E00000
00F1E1E1E1E00000
000F1E1E1E1E0000
000F1E1E1E1E0000
000F1E1E1E1E0000
00F1E1E1E1E1E000
00F1E1E1E1E1E000
00F1E1E1E1E1E000
00F1E1E1E1E1E000
000F0000001E3C00
000F0000001E3C00
000F0000001E3C00
000F0000001E3C00
00F1E0000001E3C0
00F1E0000001E3C0
00F1E0000001E3C0
00F1E0000001E3C0
000F000000003C00
000F000000003C00
000F000000003C00
000F000000003C00
F0F1E1E00001E3C0
F0F1E1E00001E3C0
F0F1E1E00001E3C0
F0F1E1E00001E3C0
0F0F1E0000003C00
0F0F1E0000003C00
0F0F1E0000003C00
0F0F1E0000003C00
F0F1E1E00001E3C0
F0F1E1E00001E3C0
F0F1E1E00001E3C0
F0F1E1E00001E3C0
000F000000003C00
000F000000003C00
000F000000003C00
000F000000003C00
00F1E0000001E3C0
00F1E0000001E3C0
00F1E0000001E3C0
000F0000001E3C00
000F0000001E3C00
000F0000001E3C00
000F0000001E3C00
00F1E1E1E1E1E000
00F1E1E1E1E1E000
00F1E1E1E1E1E000
00F1E1E1E1E1E000
000F1E1E1E1E0000
000F1E1E1E1E0000
000F1E1E1E1E0000
000F1E1E1E1E0000
00F1E1E1E1E00000
00F1E1E1E1E00000
00F1E1E1E1E00000
00F1E1E1E1E00000
ENDCHAR
STARTCHAR 0111
ENCODING 273
SWIDTH 745 0
DWIDTH 58 0
BBX 51 58 2 0
BITMAP
00F1E1E1E1E000
00F1E1E1E1E000
00F1E1E1E1E000
00F1E1E1E1E000
000F1E1E1E1E00
000F1E1E1E1E00
000F1E1E1E1E00
00F1E1E1E1E1E0
00F1E1E1E1E1E0
00F1E1E1E1E1E0
00F1E1E1E1E1E0
000F0000001E00
000F0000001E00
000F0000001E00
000F0000001E00
00F1E00001E1E0
00F1E00001E1E0
00F1E00001E1E0
00F1E00001E1E0
000F0000001E00
000F0000001E00
000F0000001E00
000F0000001E00
F0F1E1E001E1E0
F0F1E1E001E1E0
F0F1E1E001E1E0
F0F1E1E001E1E0
0F0F1E00001E00
0F0F1E00001E00
0F0F1E00001E00
0F0F1E00001E00
F0F1E1E001E1E0
F0F1E1E001E1E0
F0F1E1E001E1E0
F0F1E1E001E1E0
000F0000001E00
000F0000001E00
000F0000001E00
000F0000001E00
00F1E00001E1E0
00F1E00001E1E0
00F1E00001E1E0
000F0000001E00
000F0000001E00
000F0000001E00
000F0000001E00
00F1E1E1E1E1E0
00F1E1E1E1E1E0
00F1E1E1E1E1E0
00F1E1E1E1E1E0
000F1E1E1E1E00
000F1E1E1E1E00
000F1E1E1E1E00
000F1E1E1E1E00
00F1E1E1E1E000
00F1E1E1E1E000
00F1E1E1E1E000
00F1E1E1E1E000
ENDCHAR
STARTCHAR 0112
ENCODING 274
SWIDTH 694 0
DWIDTH 54 0
BBX 43 74 6 0
BITMAP
00F1E1E1E000
00F1E1E1E000
00F1E1E1E000
00F1E1E1E000
001E1E1E0000
001E1E1E0000
001E1E1E0000
001E1E1E0000
00F1E1E1E000
00F1E1E1E000
00F1E1E1E000
00F1E1E1E000
000000000000
000000000000
000000000000
000000000000
0001E1E1E1E0
0001E1E1E1E0
0001E1E1E1E0
0001E1E1E1E0
001E1E1E1E00
001E1E1E1E00
001E1E1E1E00
00F1E1E1E1E0
00F1E1E1E1E0
00F1E1E1E1E0
00F1E1E1E1E0
0F1E00000000
0F1E00000000
0F1E00000000
0F1E00000000
F0F000000000
F0F000000000
F0F000000000
F0F000000000
0F0000000000
0F0000000000
0F0000000000
0F0000000000
F0F1E1E1E000
F0F1E1E1E000
F0F1E1E1E000
F0F1E1E1E000
0F1E1E1E0000
0F1E1E1E0000
0F1E1E1E0000
0F1E1E1E0000
F0F1E1E1E000
F0F1E1E1E000
F0F1E1E1E000
F0F1E1E1E000
0F0000000000
0F0000000000
0F0000000000
0F0000000000
F0F000000000
F0F000000000
F0F000000000
0F1E00000000
0F1E00000000
0F1E00000000
0F1E00000000
00F1E1E1E1E0
00F1E1E1E1E0
00F1E1E1E1E0
00F1E1E1E1E0
001E1E1E1E00
001E1E1E1E00
001E1E1E1E00
001E1E1E1E00
0001E1E1E1E0
0001E1E1E1E0
0001E1E1E1E0
0001E1E1E1E0
ENDCHAR
STARTCHAR 0113
ENCODING 275
SWIDTH 694 0
DWIDTH 54 0
BBX 43 74 6 0
BITMAP
00F1E1E1E000
00F1E1E1E000
00F1E1E1E000
00F1E1E1E000
001E1E1E0000
001E1E1E0000
001E1E1E0000
001E1E1E0000
00F1E1E1E000
00F1E1E1E000
00F1E1E1E000
00F1E1E1E000
000000000000
000000000000
000000000000
000000000000
00F1E1E1E1E0
00F1E1E1E1E0
00F1E1E1E1E0
00F1E1E1E1E0
0F1E1E1E1E00
0F1E1E1E1E00
0F1E1E1E1E00
F0F1E1E1E1E0
F0F1E1E1E1E0
F0F1E1E1E1E0
F0F1E1E1E1E0
0F0000000000
0F0000000000
0F0000000000
0F0000000000
F0F000000000
F0F000000000
F0F000000000
F0F000000000
0F0000000000
0F0000000000
0F0000000000
0F0000000000
F0F1E1E1E000
F0F1E1E1E000
F0F1E1E1E000
F0F1E1E1E000
0F1E1E1E0000
0F1E1E1E0000
0F1E1E1E0000
0F1E1E1E0000
F0F1E1E1E000
F0F1E1E1E000
F0F1E1E1E000
F0F1E1E1E000
0F0000000000
0F0000000000
0F0000000000
0F0000000000
F0F000000000
F0F000000000
F0F000000000
0F0000000000
0F0000000000
0F0000000000
0F0000000000
F0F1E1E1E1E0
F0F1E1E1E1E0
F0F1E1E1E1E0
F0F1E1E1E1E0
0F1E1E1E1E00
0F1E1E1E1E00
0F1E1E1E1E00
0F1E1E1E1E00
00F1E1E1E1E0
00F1E1E1E1E0
00F1E1E1E1E0
00F1E1E1E1E0
ENDCHAR
STARTCHAR 0116
ENCODING 278
SWIDTH 694 0
DWIDTH 54 0
BBX 43 74 6 0
BITMAP
0001E1E00000
0001E1E00000
0001E1E00000
0001E1E00000
00001E000000
00001E000000
00001E000000
00001E000000
0001E1E00000
0001E1E00000
0001E1E00000
0001E1E00000
000000000000
000000000000
000000000000
000000000000
0001E1E1E1E0
0001E1E1E1E0
0001E1E1E1E0
0001E1E1E1E0
001E1E1E1E00
001E1E1E1E00
001E1E1E1E00
00F1E1E1E1E0
00F1E1E1E1E0
00F1E1E1E1E0
00F1E1E1E1E0
0F1E00000000
0F1E00000000
0F1E00000000
0F1E00000000
F0F000000000
F0F000000000
F0F000000000
F0F000000000
0F0000000000
0F0000000000
0F0000000000
0F0000000000
F0F1E1E1E000
F0F1E1E1E000
F0F1E1E1E000
F0F1E1E1E000
0F1E1E1E0000
0F1E1E1E0000
0F1E1E1E0000
0F1E1E1E0000
F0F1E1E1E000
F0F1E1E1E000
F0F1E1E1E000
F0F1E1E1E000
0F0000000000
0F0000000000
0F0000000000
0F0000000000
F0F000000000
F0F000000000
F0F000000000
0F1E00000000
0F1E00000000
0F1E00000000
0F1E00000000
00F1E1E1E1E0
00F1E1E1E1E0
00F1E1E1E1E0
00F1E1E1E1E0
001E1E1E1E00
001E1E1E1E00
001E1E1E1E00
001E1E1E1E00
0001E1E1E1E0
0001E1E1E1E0
0001E1E1E1E0
0001E1E1E1E0
ENDCHAR
STARTCHAR 0117
ENCODING 279
SWIDTH 694 0
DWIDTH 54 0
BBX 43 74 6 0
BITMAP
0001E1E00000
0001E1E00000
0001E1E00000
0001E1E00000
00001E000000
00001E000000
00001E000000
00001E000000
0001E1E00000
0001E1E00000
0001E1E00000
0001E1E00000
000000000000
000000000000
000000000000
000000000000
00F1E1E1E1E0
00F1E1E1E1E0
00F1E1E1E1E0
00F1E1E1E1E0
0F1E1E1E1E00
0F1E1E1E1E00
0F1E1E1E1E00
F0F1E1E1E1E0
F0F1E1E1E1E0
F0F1E1E1E1E0
F0F1E1E1E1E0
0F0000000000
0F0000000000
0F0000000000
0F0000000000
F0F000000000
F0F000000000
F0F000000000
F0F000000000
0F0000000000
0F0000000000
0F0000000000
0F0000000000
F0F1E1E1E000
F0F1E1E1E000
F0F1E1E1E000
F0F1E1E1E000
0F1E1E1E0000
0F1E1E1E0000
0F1E1E1E0000
0F1E1E1E0000
F0F1E1E1E000
F0F1E1E1E000
F0F1E1E1E000
F0F1E1E1E000
0F0000000000
0F0000000000
0F0000000000
0F0000000000
F0F000000000
F0F000000000
F0F000000000
0F0000000000
0F0000000000
0F0000000000
0F0000000000
F0F1E1E1E1E0
F0F1E1E1E1E0
F0F1E1E1E1E0
F0F1E1E1E1E0
0F1E1E1E1E00
0F1E1E1E1E00
0F1E1E1E1E00
0F1E1E1E1E00
00F1E1E1E1E0
00F1E1E1E1E0
00F1E1E1E1E0
00F1E1E1E1E0
ENDCHAR
STARTCHAR 0118
ENCODING 280
SWIDTH 694 0
DWIDTH 54 0
BBX 50 74 6 -16
BITMAP
0001E1E1E1E000
0001E1E1E1E000
0001E1E1E1E000
0001E1E1E1E000
001E1E1E1E0000
001E1E1E1E0000
001E1E1E1E0000
00F1E1E1E1E000
00F1E1E1E1E000
00F1E1E1E1E000
00F1E1E1E1E000
0F1E0000000000
0F1E0000000000
0F1E0000000000
0F1E0000000000
F0F00000000000
F0F00000000000
F0F00000000000
F0F00000000000
0F000000000000
0F000000000000
0F000000000000
0F000000000000
F0F1E1E1E00000
F0F1E1E1E00000
F0F1E1E1E00000
F0F1E1E1E00000
0F1E1E1E000000
0F1E1E1E000000
0F1E1E1E000000
0F1E1E1E000000
F0F1E1E1E00000
F0F1E1E1E00000
F0F1E1E1E00000
F0F1E1E1E00000
0F000000000000
0F000000000000
0F000000000000
0F000000000000
F0F00000000000
F0F00000000000
F0F00000000000
0F1E0000000000
0F1E0000000000
0F1E0000000000
0F1E0000000000
00F1E1E1E1E000
00F1E1E1E1E000
00F1E1E1E1E000
00F1E1E1E1E000
001E1E1E1E0000
001E1E1E1E0000
001E1E1E1E0000
001E1E1E1E0000
0001E1E1E1E000
0001E1E1E1E000
0001E1E1E1E000
0001E1E1E1E000
000000001E0000
000000001E0000
000000001E0000
000000001E0000
00000001E1E3C0
00000001E1E3C0
00000001E1E3C0
00000001E1E3C0
000000001E1E00
000000001E1E00
000000001E1E00
000000001E1E00
0000000001E3C0
0000000001E3C0
0000000001E3C0
0000000001E3C0
ENDCHAR
STARTCHAR 0119
ENCODING 281
SWIDTH 694 0
DWIDTH 54 0
BBX 50 74 6 -16
BITMAP
00F1E1E1E1E000
00F1E1E1E1E000
00F1E1E1E1E000
00F1E1E1E1E000
0F1E1E1E1E0000
0F1E1E1E1E0000
0F1E1E1E1E0000
F0F1E1E1E1E000
F0F1E1E1E1E000
F0F1E1E1E1E000
F0F1E1E1E1E000
0F000000000000
0F000000000000
0F000000000000
0F000000000000
F0F00000000000
F0F00000000000
F0F00000000000
F0F00000000000
0F000000000000
0F000000000000
0F000000000000
0F000000000000
F0F1E1E1E00000
F0F1E1E1E00000
F0F1E1E1E00000
F0F1E1E1E00000
0F1E1E1E000000
0F1E1E1E000000
0F1E1E1E000000
0F1E1E1E000000
F0F1E1E1E00000
F0F1E1E1E00000
F0F1E1E1E00000
F0F1E1E1E00000
0F000000000000
0F000000000000
0F000000000000
0F000000000000
F0F00000000000
F0F00000000000
F0F00000000000
0F000000000000
0F000000000000
0F000000000000
0F000000000000
F0F1E1E1E1E000
F0F1E1E1E1E000
F0F1E1E1E1E000
F0F1E1E1E1E000
0F1E1E1E1E0000
0F1E1E1E1E0000
0F1E1E1E1E0000
0F1E1E1E1E0000
00F1E1E1E1E000
00F1E1E1E1E000
00F1E1E1E1E000
00F1E1E1E1E000
000000001E0000
000000001E0000
000000001E0000
000000001E0000
00000001E1E3C0
00000001E1E3C0
00000001E1E3C0
00000001E1E3C0
000000001E1E00
000000001E1E00
000000001E1E00
000000001E1E00
0000000001E3C0
0000000001E3C0
0000000001E3C0
0000000001E3C0
ENDCHAR
STARTCHAR 011A
ENCODING 282
SWIDTH 694 0
DWIDTH 54 0
BBX 43 82 6 0
BITMAP
00F1E1E1E000
00F1E1E1E000
00F1E1E1E000
00F1E1E1E000
001E001E0000
001E001E0000
001E001E0000
001E001E0000
00F1E1E1E000
00F1E1E1E000
00F1E1E1E000
00F1E1E1E000
001E1E1E0000
001E1E1E0000
001E1E1E0000
001E1E1E0000
0001E1E00000
0001E1E00000
0001E1E00000
0001E1E00000
000000000000
000000000000
000000000000
000000000000
0001E1E1E1E0
0001E1E1E1E0
0001E1E1E1E0
0001E1E1E1E0
001E1E1E1E00
001E1E1E1E00
001E1E1E1E00
00F1E1E1E1E0
00F1E1E1E1E0
00F1E1E1E1E0
00F1E1E1E1E0
0F1E00000000
0F1E00000000
0F1E00000000
0F1E00000000
F0F000000000
F0F000000000
F0F000000000
F0F000000000
0F0000000000
0F0000000000
0F0000000000
0F0000000000
F0F1E1E1E000
F0F1E1E1E000
F0F1E1E1E000
F0F1E1E1E000
0F1E1E1E0000
0F1E1E1E0000
0F1E1E1E0000
0F1E1E1E0000
F0F1E1E1E000
F0F1E1E1E000
F0F1E1E1E000
F0F1E1E1E000
0F0000000000
0F0000000000
0F0000000000
0F0000000000
F0F000000000
F0F000000000
F0F000000000
0F1E00000000
0F1E00000000
0F1E00000000
0F1E00000000
00F1E1E1E1E0
00F1E1E1E1E0
00F1E1E1E1E0
00F1E1E1E1E0
001E1E1E1E00
001E1E1E1E00
001E1E1E1E00
001E1E1E1E00
0001E1E1E1E0
0001E1E1E1E0
0001E1E1E1E0
0001E1E1E1E0
ENDCHAR
STARTCHAR 011B
ENCODING 283
SWIDTH 694 0
DWIDTH 54 0
BBX 43 82 6 0
BITMAP
00F1E1E1E000
00F1E1E1E000
00F1E1E1E000
00F1E1E1E000
001E001E0000
001E001E0000
001E001E0000
001E001E0000
00F1E1E1E000
00F1E1E1E000
00F1E1E1E000
00F1E1E1E000
001E1E1E0000
001E1E1E0000
001E1E1E0000
001E1E1E0000
0001E1E00000
0001E1E00000
0001E1E00000
0001E1E00000
000000000000
000000000000
000000000000
000000000000
00F1E1E1E1E0
00F1E1E1E1E0
00F1E1E1E1E0
00F1E1E1E1E0
0F1E1E1E1E00
0F1E1E1E1E00
0F1E1E1E1E00
F0F1E1E1E1E0
F0F1E1E1E1E0
F0F1E1E1E1E0
F0F1E1E1E1E0
0F0000000000
0F0000000000
0F0000000000
0F0000000000
F0F000000000
F0F000000000
F0F000000000
F0F000000000
0F0000000000
0F0000000000
0F0000000000
0F0000000000
F0F1E1E1E000
F0F1E1E1E000
F0F1E1E1E000
F0F1E1E1E000
0F1E1E1E0000
0F1E1E1E0000
0F1E1E1E0000
0F1E1E1E0000
F0F1E1E1E000
F0F1E1E1E000
F0F1E1E1E000
F0F1E1E1E000
0F0000000000
0F0000000000
0F0000000000
0F0000000000
F0F000000000
F0F000000000
F0F000000000
0F0000000000
0F0000000000
0F0000000000
0F0000000000
F0F1E1E1E1E0
F0F1E1E1E1E0
F0F1E1E1E1E0
F0F1E1E1E1E0
0F1E1E1E1E00
0F1E1E1E1E00
0F1E1E1E1E00
0F1E1E1E1E00
00F1E1E1E1E0
00F1E1E1E1E0
00F1E1E1E1E0
00F1E1E1E1E0
ENDCHAR
STARTCHAR 011E
ENCODING 286
SWIDTH 797 0
DWIDTH 62 0
BBX 50 82 6 0
BITMAP
00F1E001E1E000
00F1E001E1E000
00F1E001E1E000
00F1E001E1E000
001E00001E0000
001E00001E0000
001E00001E0000
001E00001E0000
00F1E1E1E1E000
00F1E1E1E1E000
00F1E1E1E1E000
00F1E1E1E1E000
001E1E1E1E0000
001E1E1E1E0000
001E1E1E1E0000
001E1E1E1E0000
0001E1E1E00000
0001E1E1E00000
0001E1E1E00000
0001E1E1E00000
00000000000000
00000000000000
00000000000000
00000000000000
0001E1E1E1E3C0
0001E1E1E1E3C0
0001E1E1E1E3C0
0001E1E1E1E3C0
001E1E1E1E1E00
001E1E1E1E1E00
001E1E1E1E1E00
00F1E1E1E1E3C0
00F1E1E1E1E3C0
00F1E1E1E1E3C0
00F1E1E1E1E3C0
0F1E0000000000
0F1E0000000000
0F1E0000000000
0F1E0000000000
F0F00000000000
F0F00000000000
F0F00000000000
F0F00000000000
0F000000000000
0F000000000000
0F000000000000
0F000000000000
F0F001E1E1E3C0
F0F001E1E1E3C0
F0F001E1E1E3C0
F0F001E1E1E3C0
0F00001E1E1E00
0F00001E1E1E00
0F00001E1E1E00
0F00001E1E1E00
F0F001E1E1E3C0
F0F001E1E1E3C0
F0F001E1E1E3C0
F0F001E1E1E3C0
0F000000001E00
0F000000001E00
0F000000001E00
0F000000001E00
F0F0000001E3C0
F0F0000001E3C0
F0F0000001E3C0
0F1E0000001E00
0F1E0000001E00
0F1E0000001E00
0F1E0000001E00
00F1E1E1E1E3C0
00F1E1E1E1E3C0
00F1E1E1E1E3C0
00F1E1E1E1E3C0
001E1E1E1E1E00
001E1E1E1E1E00
001E1E1E1E1E00
001E1E1E1E1E00
0001E1E1E1E3C0
0001E1E1E1E3C0
0001E1E1E1E3C0
0001E1E1E1E3C0
ENDCHAR
STARTCHAR 011F
ENCODING 287
SWIDTH 694 0
DWIDTH 54 0
BBX 43 82 6 0
BITMAP
0F1E001E1E00
0F1E001E1E00
0F1E001E1E00
0F1E001E1E00
00F00001E000
00F00001E000
00F00001E000
00F00001E000
0F1E1E1E1E00
0F1E1E1E1E00
0F1E1E1E1E00
0F1E1E1E1E00
00F1E1E1E000
00F1E1E1E000
00F1E1E1E000
00F1E1E1E000
001E1E1E0000
001E1E1E0000
001E1E1E0000
001E1E1E0000
000000000000
000000000000
000000000000
000000000000
00F1E1E1E1E0
00F1E1E1E1E0
00F1E1E1E1E0
00F1E1E1E1E0
0F1E1E1E1E00
0F1E1E1E1E00
0F1E1E1E1E00
F0F1E1E1E1E0
F0F1E1E1E1E0
F0F1E1E1E1E0
F0F1E1E1E1E0
0F0000000000
0F0000000000
0F0000000000
0F0000000000
F0F000000000
F0F000000000
F0F000000000
F0F000000000
0F0000000000
0F0000000000
0F0000000000
0F0000000000
F0F001E1E1E0
F0F001E1E1E0
F0F001E1E1E0
F0F001E1E1E0
0F00001E1E00
0F00001E1E00
0F00001E1E00
0F00001E1E00
F0F001E1E1E0
F0F001E1E1E0
F0F001E1E1E0
F0F001E1E1E0
0F0000001E00
0F0000001E00
0F0000001E00
0F0000001E00
F0F00001E1E0
F0F00001E1E0
F0F00001E1E0
0F0000001E00
0F0000001E00
0F0000001E00
0F0000001E00
F0F1E1E1E1E0
F0F1E1E1E1E0
F0F1E1E1E1E0
F0F1E1E1E1E0
0F1E1E1E1E00
0F1E1E1E1E00
0F1E1E1E1E00
0F1E1E1E1E00
00F1E1E1E000
00F1E1E1E000
00F1E1E1E000
00F1E1E1E000
ENDCHAR
STARTCHAR 0120
ENCODING 288
SWIDTH 797 0
DWIDTH 62 0
BBX 50 74 6 0
BITMAP
00001E1E000000
00001E1E000000
00001E1E000000
00001E1E000000
000001E0000000
000001E0000000
000001E0000000
000001E0000000
00001E1E000000
00001E1E000000
00001E1E000000
00001E1E000000
00000000000000
00000000000000
00000000000000
00000000000000
0001E1E1E1E3C0
0001E1E1E1E3C0
0001E1E1E1E3C0
0001E1E1E1E3C0
001E1E1E1E1E00
001E1E1E1E1E00
001E1E1E1E1E00
00F1E1E1E1E3C0
00F1E1E1E1E3C0
00F1E1E1E1E3C0
00F1E1E1E1E3C0
0F1E0000000000
0F1E0000000000
0F1E0000000000
0F1E0000000000
F0F00000000000
F0F00000000000
F0F00000000000
F0F00000000000
0F000000000000
0F000000000000
0F000000000000
0F000000000000
F0F001E1E1E3C0
F0F001E1E1E3C0
F0F001E1E1E3C0
F0F001E1E1E3C0
0F00001E1E1E00
0F00001E1E1E00
0F00001E1E1E00
0F00001E1E1E00
F0F001E1E1E3C0
F0F001E1E1E3C0
F0F001E1E1E3C0
F0F001E1E1E3C0
0F000000001E00
0F000000001E00
0F000000001E00
0F000000001E00
F0F0000001E3C0
F0F0000001E3C0
F0F0000001E3C0
0F1E0000001E00
0F1E0000001E00
0F1E0000001E00
0F1E0000001E00
00F1E1E1E1E3C0
00F1E1E1E1E3C0
00F1E1E1E1E3C0
00F1E1E1E1E3C0
001E1E1E1E1E00
001E1E1E1E1E00
001E1E1E1E1E00
001E1E1E1E1E00
0001E1E1E1E3C0
0001E1E1E1E3C0
0001E1E1E1E3C0
0001E1E1E1E3C0
ENDCHAR
STARTCHAR 0121
ENCODING 289
SWIDTH 694 0
DWIDTH 54 0
BBX 43 74 6 0
BITMAP
0001E1E00000
0001E1E00000
0001E1E00000
0001E1E00000
00001E000000
00001E000000
00001E000000
00001E000000
0001E1E00000
0001E1E00000
0001E1E00000
0001E1E00000
000000000000
000000000000
000000000000
000000000000
00F1E1E1E1E0
00F1E1E1E1E0
00F1E1E1E1E0
00F1E1E1E1E0
0F1E1E1E1E00
0F1E1E1E1E00
0F1E1E1E1E00
F0F1E1E1E1E0
F0F1E1E1E1E0
F0F1E1E1E1E0
F0F1E1E1E1E0
0F0000000000
0F0000000000
0F0000000000
0F0000000000
F0F000000000
F0F000000000
F0F000000000
F0F000000000
0F0000000000
0F0000000000
0F0000000000
0F0000000000
F0F001E1E1E0
F0F001E1E1E0
F0F001E1E1E0
F0F001E1E1E0
0F00001E1E00
0F00001E1E00
0F00001E1E00
0F00001E1E00
F0F001E1E1E0
F0F001E1E1E0
F0F001E1E1E0
F0F001E1E1E0
0F0000001E00
0F0000001E00
0F0000001E00
0F0000001E00
F0F00001E1E0
F0F00001E1E0
F0F00001E1E0
0F0000001E00
0F0000001E00
0F0000001E00
0F0000001E00
F0F1E1E1E1E0
F0F1E1E1E1E0
F0F1E1E1E1E0
F0F1E1E1E1E0
0F1E1E1E1E00
0F1E1E1E1E00
0F1E1E1E1E00
0F1E1E1E1E00
00F1E1E1E000
00F1E1E1E000
00F1E1E1E000
00F1E1E1E000
ENDCHAR
STARTCHAR 0122
ENCODING 290
SWIDTH 797 0
DWIDTH 62 0
BBX 50 81 6 -23
BITMAP
0001E1E1E1E3C0
0001E1E1E1E3C0
0001E1E1E1E3C0
0001E1E1E1E3C0
001E1E1E1E1E00
001E1E1E1E1E00
001E1E1E1E1E00
00F1E1E1E1E3C0
00F1E1E1E1E3C0
00F1E1E1E1E3C0
00F1E1E1E1E3C0
0F1E0000000000
0F1E0000000000
0F1E0000000000
0F1E0000000000
F0F00000000000
F0F00000000000
F0F00000000000
F0F00000000000
0F000000000000
0F000000000000
0F000000000000
0F000000000000
F0F001E1E1E3C0
F0F001E1E1E3C0
F0F001E1E1E3C0
F0F001E1E1E3C0
0F00001E1E1E00
0F00001E1E1E00
0F00001E1E1E00
0F00001E1E1E00
F0F001E1E1E3C0
F0F001E1E1E3C0
F0F001E1E1E3C0
F0F001E1E1E3C0
0F000000001E00
0F000000001E00
0F000000001E00
0F000000001E00
F0F0000001E3C0
F0F0000001E3C0
F0F0000001E3C0
0F1E0000001E00
0F1E0000001E00
0F1E0000001E00
0F1E0000001E00
00F1E1E1E1E3C0
00F1E1E1E1E3C0
00F1E1E1E1E3C0
00F1E1E1E1E3C0
001E1E1E1E1E00
001E1E1E1E1E00
001E1E1E1E1E00
001E1E1E1E1E00
0001E1E1E1E3C0
0001E1E1E1E3C0
0001E1E1E1E3C0
0001E1E1E1E3C0
00000000000000
00000000000000
00000000000000
00000000000000
00001E1E000000
00001E1E000000
00001E1E000000
00001E1E000000
000001E0000000
000001E0000000
000001E0000000
000001E0000000
00001E1E000000
00001E1E000000
00001E1E000000
00001E1E000000
000001E0000000
000001E0000000
000001E0000000
00001E00000000
00001E00000000
00001E00000000
00001E00000000
ENDCHAR
STARTCHAR 0123
ENCODING 291
SWIDTH 694 0
DWIDTH 54 0
BBX 43 81 6 -23
BITMAP
00F1E1E1E1E0
00F1E1E1E1E0
00F1E1E1E1E0
00F1E1E1E1E0
0F1E1E1E1E00
0F1E1E1E1E00
0F1E1E1E1E00
F0F1E1E1E1E0
F0F1E1E1E1E0
F0F1E1E1E1E0
F0F1E1E1E1E0
0F0000000000
0F0000000000
0F0000000000
0F0000000000
F0F000000000
F0F000000000
F0F000000000
F0F000000000
0F0000000000
0F0000000000
0F0000000000
0F0000000000
F0F001E1E1E0
F0F001E1E1E0
F0F001E1E1E0
F0F001E1E1E0
0F00001E1E00
0F00001E1E00
0F00001E1E00
0F00001E1E00
F0F001E1E1E0
F0F001E1E1E0
F0F001E1E1E0
F0F001E1E1E0
0F0000001E00
0F0000001E00
0F0000001E00
0F0000001E00
F0F00001E1E0
F0F00001E1E0
F0F00001E1E0
0F0000001E00
0F0000001E00
0F0000001E00
0F0000001E00
F0F1E1E1E1E0
F0F1E1E1E1E0
F0F1E1E1E1E0
F0F1E1E1E1E0
0F1E1E1E1E00
0F1E1E1E1E00
0F1E1E1E1E00
0F1E1E1E1E00
00F1E1E1E000
00F1E1E1E000
00F1E1E1E000
00F1E1E1E000
000000000000
000000000000
000000000000
000000000000
0001E1E00000
0001E1E00000
0001E1E00000
0001E1E00000
00001E000000
00001E000000
00001E000000
00001E000000
0001E1E00000
0001E1E00000
0001E1E00000
0001E1E00000
00001E000000
00001E000000
00001E000000
0001E0000000
0001E0000000
0001E0000000
0001E0000000
ENDCHAR
STARTCHAR 0126
ENCODING 294
SWIDTH 900 0
DWIDTH 70 0
BBX 66 58 2 0
BITMAP
00F1E0000001E3C000
00F1E0000001E3C000
00F1E0000001E3C000
00F1E0000001E3C000
000F000000003C0000
000F000000003C0000
000F000000003C0000
F0F1E1E1E1E1E3C3C0
F0F1E1E1E1E1E3C3C0
F0F1E1E1E1E1E3C3C0
F0F1E1E1E1E1E3C3C0
0F0F1E1E1E1E3C3C00
0F0F1E1E1E1E3C3C00
0F0F1E1E1E1E3C3C00
0F0F1E1E1E1E3C3C00
F0F1E1E1E1E1E3C3C0
F0F1E1E1E1E1E3C3C0
F0F1E1E1E1E1E3C3C0
F0F1E1E1E1E1E3C3C0
000F000000003C0000
000F000000003C0000
000F000000003C0000
000F000000003C0000
00F1E1E1E1E1E3C000
00F1E1E1E1E1E3C000
00F1E1E1E1E1E3C000
00F1E1E1E1E1E3C000
000F1E1E1E1E3C0000
000F1E1E1E1E3C0000
000F1E1E1E1E3C0000
000F1E1E1E1E3C0000
00F1E1E1E1E1E3C000
00F1E1E1E1E1E3C000
00F1E1E1E1E1E3C000
00F1E1E1E1E1E3C000
000F000000003C0000
000F000000003C0000
000F000000003C0000
000F000000003C0000
00F1E0000001E3C000
00F1E0000001E3C000
00F1E0000001E3C000
000F000000003C0000
000F000000003C0000
000F000000003C0000
000F000000003C0000
00F1E0000001E3C000
00F1E0000001E3C000
00F1E0000001E3C000
00F1E0000001E3C000
000F000000003C0000
000F000000003C0000
000F000000003C0000
000F000000003C0000
00F1E0000001E3C000
00F1E0000001E3C000
00F1E0000001E3C000
00F1E0000001E3C000
ENDCHAR
STARTCHAR 0127
ENCODING 295
SWIDTH 797 0
DWIDTH 62 0
BBX 58 58 2 0
BITMAP
00F1E00001E1E000
00F1E00001E1E000
00F1E00001E1E000
00F1E00001E1E000
000F0000001E0000
000F0000001E0000
000F0000001E0000
F0F1E1E1E1E1E3C0
F0F1E1E1E1E1E3C0
F0F1E1E1E1E1E3C0
F0F1E1E1E1E1E3C0
0F0F1E1E1E1E3C00
0F0F1E1E1E1E3C00
0F0F1E1E1E1E3C00
0F0F1E1E1E1E3C00
F0F1E1E1E1E1E3C0
F0F1E1E1E1E1E3C0
F0F1E1E1E1E1E3C0
F0F1E1E1E1E1E3C0
000F0000001E0000
000F0000001E0000
000F0000001E0000
000F0000001E0000
00F1E1E1E1E1E000
00F1E1E1E1E1E000
00F1E1E1E1E1E000
00F1E1E1E1E1E000
000F1E1E1E1E0000
000F1E1E1E1E0000
000F1E1E1E1E0000
000F1E1E1E1E0000
00F1E1E1E1E1E000
00F1E1E1E1E1E000
00F1E1E1E1E1E000
00F1E1E1E1E1E000
000F0000001E0000
000F0000001E0000
000F0000001E0000
000F0000001E0000
00F1E00001E1E000
00F1E00001E1E000
00F1E00001E1E000
000F0000001E0000
000F0000001E0000
000F0000001E0000
000F0000001E0000
00F1E00001E1E000
00F1E00001E1E000
00F1E00001E1E000
00F1E00001E1E000
000F0000001E0000
000F0000001E0000
000F0000001E0000
000F0000001E0000
00F1E00001E1E000
00F1E00001E1E000
00F1E00001E1E000
00F1E00001E1E000
ENDCHAR
STARTCHAR 0128
ENCODING 296
SWIDTH 488 0
DWIDTH 38 0
BBX 43 82 -2 0
BITMAP
00F0F001E1E0
00F0F001E1E0
00F0F001E1E0
00F0F001E1E0
0F0F1E001E00
0F0F1E001E00
0F0F1E001E00
0F0F1E001E00
F0F0F1E1E1E0
F0F0F1E1E1E0
F0F0F1E1E1E0
F0F0F1E1E1E0
0F001E1E1E00
0F001E1E1E00
0F001E1E1E00
0F001E1E1E00
F0F001E1E000
F0F001E1E000
F0F001E1E000
F0F001E1E000
000000000000
000000000000
000000000000
000000000000
00F0F1E1E000
00F0F1E1E000
00F0F1E1E000
00F0F1E1E000
000F1E1E0000
000F1E1E0000
000F1E1E0000
00F0F1E1E000
00F0F1E1E000
00F0F1E1E000
00F0F1E1E000
00001E000000
00001E000000
00001E000000
00001E000000
0000F1E00000
0000F1E00000
0000F1E00000
0000F1E00000
00001E000000
00001E000000
00001E000000
00001E000000
0000F1E00000
0000F1E00000
0000F1E00000
0000F1E00000
00001E000000
00001E000000
00001E000000
00001E000000
0000F1E00000
0000F1E00000
0000F1E00000
0000F1E00000
00001E000000
00001E000000
00001E000000
00001E000000
0000F1E00000
0000F1E00000
0000F1E00000
00001E000000
00001E000000
00001E000000
00001E000000
00F0F1E1E000
00F0F1E1E000
00F0F1E1E000
00F0F1E1E000
000F1E1E0000
000F1E1E0000
000F1E1E0000
000F1E1E0000
00F0F1E1E000
00F0F1E1E000
00F0F1E1E000
00F0F1E1E000
ENDCHAR
STARTCHAR 0129
ENCODING 297
SWIDTH 295 0
DWIDTH 23 0
BBX 43 82 -10 0
BITMAP
00F0F001E1E0
00F0F001E1E0
00F0F001E1E0
00F0F001E1E0
0F0F0F001E00
0F0F0F001E00
0F0F0F001E00
0F0F0F001E00
F0F0F0F1E1E0
F0F0F0F1E1E0
F0F0F0F1E1E0
F0F0F0F1E1E0
0F000F1E1E00
0F000F1E1E00
0F000F1E1E00
0F000F1E1E00
F0F000F1E000
F0F000F1E000
F0F000F1E000
F0F000F1E000
000000000000
000000000000
000000000000
000000000000
0000F0F00000
0000F0F00000
0000F0F00000
0000F0F00000
00000F000000
00000F000000
00000F000000
0000F0F00000
0000F0F00000
0000F0F00000
0000F0F00000
00000F000000
00000F000000
00000F000000
00000F000000
0000F0F00000
0000F0F00000
0000F0F00000
0000F0F00000
00000F000000
00000F000000
00000F000000
00000F000000
0000F0F00000
0000F0F00000
0000F0F00000
0000F0F00000
00000F000000
00000F000000
00000F000000
00000F000000
0000F0F00000
0000F0F00000
0000F0F00000
0000F0F00000
00000F000000
00000F000000
00000F000000
00000F000000
0000F0F00000
0000F0F00000
0000F0F00000
00000F000000
00000F000000
00000F000000
00000F000000
0000F0F00000
0000F0F00000
0000F0F00000
0000F0F00000
00000F000000
00000F000000
00000F000000
00000F000000
0000F0F00000
0000F0F00000
0000F0F00000
0000F0F00000
ENDCHAR
STARTCHAR 012A
ENCODING 298
SWIDTH 488 0
DWIDTH 38 0
BBX 27 74 6 0
BITMAP
F0F1E1E0
F0F1E1E0
F0F1E1E0
F0F1E1E0
0F1E1E00
0F1E1E00
0F1E1E00
0F1E1E00
F0F1E1E0
F0F1E1E0
F0F1E1E0
F0F1E1E0
00000000
00000000
00000000
00000000
F0F1E1E0
F0F1E1E0
F0F1E1E0
F0F1E1E0
0F1E1E00
0F1E1E00
0F1E1E00
F0F1E1E0
F0F1E1E0
F0F1E1E0
F0F1E1E0
001E0000
001E0000
001E0000
001E0000
00F1E000
00F1E000
00F1E000
00F1E000
001E0000
001E0000
001E0000
001E0000
00F1E000
00F1E000
00F1E000
00F1E000
001E0000
001E0000
001E0000
001E0000
00F1E000
00F1E000
00F1E000
00F1E000
001E0000
001E0000
001E0000
001E0000
00F1E000
00F1E000
00F1E000
001E0000
001E0000
001E0000
001E0000
F0F1E1E0
F0F1E1E0
F0F1E1E0
F0F1E1E0
0F1E1E00
0F1E1E00
0F1E1E00
0F1E1E00
F0F1E1E0
F0F1E1E0
F0F1E1E0
F0F1E1E0
ENDCHAR
STARTCHAR 012B
ENCODING 299
SWIDTH 295 0
DWIDTH 23 0
BBX 27 74 -2 0
BITMAP
F0F0F1E0
F0F0F1E0
F0F0F1E0
F0F0F1E0
0F0F1E00
0F0F1E00
0F0F1E00
0F0F1E00
F0F0F1E0
F0F0F1E0
F0F0F1E0
F0F0F1E0
00000000
00000000
00000000
00000000
00F0F000
00F0F000
00F0F000
00F0F000
000F0000
000F0000
000F0000
00F0F000
00F0F000
00F0F000
00F0F000
000F0000
000F0000
000F0000
000F0000
00F0F000
00F0F000
00F0F000
00F0F000
000F0000
000F0000
000F0000
000F0000
00F0F000
00F0F000
00F0F000
00F0F000
000F0000
000F0000
000F0000
000F0000
00F0F000
00F0F000
00F0F000
00F0F000
000F0000
000F0000
000F0000
000F0000
00F0F000
00F0F000
00F0F000
000F0000
000F0000
000F0000
000F0000
00F0F000
00F0F000
00F0F000
00F0F000
000F0000
000F0000
000F0000
000F0000
00F0F000
00F0F000
00F0F000
00F0F000
ENDCHAR
STARTCHAR 012E
ENCODING 302
SWIDTH 488 0
DWIDTH 38 0
BBX 35 74 6 -16
BITMAP
F0F1E1E000
F0F1E1E000
F0F1E1E000
F0F1E1E000
0F1E1E0000
0F1E1E0000
0F1E1E0000
F0F1E1E000
F0F1E1E000
F0F1E1E000
F0F1E1E000
001E000000
001E000000
001E000000
001E000000
00F1E00000
00F1E00000
00F1E00000
00F1E00000
001E000000
001E000000
001E000000
001E000000
00F1E00000
00F1E00000
00F1E00000
00F1E00000
001E000000
001E000000
001E000000
001E000000
00F1E00000
00F1E00000
00F1E00000
00F1E00000
001E000000
001E000000
001E000000
001E000000
00F1E00000
00F1E00000
00F1E00000
001E000000
001E000000
001E000000
001E000000
F0F1E1E000
F0F1E1E000
F0F1E1E000
F0F1E1E000
0F1E1E0000
0F1E1E0000
0F1E1E0000
0F1E1E0000
F0F1E1E000
F0F1E1E000
F0F1E1E000
F0F1E1E000
00001E0000
00001E0000
00001E0000
00001E0000
0001E1E1E0
0001E1E1E0
0001E1E1E0
0001E1E1E0
00001E1E00
00001E1E00
00001E1E00
00001E1E00
000001E1E0
000001E1E0
000001E1E0
000001E1E0
ENDCHAR
STARTCHAR 012F
ENCODING 303
SWIDTH 295 0
DWIDTH 23 0
BBX 19 74 6 -16
BITMAP
F0F000
F0F000
F0F000
F0F000
0F0000
0F0000
0F0000
F0F000
F0F000
F0F000
F0F000
0F0000
0F0000
0F0000
0F0000
F0F000
F0F000
F0F000
F0F000
0F0000
0F0000
0F0000
0F0000
F0F000
F0F000
F0F000
F0F000
0F0000
0F0000
0F0000
0F0000
F0F000
F0F000
F0F000
F0F000
0F0000
0F0000
0F0000
0F0000
F0F000
F0F000
F0F000
0F0000
0F0000
0F0000
0F0000
F0F000
F0F000
F0F000
F0F000
0F0000
0F0000
0F0000
0F0000
F0F000
F0F000
F0F000
F0F000
0F0000
0F0000
0F0000
0F0000
F0F1E0
F0F1E0
F0F1E0
F0F1E0
0F1E00
0F1E00
0F1E00
0F1E00
00F1E0
00F1E0
00F1E0
00F1E0
ENDCHAR
STARTCHAR 0130
ENCODING 304
SWIDTH 488 0
DWIDTH 38 0
BBX 27 74 6 0
BITMAP
00F1E000
00F1E000
00F1E000
00F1E000
001E0000
001E0000
001E0000
001E0000
00F1E000
00F1E000
00F1E000
00F1E000
00000000
00000000
00000000
00000000
F0F1E1E0
F0F1E1E0
F0F1E1E0
F0F1E1E0
0F1E1E00
0F1E1E00
0F1E1E00
F0F1E1E0
F0F1E1E0
F0F1E1E0
F0F1E1E0
001E0000
001E0000
001E0000
001E0000
00F1E000
00F1E000
00F1E000
00F1E000
001E0000
001E0000
001E0000
001E0000
00F1E000
00F1E000
00F1E000
00F1E000
001E0000
001E0000
001E0000
001E0000
00F1E000
00F1E000
00F1E000
00F1E000
001E0000
001E0000
001E0000
001E0000
00F1E000
00F1E000
00F1E000
001E0000
001E0000
001E0000
001E0000
F0F1E1E0
F0F1E1E0
F0F1E1E0
F0F1E1E0
0F1E1E00
0F1E1E00
0F1E1E00
0F1E1E00
F0F1E1E0
F0F1E1E0
F0F1E1E0
F0F1E1E0
ENDCHAR
STARTCHAR 0131
ENCODING 305
SWIDTH 295 0
DWIDTH 23 0
BBX 12 58 6 0
BITMAP
F0F0
F0F0
F0F0
F0F0
0F00
0F00
0F00
F0F0
F0F0
F0F0
F0F0
0F00
0F00
0F00
0F00
F0F0
F0F0
F0F0
F0F0
0F00
0F00
0F00
0F00
F0F0
F0F0
F0F0
F0F0
0F00
0F00
0F00
0F00
F0F0
F0F0
F0F0
F0F0
0F00
0F00
0F00
0F00
F0F0
F0F0
F0F0
0F00
0F00
0F00
0F00
F0F0
F0F0
F0F0
F0F0
0F00
0F00
0F00
0F00
F0F0
F0F0
F0F0
F0F0
ENDCHAR
STARTCHAR 0136
ENCODING 310
SWIDTH 694 0
DWIDTH 54 0
BBX 43 81 6 -23
BITMAP
F0F00001E1E0
F0F00001E1E0
F0F00001E1E0
F0F00001E1E0
0F0000001E00
0F0000001E00
0F0000001E00
F0F00001E1E0
F0F00001E1E0
F0F00001E1E0
F0F00001E1E0
0F00001E1E00
0F00001E1E00
0F00001E1E00
0F00001E1E00
F0F001E1E000
F0F001E1E000
F0F001E1E000
F0F001E1E000
0F001E1E0000
0F001E1E0000
0F001E1E0000
0F001E1E0000
F0F1E1E00000
F0F1E1E00000
F0F1E1E00000
F0F1E1E00000
0F1E1E000000
0F1E1E000000
0F1E1E000000
0F1E1E000000
F0F1E1E00000
F0F1E1E00000
F0F1E1E00000
F0F1E1E00000
0F001E1E0000
0F001E1E0000
0F001E1E0000
0F001E1E0000
F0F001E1E000
F0F001E1E000
F0F001E1E000
0F00001E1E00
0F00001E1E00
0F00001E1E00
0F00001E1E00
F0F00001E1E0
F0F00001E1E0
F0F00001E1E0
F0F00001E1E0
0F0000001E00
0F0000001E00
0F0000001E00
0F0000001E00
F0F00001E1E0
F0F00001E1E0
F0F00001E1E0
F0F00001E1E0
000000000000
000000000000
000000000000
000000000000
0001E1E00000
0001E1E00000
0001E1E00000
0001E1E00000
00001E000000
00001E000000
00001E000000
00001E000000
0001E1E00000
0001E1E00000
0001E1E00000
0001E1E00000
00001E000000
00001E000000
00001E000000
0001E0000000
0001E0000000
0001E0000000
0001E0000000
ENDCHAR
ENDFONT
